%TF.GenerationSoftware,KiCad,Pcbnew,9.0.2-9.0.2-0~ubuntu24.04.1*%
%TF.CreationDate,2025-06-13T08:12:44-04:00*%
%TF.ProjectId,minstro_combined_board,6d696e73-7472-46f5-9f63-6f6d62696e65,rev?*%
%TF.SameCoordinates,Original*%
%TF.FileFunction,Soldermask,Bot*%
%TF.FilePolarity,Negative*%
%FSLAX46Y46*%
G04 Gerber Fmt 4.6, Leading zero omitted, Abs format (unit mm)*
G04 Created by KiCad (PCBNEW 9.0.2-9.0.2-0~ubuntu24.04.1) date 2025-06-13 08:12:44*
%MOMM*%
%LPD*%
G01*
G04 APERTURE LIST*
G04 Aperture macros list*
%AMRoundRect*
0 Rectangle with rounded corners*
0 $1 Rounding radius*
0 $2 $3 $4 $5 $6 $7 $8 $9 X,Y pos of 4 corners*
0 Add a 4 corners polygon primitive as box body*
4,1,4,$2,$3,$4,$5,$6,$7,$8,$9,$2,$3,0*
0 Add four circle primitives for the rounded corners*
1,1,$1+$1,$2,$3*
1,1,$1+$1,$4,$5*
1,1,$1+$1,$6,$7*
1,1,$1+$1,$8,$9*
0 Add four rect primitives between the rounded corners*
20,1,$1+$1,$2,$3,$4,$5,0*
20,1,$1+$1,$4,$5,$6,$7,0*
20,1,$1+$1,$6,$7,$8,$9,0*
20,1,$1+$1,$8,$9,$2,$3,0*%
G04 Aperture macros list end*
%ADD10C,1.200000*%
%ADD11C,2.000000*%
%ADD12RoundRect,0.250000X0.350000X0.625000X-0.350000X0.625000X-0.350000X-0.625000X0.350000X-0.625000X0*%
%ADD13O,1.200000X1.750000*%
%ADD14O,2.000000X2.500000*%
%ADD15O,1.500000X1.500000*%
%ADD16C,6.400000*%
%ADD17C,0.600000*%
%ADD18C,0.700000*%
%ADD19O,0.800000X1.500000*%
%ADD20RoundRect,0.250000X-0.615000X0.265000X-0.615000X-0.265000X0.615000X-0.265000X0.615000X0.265000X0*%
%ADD21O,1.730000X1.030000*%
%ADD22C,0.750000*%
%ADD23R,1.700000X1.700000*%
%ADD24C,1.700000*%
%ADD25C,1.640000*%
%ADD26O,2.400000X0.900000*%
%ADD27O,1.700000X0.900000*%
G04 APERTURE END LIST*
D10*
%TO.C,MK501*%
X98100000Y-127730000D03*
X98100000Y-130270000D03*
%TD*%
D11*
%TO.C,S902*%
X128250000Y-51750000D03*
X128250000Y-58250000D03*
X132750000Y-51750000D03*
X132750000Y-58250000D03*
%TD*%
D12*
%TO.C,J301*%
X122750000Y-70950000D03*
D13*
X120750000Y-70950000D03*
X118750000Y-70950000D03*
%TD*%
D11*
%TO.C,S903*%
X150250000Y-51750000D03*
X150250000Y-58250000D03*
X154750000Y-51750000D03*
X154750000Y-58250000D03*
%TD*%
D14*
%TO.C,S917*%
X96500000Y-54250000D03*
X89500000Y-54250000D03*
D15*
X95250000Y-51760000D03*
X90750000Y-51750000D03*
%TD*%
D16*
%TO.C,H101*%
X190000000Y-55000000D03*
%TD*%
D17*
%TO.C,REF\u002A\u002A*%
X125000000Y-64000000D03*
X125000000Y-66000000D03*
X127000000Y-64000000D03*
X127000000Y-66000000D03*
X129000000Y-64000000D03*
X129000000Y-66000000D03*
X131000000Y-64000000D03*
X131000000Y-66000000D03*
%TD*%
D18*
%TO.C,J701*%
X86460000Y-135574500D03*
X87730000Y-135574500D03*
X89000000Y-135574500D03*
X90270000Y-135574500D03*
X91540000Y-135574500D03*
D19*
X90905000Y-136729500D03*
X89635000Y-136729500D03*
X88365000Y-136729500D03*
X87095000Y-136729500D03*
%TD*%
D11*
%TO.C,S910*%
X128250000Y-126500000D03*
X128250000Y-133000000D03*
X132750000Y-126500000D03*
X132750000Y-133000000D03*
%TD*%
%TO.C,S907*%
X79250000Y-98650000D03*
X79250000Y-105150000D03*
X83750000Y-98650000D03*
X83750000Y-105150000D03*
%TD*%
%TO.C,S911*%
X150250000Y-126500000D03*
X150250000Y-133000000D03*
X154750000Y-126500000D03*
X154750000Y-133000000D03*
%TD*%
%TO.C,S909*%
X106250000Y-126500000D03*
X106250000Y-133000000D03*
X110750000Y-126500000D03*
X110750000Y-133000000D03*
%TD*%
D20*
%TO.C,J502*%
X152900000Y-114600000D03*
D21*
X152900000Y-116100000D03*
%TD*%
D11*
%TO.C,S901*%
X106250000Y-51750000D03*
X106250000Y-58250000D03*
X110750000Y-51750000D03*
X110750000Y-58250000D03*
%TD*%
D17*
%TO.C,REF\u002A\u002A*%
X113000000Y-95000000D03*
X115000000Y-95000000D03*
X113000000Y-93000000D03*
X115000000Y-93000000D03*
X113000000Y-91000000D03*
X115000000Y-91000000D03*
X113000000Y-89000000D03*
X115000000Y-89000000D03*
%TD*%
D11*
%TO.C,S912*%
X172250000Y-126500000D03*
X172250000Y-133000000D03*
X176750000Y-126500000D03*
X176750000Y-133000000D03*
%TD*%
%TO.C,S908*%
X79250000Y-112850000D03*
X79250000Y-119350000D03*
X83750000Y-112850000D03*
X83750000Y-119350000D03*
%TD*%
D22*
%TO.C,SW401*%
X186825000Y-71600000D03*
X189575000Y-71600000D03*
%TD*%
D23*
%TO.C,J402*%
X170690000Y-76000000D03*
D24*
X173230000Y-75873000D03*
X175770000Y-76127000D03*
X178310000Y-76000000D03*
%TD*%
D11*
%TO.C,S905*%
X79250000Y-70250000D03*
X79250000Y-76750000D03*
X83750000Y-70250000D03*
X83750000Y-76750000D03*
%TD*%
D17*
%TO.C,REF\u002A\u002A*%
X171000000Y-64000000D03*
X171000000Y-66000000D03*
X173000000Y-64000000D03*
X173000000Y-66000000D03*
X175000000Y-64000000D03*
X175000000Y-66000000D03*
X177000000Y-64000000D03*
X177000000Y-66000000D03*
%TD*%
D23*
%TO.C,J1001*%
X94873000Y-70780000D03*
D24*
X95000000Y-73320000D03*
X94746000Y-75860000D03*
X95000000Y-78400000D03*
X94746000Y-80940000D03*
X94873000Y-83480000D03*
%TD*%
D17*
%TO.C,REF\u002A\u002A*%
X171000000Y-120000000D03*
X171000000Y-122000000D03*
X173000000Y-120000000D03*
X173000000Y-122000000D03*
X175000000Y-120000000D03*
X175000000Y-122000000D03*
X177000000Y-120000000D03*
X177000000Y-122000000D03*
%TD*%
D23*
%TO.C,J801*%
X91927000Y-93860000D03*
D24*
X92054000Y-96400000D03*
X91800000Y-98940000D03*
X92054000Y-101480000D03*
X91800000Y-104020000D03*
X92054000Y-106560000D03*
X91800000Y-109100000D03*
X92054000Y-111640000D03*
X91800000Y-114180000D03*
X91927000Y-116720000D03*
%TD*%
D11*
%TO.C,S906*%
X79150000Y-84450000D03*
X79150000Y-90950000D03*
X83650000Y-84450000D03*
X83650000Y-90950000D03*
%TD*%
D16*
%TO.C,H102*%
X81500000Y-55000000D03*
%TD*%
D11*
%TO.C,S904*%
X172250000Y-51750000D03*
X172250000Y-58250000D03*
X176750000Y-51750000D03*
X176750000Y-58250000D03*
%TD*%
D23*
%TO.C,J401*%
X154475000Y-110800000D03*
D24*
X151935000Y-110800000D03*
%TD*%
D25*
%TO.C,J404*%
X126750000Y-115000000D03*
X126750000Y-105200000D03*
%TD*%
D16*
%TO.C,H104*%
X81500000Y-135000000D03*
%TD*%
D17*
%TO.C,REF\u002A\u002A*%
X125000000Y-120000000D03*
X125000000Y-122000000D03*
X127000000Y-120000000D03*
X127000000Y-122000000D03*
X129000000Y-120000000D03*
X129000000Y-122000000D03*
X131000000Y-120000000D03*
X131000000Y-122000000D03*
%TD*%
D24*
%TO.C,J501*%
X184750000Y-112550000D03*
X177750000Y-112550000D03*
%TD*%
D18*
%TO.C,J403*%
X183890000Y-102650000D03*
X183890000Y-101800000D03*
X183890000Y-100950000D03*
X183890000Y-100100000D03*
X183890000Y-99250000D03*
X183890000Y-98400000D03*
X183890000Y-97550000D03*
X183890000Y-96700000D03*
X185240000Y-96700000D03*
X185240000Y-97550000D03*
X185240000Y-98400000D03*
X185240000Y-99250000D03*
X185240000Y-100100000D03*
X185240000Y-100950000D03*
X185240000Y-101800000D03*
X185240000Y-102650000D03*
D26*
X184870000Y-104000000D03*
D27*
X188250000Y-104000000D03*
D26*
X184870000Y-95350000D03*
D27*
X188250000Y-95350000D03*
%TD*%
D16*
%TO.C,H103*%
X189900000Y-135000000D03*
%TD*%
M02*
