M48
; DRILL file {KiCad 9.0.2-9.0.2-0~ubuntu24.04.1} date 2025-06-12T00:39:13-0400
; FORMAT={-:-/ absolute / metric / decimal}
; #@! TF.CreationDate,2025-06-12T00:39:13-04:00
; #@! TF.GenerationSoftware,Kicad,Pcbnew,9.0.2-9.0.2-0~ubuntu24.04.1
; #@! TF.FileFunction,Plated,1,4,PTH
FMAT,2
METRIC
; #@! TA.AperFunction,Plated,PTH,ComponentDrill
T1C0.200
; #@! TA.AperFunction,Plated,PTH,ViaDrill
T2C0.300
; #@! TA.AperFunction,Plated,PTH,ViaDrill
T3C0.400
; #@! TA.AperFunction,Plated,PTH,ComponentDrill
T4C0.400
; #@! TA.AperFunction,Plated,PTH,ViaDrill
T5C0.600
; #@! TA.AperFunction,Plated,PTH,ComponentDrill
T6C0.600
; #@! TA.AperFunction,Plated,PTH,ComponentDrill
T7C0.730
; #@! TA.AperFunction,Plated,PTH,ComponentDrill
T8C0.750
; #@! TA.AperFunction,Plated,PTH,ComponentDrill
T9C1.000
; #@! TA.AperFunction,Plated,PTH,ComponentDrill
T10C1.300
; #@! TA.AperFunction,Plated,PTH,ComponentDrill
T11C3.200
%
G90
G05
T1
X96.2Y-113.4
X96.2Y-114.45
X96.2Y-115.5
X97.25Y-113.4
X97.25Y-114.45
X97.25Y-115.5
X98.3Y-113.4
X98.3Y-114.45
X98.3Y-115.5
X120.1Y-78.95
X120.1Y-80.05
X121.2Y-78.95
X121.2Y-80.05
X158.25Y-97.0
X158.25Y-98.75
X158.25Y-100.5
X160.0Y-97.0
X160.0Y-98.75
X160.0Y-100.5
X160.75Y-109.05
X160.75Y-110.05
X160.75Y-111.05
X161.75Y-97.0
X161.75Y-98.75
X161.75Y-100.5
X161.75Y-109.05
X161.75Y-110.05
X161.75Y-111.05
X162.75Y-109.05
X162.75Y-110.05
X162.75Y-111.05
T2
X78.3Y-86.5
X78.9Y-100.7
X78.9Y-115.5
X80.5Y-71.9
X81.9Y-75.3
X82.0Y-103.7
X82.2Y-89.7
X82.3Y-118.0
X86.0Y-129.0
X86.0Y-138.0
X87.5Y-125.8
X89.0Y-126.0
X89.0Y-131.0
X90.0Y-131.0
X90.75Y-134.75
X92.0Y-131.0
X93.2Y-117.6
X93.9Y-117.5
X94.0Y-118.7
X94.0Y-129.0
X94.5Y-113.4
X94.6Y-117.4
X95.3Y-117.4
X95.4Y-118.7
X96.4Y-117.9
X98.0Y-117.2
X98.0Y-123.5
X98.5Y-121.0
X98.6Y-110.0
X98.6Y-111.1
X99.0Y-124.25
X99.25Y-118.0
X99.4Y-105.2
X100.0Y-117.25
X100.3Y-111.4
X100.5Y-113.8
X100.5Y-115.25
X100.5Y-124.25
X100.75Y-123.5
X101.25Y-118.0
X101.9Y-115.6
X103.1Y-108.8
X103.3Y-115.6
X103.4Y-122.8
X103.9Y-118.4
X104.8Y-127.8
X105.8Y-53.8
X105.9Y-128.9
X108.2Y-71.2
X108.3Y-54.7
X108.7Y-131.9
X109.1Y-56.8
X117.0Y-93.2
X117.0Y-94.2
X117.3Y-98.8
X117.75Y-81.75
X118.0Y-74.5
X118.0Y-84.8
X118.75Y-81.75
X118.8Y-84.0
X119.6Y-83.2
X119.675Y-98.425
X120.4Y-82.6
X120.4Y-90.6
X120.4Y-91.4
X121.0Y-90.6
X121.0Y-91.4
X121.0Y-93.2
X121.0Y-94.2
X121.1Y-116.6
X121.3Y-86.9
X121.4Y-103.6
X121.6Y-90.6
X121.6Y-91.4
X122.0Y-83.25
X122.75Y-83.0
X123.6Y-98.4
X123.6Y-100.2
X124.4Y-90.6
X124.4Y-91.4
X124.8Y-93.2
X124.8Y-94.2
X125.0Y-90.6
X125.0Y-91.4
X125.2Y-98.4
X125.2Y-100.2
X125.6Y-90.6
X125.6Y-91.4
X125.6Y-95.8
X126.0Y-118.3
X127.0Y-77.0
X127.7Y-128.7
X127.8Y-53.6
X128.1Y-118.6
X128.2Y-95.8
X128.4Y-98.6
X128.4Y-100.2
X128.9Y-86.2
X129.0Y-73.0
X129.4Y-94.6
X130.4Y-90.5
X131.1Y-131.5
X131.2Y-56.9
X131.2Y-107.6
X131.2Y-114.2
X132.325Y-78.0
X132.325Y-79.5
X132.325Y-81.0
X132.5Y-111.0
X133.1Y-107.2
X133.5Y-98.6
X133.5Y-100.2
X133.8Y-96.0
X135.8Y-106.3
X136.0Y-109.75
X136.25Y-111.25
X136.4Y-90.9
X136.4Y-96.0
X136.6Y-93.2
X136.6Y-94.2
X136.8Y-98.6
X136.8Y-100.2
X137.6Y-98.6
X137.6Y-100.2
X138.6Y-84.0
X138.6Y-85.5
X139.0Y-89.0
X139.2Y-92.0
X139.5Y-109.8
X140.25Y-115.25
X141.3Y-109.8
X142.0Y-93.8
X142.75Y-112.75
X142.75Y-117.75
X143.0Y-90.2
X143.0Y-109.8
X144.0Y-93.6
X145.2Y-105.1
X145.25Y-119.0
X145.5Y-108.3
X148.25Y-119.25
X148.4Y-106.7
X148.5Y-85.25
X148.5Y-102.25
X149.4Y-105.8
X149.4Y-107.6
X149.4Y-114.1
X149.7Y-53.6
X149.75Y-103.5
X150.1Y-128.3
X150.4Y-105.6
X151.25Y-96.5
X151.3Y-105.6
X151.4Y-103.7
X151.8Y-103.2
X152.0Y-107.8
X152.1Y-105.6
X152.25Y-97.75
X152.8Y-57.0
X152.9Y-131.9
X153.0Y-94.4
X153.6Y-94.0
X153.6Y-106.2
X153.8Y-95.8
X155.3Y-103.3
X155.6Y-94.4
X155.6Y-96.4
X155.821Y-95.736
X155.9Y-102.7
X157.0Y-103.8
X158.1Y-103.8
X158.5Y-103.1
X159.3Y-106.75
X160.5Y-94.25
X160.54Y-104.46
X160.75Y-106.0
X161.25Y-88.25
X161.75Y-71.25
X161.75Y-76.75
X161.75Y-85.0
X161.75Y-88.75
X161.75Y-94.0
X161.75Y-118.5
X162.0Y-72.25
X162.0Y-88.25
X162.0Y-105.0
X162.0Y-106.75
X162.187Y-114.376
X162.25Y-71.75
X162.25Y-87.25
X162.5Y-73.25
X162.5Y-113.75
X163.11Y-76.69
X163.2Y-115.6
X163.25Y-75.75
X163.25Y-113.5
X163.25Y-117.5
X163.75Y-78.25
X164.0Y-94.0
X164.7Y-84.3
X164.7Y-95.9
X164.75Y-77.25
X164.75Y-80.25
X164.75Y-118.5
X164.9Y-98.1
X165.0Y-114.0
X165.2Y-100.4
X165.25Y-92.75
X165.4Y-101.2
X165.5Y-76.25
X165.6Y-97.9
X165.7Y-102.5
X165.75Y-83.0
X166.0Y-81.5
X166.0Y-103.25
X166.0Y-107.25
X166.3Y-114.44
X166.5Y-83.75
X166.5Y-85.0
X166.8Y-112.0
X166.9Y-114.8
X167.0Y-109.0
X167.142Y-84.034
X167.25Y-86.5
X167.5Y-80.25
X167.5Y-84.75
X167.5Y-125.6
X167.75Y-94.0
X167.8Y-100.6
X167.925Y-112.825
X168.0Y-81.25
X168.0Y-112.0
X168.3Y-99.1
X169.0Y-98.9
X169.25Y-114.75
X170.0Y-94.0
X170.1Y-117.0
X170.6Y-101.8
X171.0Y-123.5
X171.5Y-95.25
X171.5Y-96.75
X171.7Y-53.8
X171.8Y-86.0
X171.9Y-128.4
X172.4Y-86.6
X172.5Y-112.75
X173.0Y-87.5
X173.2Y-118.7
X173.25Y-112.25
X173.7Y-88.1
X174.25Y-113.5
X174.75Y-70.75
X174.75Y-107.0
X174.8Y-56.8
X174.8Y-131.9
X175.5Y-74.0
X176.4Y-96.7
X176.4Y-101.6
X177.0Y-88.4
X179.0Y-99.575
X180.5Y-118.0
X181.25Y-99.575
X181.5Y-93.75
X182.5Y-89.0
X184.0Y-108.75
X185.0Y-88.5
X185.5Y-93.0
X185.5Y-106.75
X186.5Y-88.0
X186.75Y-105.75
T3
X182.0Y-100.5
T4
X183.89Y-96.7
X183.89Y-97.55
X183.89Y-98.4
X183.89Y-99.25
X183.89Y-100.1
X183.89Y-100.95
X183.89Y-101.8
X183.89Y-102.65
X185.24Y-96.7
X185.24Y-97.55
X185.24Y-98.4
X185.24Y-99.25
X185.24Y-100.1
X185.24Y-100.95
X185.24Y-101.8
X185.24Y-102.65
T5
X87.856Y-85.659
X87.972Y-99.881
X88.1Y-71.0
X89.6Y-115.8
X102.2Y-96.8
X109.5Y-90.0
X109.5Y-92.0
X116.4Y-53.1
X116.6Y-90.0
X116.6Y-92.0
X116.7Y-128.2
X128.8Y-80.8
X138.8Y-53.5
X139.0Y-128.4
X149.3Y-117.3
X160.5Y-53.6
X160.6Y-128.6
X182.8Y-53.5
X182.9Y-128.6
T6
X100.5Y-127.73
X100.5Y-130.27
T7
X152.9Y-114.6
X152.9Y-116.1
T8
X118.75Y-70.95
X120.75Y-70.95
X122.75Y-70.95
T9
X79.15Y-84.45
X79.15Y-90.95
X79.25Y-70.25
X79.25Y-76.75
X79.25Y-98.65
X79.25Y-105.15
X79.25Y-112.85
X79.25Y-119.35
X83.65Y-84.45
X83.65Y-90.95
X83.75Y-70.25
X83.75Y-76.75
X83.75Y-98.65
X83.75Y-105.15
X83.75Y-112.85
X83.75Y-119.35
X90.75Y-51.75
X91.8Y-98.94
X91.8Y-104.02
X91.8Y-109.1
X91.8Y-114.18
X91.927Y-93.86
X91.927Y-116.72
X92.054Y-96.4
X92.054Y-101.48
X92.054Y-106.56
X92.054Y-111.64
X94.746Y-75.86
X94.746Y-80.94
X94.873Y-70.78
X94.873Y-83.48
X95.0Y-73.32
X95.0Y-78.4
X95.25Y-51.76
X106.25Y-51.75
X106.25Y-58.25
X106.25Y-126.5
X106.25Y-133.0
X110.75Y-51.75
X110.75Y-58.25
X110.75Y-126.5
X110.75Y-133.0
X128.25Y-51.75
X128.25Y-58.25
X128.25Y-126.5
X128.25Y-133.0
X132.75Y-51.75
X132.75Y-58.25
X132.75Y-126.5
X132.75Y-133.0
X143.373Y-78.77
X143.5Y-73.69
X143.5Y-81.31
X143.627Y-76.23
X150.25Y-51.75
X150.25Y-58.25
X150.25Y-126.5
X150.25Y-133.0
X151.935Y-110.8
X154.475Y-110.8
X154.75Y-51.75
X154.75Y-58.25
X154.75Y-126.5
X154.75Y-133.0
X172.25Y-51.75
X172.25Y-58.25
X172.25Y-126.5
X172.25Y-133.0
X176.75Y-51.75
X176.75Y-58.25
X176.75Y-126.5
X176.75Y-133.0
T10
X89.5Y-54.25
X96.5Y-54.25
T11
X81.5Y-55.0
X81.5Y-135.0
X189.9Y-135.0
X190.0Y-55.0
T6
G00X184.12Y-95.35
M15
G01X185.62Y-95.35
M16
G05
G00X184.12Y-104.0
M15
G01X185.62Y-104.0
M16
G05
G00X187.85Y-95.35
M15
G01X188.65Y-95.35
M16
G05
G00X187.85Y-104.0
M15
G01X188.65Y-104.0
M16
G05
M30
