%TF.GenerationSoftware,KiCad,Pcbnew,9.0.2-9.0.2-0~ubuntu24.04.1*%
%TF.CreationDate,2025-06-12T00:39:10-04:00*%
%TF.ProjectId,minstro_combined_board,6d696e73-7472-46f5-9f63-6f6d62696e65,rev?*%
%TF.SameCoordinates,Original*%
%TF.FileFunction,Legend,Bot*%
%TF.FilePolarity,Positive*%
%FSLAX46Y46*%
G04 Gerber Fmt 4.6, Leading zero omitted, Abs format (unit mm)*
G04 Created by KiCad (PCBNEW 9.0.2-9.0.2-0~ubuntu24.04.1) date 2025-06-12 00:39:10*
%MOMM*%
%LPD*%
G01*
G04 APERTURE LIST*
%ADD10C,0.100000*%
%ADD11C,0.150000*%
%ADD12C,0.050000*%
G04 APERTURE END LIST*
D10*
X101261904Y-127057419D02*
X101261904Y-126057419D01*
X101261904Y-126057419D02*
X100928571Y-126771704D01*
X100928571Y-126771704D02*
X100595238Y-126057419D01*
X100595238Y-126057419D02*
X100595238Y-127057419D01*
X100119047Y-127057419D02*
X100119047Y-126057419D01*
X99547619Y-127057419D02*
X99976190Y-126485990D01*
X99547619Y-126057419D02*
X100119047Y-126628847D01*
X98642857Y-126057419D02*
X99119047Y-126057419D01*
X99119047Y-126057419D02*
X99166666Y-126533609D01*
X99166666Y-126533609D02*
X99119047Y-126485990D01*
X99119047Y-126485990D02*
X99023809Y-126438371D01*
X99023809Y-126438371D02*
X98785714Y-126438371D01*
X98785714Y-126438371D02*
X98690476Y-126485990D01*
X98690476Y-126485990D02*
X98642857Y-126533609D01*
X98642857Y-126533609D02*
X98595238Y-126628847D01*
X98595238Y-126628847D02*
X98595238Y-126866942D01*
X98595238Y-126866942D02*
X98642857Y-126962180D01*
X98642857Y-126962180D02*
X98690476Y-127009800D01*
X98690476Y-127009800D02*
X98785714Y-127057419D01*
X98785714Y-127057419D02*
X99023809Y-127057419D01*
X99023809Y-127057419D02*
X99119047Y-127009800D01*
X99119047Y-127009800D02*
X99166666Y-126962180D01*
X97976190Y-126057419D02*
X97880952Y-126057419D01*
X97880952Y-126057419D02*
X97785714Y-126105038D01*
X97785714Y-126105038D02*
X97738095Y-126152657D01*
X97738095Y-126152657D02*
X97690476Y-126247895D01*
X97690476Y-126247895D02*
X97642857Y-126438371D01*
X97642857Y-126438371D02*
X97642857Y-126676466D01*
X97642857Y-126676466D02*
X97690476Y-126866942D01*
X97690476Y-126866942D02*
X97738095Y-126962180D01*
X97738095Y-126962180D02*
X97785714Y-127009800D01*
X97785714Y-127009800D02*
X97880952Y-127057419D01*
X97880952Y-127057419D02*
X97976190Y-127057419D01*
X97976190Y-127057419D02*
X98071428Y-127009800D01*
X98071428Y-127009800D02*
X98119047Y-126962180D01*
X98119047Y-126962180D02*
X98166666Y-126866942D01*
X98166666Y-126866942D02*
X98214285Y-126676466D01*
X98214285Y-126676466D02*
X98214285Y-126438371D01*
X98214285Y-126438371D02*
X98166666Y-126247895D01*
X98166666Y-126247895D02*
X98119047Y-126152657D01*
X98119047Y-126152657D02*
X98071428Y-126105038D01*
X98071428Y-126105038D02*
X97976190Y-126057419D01*
X96690476Y-127057419D02*
X97261904Y-127057419D01*
X96976190Y-127057419D02*
X96976190Y-126057419D01*
X96976190Y-126057419D02*
X97071428Y-126200276D01*
X97071428Y-126200276D02*
X97166666Y-126295514D01*
X97166666Y-126295514D02*
X97261904Y-126343133D01*
D11*
%TO.C,S902*%
X129300000Y-52000000D02*
X131700000Y-52000000D01*
X133500000Y-52600000D02*
X133500000Y-53300000D01*
X133500000Y-56800000D02*
X133500000Y-57400000D01*
X127500000Y-57400000D02*
X127500000Y-52600000D01*
X131700000Y-58000000D02*
X129300000Y-58000000D01*
%TO.C,S903*%
X151300000Y-52000000D02*
X153700000Y-52000000D01*
X155500000Y-52600000D02*
X155500000Y-53300000D01*
X155500000Y-56800000D02*
X155500000Y-57400000D01*
X149500000Y-57400000D02*
X149500000Y-52600000D01*
X153700000Y-58000000D02*
X151300000Y-58000000D01*
%TO.C,S910*%
X129300000Y-126750000D02*
X131700000Y-126750000D01*
X133500000Y-127350000D02*
X133500000Y-128050000D01*
X133500000Y-131550000D02*
X133500000Y-132150000D01*
X127500000Y-132150000D02*
X127500000Y-127350000D01*
X131700000Y-132750000D02*
X129300000Y-132750000D01*
%TO.C,S907*%
X80300000Y-98900000D02*
X82700000Y-98900000D01*
X84500000Y-99500000D02*
X84500000Y-100200000D01*
X84500000Y-103700000D02*
X84500000Y-104300000D01*
X78500000Y-104300000D02*
X78500000Y-99500000D01*
X82700000Y-104900000D02*
X80300000Y-104900000D01*
%TO.C,S911*%
X151300000Y-126750000D02*
X153700000Y-126750000D01*
X155500000Y-127350000D02*
X155500000Y-128050000D01*
X155500000Y-131550000D02*
X155500000Y-132150000D01*
X149500000Y-132150000D02*
X149500000Y-127350000D01*
X153700000Y-132750000D02*
X151300000Y-132750000D01*
%TO.C,S909*%
X107300000Y-126750000D02*
X109700000Y-126750000D01*
X111500000Y-127350000D02*
X111500000Y-128050000D01*
X111500000Y-131550000D02*
X111500000Y-132150000D01*
X105500000Y-132150000D02*
X105500000Y-127350000D01*
X109700000Y-132750000D02*
X107300000Y-132750000D01*
%TO.C,S901*%
X107300000Y-52000000D02*
X109700000Y-52000000D01*
X111500000Y-52600000D02*
X111500000Y-53300000D01*
X111500000Y-56800000D02*
X111500000Y-57400000D01*
X105500000Y-57400000D02*
X105500000Y-52600000D01*
X109700000Y-58000000D02*
X107300000Y-58000000D01*
%TO.C,S912*%
X173300000Y-126750000D02*
X175700000Y-126750000D01*
X177500000Y-127350000D02*
X177500000Y-128050000D01*
X177500000Y-131550000D02*
X177500000Y-132150000D01*
X171500000Y-132150000D02*
X171500000Y-127350000D01*
X175700000Y-132750000D02*
X173300000Y-132750000D01*
%TO.C,S908*%
X80300000Y-113100000D02*
X82700000Y-113100000D01*
X84500000Y-113700000D02*
X84500000Y-114400000D01*
X84500000Y-117900000D02*
X84500000Y-118500000D01*
X78500000Y-118500000D02*
X78500000Y-113700000D01*
X82700000Y-119100000D02*
X80300000Y-119100000D01*
%TO.C,S905*%
X80300000Y-70500000D02*
X82700000Y-70500000D01*
X84500000Y-71100000D02*
X84500000Y-71800000D01*
X84500000Y-75300000D02*
X84500000Y-75900000D01*
X78500000Y-75900000D02*
X78500000Y-71100000D01*
X82700000Y-76500000D02*
X80300000Y-76500000D01*
%TO.C,S906*%
X80200000Y-84700000D02*
X82600000Y-84700000D01*
X84400000Y-85300000D02*
X84400000Y-86000000D01*
X84400000Y-89500000D02*
X84400000Y-90100000D01*
X78400000Y-90100000D02*
X78400000Y-85300000D01*
X82600000Y-90700000D02*
X80200000Y-90700000D01*
%TO.C,S904*%
X173300000Y-52000000D02*
X175700000Y-52000000D01*
X177500000Y-52600000D02*
X177500000Y-53300000D01*
X177500000Y-56800000D02*
X177500000Y-57400000D01*
X171500000Y-57400000D02*
X171500000Y-52600000D01*
X175700000Y-58000000D02*
X173300000Y-58000000D01*
D10*
%TO.C,MK501*%
X99600000Y-132000000D02*
X99600000Y-133600000D01*
X102400000Y-132000000D02*
X99600000Y-132000000D01*
D12*
X103700000Y-129000000D02*
G75*
G02*
X94300000Y-129000000I-4700000J0D01*
G01*
X94300000Y-129000000D02*
G75*
G02*
X103700000Y-129000000I4700000J0D01*
G01*
%TD*%
M02*
