M48
; DRILL file {KiCad 9.0.2-9.0.2-0~ubuntu24.04.1} date 2025-06-13T08:12:46-0400
; FORMAT={-:-/ absolute / metric / decimal}
; #@! TF.CreationDate,2025-06-13T08:12:46-04:00
; #@! TF.GenerationSoftware,Kicad,Pcbnew,9.0.2-9.0.2-0~ubuntu24.04.1
; #@! TF.FileFunction,NonPlated,1,4,NPTH
FMAT,2
METRIC
; #@! TA.AperFunction,NonPlated,NPTH,ComponentDrill
T1C0.600
; #@! TA.AperFunction,NonPlated,NPTH,ComponentDrill
T2C0.700
; #@! TA.AperFunction,NonPlated,NPTH,ComponentDrill
T3C0.750
; #@! TA.AperFunction,NonPlated,NPTH,ComponentDrill
T4C1.500
; #@! TA.AperFunction,NonPlated,NPTH,ComponentDrill
T5C1.700
%
G90
G05
T1
X113.0Y-89.0
X113.0Y-91.0
X113.0Y-93.0
X113.0Y-95.0
X115.0Y-89.0
X115.0Y-91.0
X115.0Y-93.0
X115.0Y-95.0
X125.0Y-64.0
X125.0Y-66.0
X125.0Y-120.0
X125.0Y-122.0
X127.0Y-64.0
X127.0Y-66.0
X127.0Y-120.0
X127.0Y-122.0
X129.0Y-64.0
X129.0Y-66.0
X129.0Y-120.0
X129.0Y-122.0
X131.0Y-64.0
X131.0Y-66.0
X131.0Y-120.0
X131.0Y-122.0
X171.0Y-64.0
X171.0Y-66.0
X171.0Y-120.0
X171.0Y-122.0
X173.0Y-64.0
X173.0Y-66.0
X173.0Y-120.0
X173.0Y-122.0
X175.0Y-64.0
X175.0Y-66.0
X175.0Y-120.0
X175.0Y-122.0
X177.0Y-64.0
X177.0Y-66.0
X177.0Y-120.0
X177.0Y-122.0
T2
X86.46Y-135.575
X87.73Y-135.575
X89.0Y-135.575
X90.27Y-135.575
X91.54Y-135.575
T3
X186.825Y-71.6
X189.575Y-71.6
T4
X126.75Y-105.2
X126.75Y-115.0
T5
X177.75Y-112.55
X184.75Y-112.55
M30
