%TF.GenerationSoftware,KiCad,Pcbnew,9.0.2-9.0.2-0~ubuntu24.04.1*%
%TF.CreationDate,2025-06-12T00:39:10-04:00*%
%TF.ProjectId,minstro_combined_board,6d696e73-7472-46f5-9f63-6f6d62696e65,rev?*%
%TF.SameCoordinates,Original*%
%TF.FileFunction,Paste,Top*%
%TF.FilePolarity,Positive*%
%FSLAX46Y46*%
G04 Gerber Fmt 4.6, Leading zero omitted, Abs format (unit mm)*
G04 Created by KiCad (PCBNEW 9.0.2-9.0.2-0~ubuntu24.04.1) date 2025-06-12 00:39:10*
%MOMM*%
%LPD*%
G01*
G04 APERTURE LIST*
G04 Aperture macros list*
%AMRoundRect*
0 Rectangle with rounded corners*
0 $1 Rounding radius*
0 $2 $3 $4 $5 $6 $7 $8 $9 X,Y pos of 4 corners*
0 Add a 4 corners polygon primitive as box body*
4,1,4,$2,$3,$4,$5,$6,$7,$8,$9,$2,$3,0*
0 Add four circle primitives for the rounded corners*
1,1,$1+$1,$2,$3*
1,1,$1+$1,$4,$5*
1,1,$1+$1,$6,$7*
1,1,$1+$1,$8,$9*
0 Add four rect primitives between the rounded corners*
20,1,$1+$1,$2,$3,$4,$5,0*
20,1,$1+$1,$4,$5,$6,$7,0*
20,1,$1+$1,$6,$7,$8,$9,0*
20,1,$1+$1,$8,$9,$2,$3,0*%
%AMOutline5P*
0 Free polygon, 5 corners , with rotation*
0 The origin of the aperture is its center*
0 number of corners: always 5*
0 $1 to $10 corner X, Y*
0 $11 Rotation angle, in degrees counterclockwise*
0 create outline with 5 corners*
4,1,5,$1,$2,$3,$4,$5,$6,$7,$8,$9,$10,$1,$2,$11*%
%AMOutline6P*
0 Free polygon, 6 corners , with rotation*
0 The origin of the aperture is its center*
0 number of corners: always 6*
0 $1 to $12 corner X, Y*
0 $13 Rotation angle, in degrees counterclockwise*
0 create outline with 6 corners*
4,1,6,$1,$2,$3,$4,$5,$6,$7,$8,$9,$10,$11,$12,$1,$2,$13*%
%AMOutline7P*
0 Free polygon, 7 corners , with rotation*
0 The origin of the aperture is its center*
0 number of corners: always 7*
0 $1 to $14 corner X, Y*
0 $15 Rotation angle, in degrees counterclockwise*
0 create outline with 7 corners*
4,1,7,$1,$2,$3,$4,$5,$6,$7,$8,$9,$10,$11,$12,$13,$14,$1,$2,$15*%
%AMOutline8P*
0 Free polygon, 8 corners , with rotation*
0 The origin of the aperture is its center*
0 number of corners: always 8*
0 $1 to $16 corner X, Y*
0 $17 Rotation angle, in degrees counterclockwise*
0 create outline with 8 corners*
4,1,8,$1,$2,$3,$4,$5,$6,$7,$8,$9,$10,$11,$12,$13,$14,$15,$16,$1,$2,$17*%
G04 Aperture macros list end*
%ADD10R,2.000000X2.800000*%
%ADD11R,2.800000X2.800000*%
%ADD12R,2.200000X2.800000*%
%ADD13RoundRect,0.250000X-0.315000X0.315000X-0.315000X-0.315000X0.315000X-0.315000X0.315000X0.315000X0*%
%ADD14RoundRect,0.062500X-0.062500X0.350000X-0.062500X-0.350000X0.062500X-0.350000X0.062500X0.350000X0*%
%ADD15RoundRect,0.062500X-0.350000X0.062500X-0.350000X-0.062500X0.350000X-0.062500X0.350000X0.062500X0*%
%ADD16RoundRect,0.200000X-0.275000X0.200000X-0.275000X-0.200000X0.275000X-0.200000X0.275000X0.200000X0*%
%ADD17R,1.500000X0.820000*%
%ADD18Outline5P,-0.750000X0.410000X0.750000X0.410000X0.750000X-0.410000X-0.545000X-0.410000X-0.750000X-0.205000X0.000000*%
%ADD19C,0.800000*%
%ADD20O,2.800000X1.300000*%
%ADD21O,2.100000X1.300000*%
%ADD22RoundRect,0.200000X0.275000X-0.200000X0.275000X0.200000X-0.275000X0.200000X-0.275000X-0.200000X0*%
%ADD23R,0.750000X2.100000*%
%ADD24RoundRect,0.200000X-0.200000X-0.275000X0.200000X-0.275000X0.200000X0.275000X-0.200000X0.275000X0*%
%ADD25RoundRect,0.250000X0.475000X-0.250000X0.475000X0.250000X-0.475000X0.250000X-0.475000X-0.250000X0*%
%ADD26RoundRect,0.243750X-0.456250X0.243750X-0.456250X-0.243750X0.456250X-0.243750X0.456250X0.243750X0*%
%ADD27RoundRect,0.250000X-0.262500X-0.450000X0.262500X-0.450000X0.262500X0.450000X-0.262500X0.450000X0*%
%ADD28RoundRect,0.150000X0.150000X-0.587500X0.150000X0.587500X-0.150000X0.587500X-0.150000X-0.587500X0*%
%ADD29RoundRect,0.225000X0.225000X0.250000X-0.225000X0.250000X-0.225000X-0.250000X0.225000X-0.250000X0*%
%ADD30RoundRect,0.200000X0.200000X0.275000X-0.200000X0.275000X-0.200000X-0.275000X0.200000X-0.275000X0*%
%ADD31RoundRect,0.075000X0.375000X-0.075000X0.375000X0.075000X-0.375000X0.075000X-0.375000X-0.075000X0*%
%ADD32RoundRect,0.100000X0.300000X-0.100000X0.300000X0.100000X-0.300000X0.100000X-0.300000X-0.100000X0*%
%ADD33RoundRect,0.225000X-0.225000X-0.250000X0.225000X-0.250000X0.225000X0.250000X-0.225000X0.250000X0*%
%ADD34RoundRect,0.250000X0.265000X-0.265000X0.265000X0.265000X-0.265000X0.265000X-0.265000X-0.265000X0*%
%ADD35RoundRect,0.050000X0.050000X-0.350000X0.050000X0.350000X-0.050000X0.350000X-0.050000X-0.350000X0*%
%ADD36RoundRect,0.050000X0.350000X-0.050000X0.350000X0.050000X-0.350000X0.050000X-0.350000X-0.050000X0*%
%ADD37RoundRect,0.250000X-0.650000X0.325000X-0.650000X-0.325000X0.650000X-0.325000X0.650000X0.325000X0*%
%ADD38RoundRect,0.250000X0.325000X1.100000X-0.325000X1.100000X-0.325000X-1.100000X0.325000X-1.100000X0*%
%ADD39RoundRect,0.242500X0.242500X0.242500X-0.242500X0.242500X-0.242500X-0.242500X0.242500X-0.242500X0*%
%ADD40RoundRect,0.062500X0.337500X0.062500X-0.337500X0.062500X-0.337500X-0.062500X0.337500X-0.062500X0*%
%ADD41RoundRect,0.062500X0.062500X0.337500X-0.062500X0.337500X-0.062500X-0.337500X0.062500X-0.337500X0*%
%ADD42RoundRect,0.225000X-0.250000X0.225000X-0.250000X-0.225000X0.250000X-0.225000X0.250000X0.225000X0*%
%ADD43RoundRect,0.162500X0.650000X0.162500X-0.650000X0.162500X-0.650000X-0.162500X0.650000X-0.162500X0*%
%ADD44RoundRect,0.218750X-0.256250X0.218750X-0.256250X-0.218750X0.256250X-0.218750X0.256250X0.218750X0*%
%ADD45RoundRect,0.250000X0.650000X-0.325000X0.650000X0.325000X-0.650000X0.325000X-0.650000X-0.325000X0*%
%ADD46RoundRect,0.250000X0.450000X-0.262500X0.450000X0.262500X-0.450000X0.262500X-0.450000X-0.262500X0*%
%ADD47RoundRect,0.250000X0.325000X0.650000X-0.325000X0.650000X-0.325000X-0.650000X0.325000X-0.650000X0*%
%ADD48RoundRect,0.243750X-0.243750X-0.456250X0.243750X-0.456250X0.243750X0.456250X-0.243750X0.456250X0*%
%ADD49RoundRect,0.225000X0.250000X-0.225000X0.250000X0.225000X-0.250000X0.225000X-0.250000X-0.225000X0*%
%ADD50R,1.000000X1.200000*%
%ADD51RoundRect,0.075000X-0.375000X0.075000X-0.375000X-0.075000X0.375000X-0.075000X0.375000X0.075000X0*%
%ADD52RoundRect,0.100000X-0.300000X0.100000X-0.300000X-0.100000X0.300000X-0.100000X0.300000X0.100000X0*%
%ADD53RoundRect,0.172500X-0.172500X0.172500X-0.172500X-0.172500X0.172500X-0.172500X0.172500X0.172500X0*%
%ADD54RoundRect,0.062500X-0.062500X0.375000X-0.062500X-0.375000X0.062500X-0.375000X0.062500X0.375000X0*%
%ADD55RoundRect,0.062500X-0.375000X0.062500X-0.375000X-0.062500X0.375000X-0.062500X0.375000X0.062500X0*%
%ADD56RoundRect,0.062500X0.237500X0.062500X-0.237500X0.062500X-0.237500X-0.062500X0.237500X-0.062500X0*%
%ADD57RoundRect,0.062500X-0.062500X0.237500X-0.062500X-0.237500X0.062500X-0.237500X0.062500X0.237500X0*%
%ADD58RoundRect,0.062500X-0.062500X-0.850000X0.062500X-0.850000X0.062500X0.850000X-0.062500X0.850000X0*%
%ADD59RoundRect,0.250000X-0.350000X-0.450000X0.350000X-0.450000X0.350000X0.450000X-0.350000X0.450000X0*%
%ADD60R,0.475000X0.200000*%
%ADD61RoundRect,0.250000X-0.475000X0.250000X-0.475000X-0.250000X0.475000X-0.250000X0.475000X0.250000X0*%
%ADD62RoundRect,0.237500X0.237500X-0.250000X0.237500X0.250000X-0.237500X0.250000X-0.237500X-0.250000X0*%
%ADD63RoundRect,0.100000X-0.400000X0.400000X-0.400000X-0.400000X0.400000X-0.400000X0.400000X0.400000X0*%
%ADD64RoundRect,0.105000X-0.995000X0.420000X-0.995000X-0.420000X0.995000X-0.420000X0.995000X0.420000X0*%
%ADD65RoundRect,0.100000X0.200000X0.100000X-0.200000X0.100000X-0.200000X-0.100000X0.200000X-0.100000X0*%
%ADD66RoundRect,0.150000X0.150000X0.475000X-0.150000X0.475000X-0.150000X-0.475000X0.150000X-0.475000X0*%
%ADD67RoundRect,0.150000X-0.600000X0.150000X-0.600000X-0.150000X0.600000X-0.150000X0.600000X0.150000X0*%
%ADD68RoundRect,0.237500X-0.237500X0.250000X-0.237500X-0.250000X0.237500X-0.250000X0.237500X0.250000X0*%
%ADD69RoundRect,0.200000X0.200000X-0.250000X0.200000X0.250000X-0.200000X0.250000X-0.200000X-0.250000X0*%
%ADD70RoundRect,0.250000X0.350000X0.450000X-0.350000X0.450000X-0.350000X-0.450000X0.350000X-0.450000X0*%
%ADD71RoundRect,0.250000X0.250000X0.475000X-0.250000X0.475000X-0.250000X-0.475000X0.250000X-0.475000X0*%
%ADD72RoundRect,0.250000X-0.325000X-1.100000X0.325000X-1.100000X0.325000X1.100000X-0.325000X1.100000X0*%
%ADD73R,3.700000X1.200000*%
G04 APERTURE END LIST*
D10*
%TO.C,J501*%
X188550000Y-108850000D03*
D11*
X176450000Y-108850000D03*
D12*
X183950000Y-116250000D03*
X185750000Y-108850000D03*
D10*
X186750000Y-116250000D03*
%TD*%
D13*
%TO.C,U701*%
X97900000Y-113800000D03*
X96600000Y-113800000D03*
X97900000Y-115100000D03*
X96600000Y-115100000D03*
D14*
X98500000Y-112512500D03*
X98000000Y-112512500D03*
X97500000Y-112512500D03*
X97000000Y-112512500D03*
X96500000Y-112512500D03*
X96000000Y-112512500D03*
D15*
X95312500Y-113200000D03*
X95312500Y-113700000D03*
X95312500Y-114200000D03*
X95312500Y-114700000D03*
X95312500Y-115200000D03*
X95312500Y-115700000D03*
D14*
X96000000Y-116387500D03*
X96500000Y-116387500D03*
X97000000Y-116387500D03*
X97500000Y-116387500D03*
X98000000Y-116387500D03*
X98500000Y-116387500D03*
D15*
X99187500Y-115700000D03*
X99187500Y-115200000D03*
X99187500Y-114700000D03*
X99187500Y-114200000D03*
X99187500Y-113700000D03*
X99187500Y-113200000D03*
%TD*%
D16*
%TO.C,S902*%
X128912500Y-55837742D03*
D17*
X137150000Y-54250000D03*
X137150000Y-55750000D03*
D18*
X131850000Y-55750000D03*
D17*
X131850000Y-54250000D03*
D16*
X128912500Y-54187742D03*
%TD*%
%TO.C,S903*%
X150912500Y-55837742D03*
D17*
X159150000Y-54250000D03*
X159150000Y-55750000D03*
D18*
X153850000Y-55750000D03*
D17*
X153850000Y-54250000D03*
D16*
X150912500Y-54187742D03*
%TD*%
%TO.C,S910*%
X128912500Y-130587742D03*
D17*
X137150000Y-129000000D03*
X137150000Y-130500000D03*
D18*
X131850000Y-130500000D03*
D17*
X131850000Y-129000000D03*
D16*
X128912500Y-128937742D03*
%TD*%
%TO.C,S907*%
X79912500Y-102737742D03*
D17*
X88150000Y-101150000D03*
X88150000Y-102650000D03*
D18*
X82850000Y-102650000D03*
D17*
X82850000Y-101150000D03*
D16*
X79912500Y-101087742D03*
%TD*%
%TO.C,S911*%
X150912500Y-130587742D03*
D17*
X159150000Y-129000000D03*
X159150000Y-130500000D03*
D18*
X153850000Y-130500000D03*
D17*
X153850000Y-129000000D03*
D16*
X150912500Y-128937742D03*
%TD*%
%TO.C,S909*%
X106912500Y-130587742D03*
D17*
X115150000Y-129000000D03*
X115150000Y-130500000D03*
D18*
X109850000Y-130500000D03*
D17*
X109850000Y-129000000D03*
D16*
X106912500Y-128937742D03*
%TD*%
%TO.C,S901*%
X106912500Y-55837742D03*
D17*
X115150000Y-54250000D03*
X115150000Y-55750000D03*
D18*
X109850000Y-55750000D03*
D17*
X109850000Y-54250000D03*
D16*
X106912500Y-54187742D03*
%TD*%
%TO.C,S912*%
X172912500Y-130587742D03*
D17*
X181150000Y-129000000D03*
X181150000Y-130500000D03*
D18*
X175850000Y-130500000D03*
D17*
X175850000Y-129000000D03*
D16*
X172912500Y-128937742D03*
%TD*%
%TO.C,S908*%
X79912500Y-116937742D03*
D17*
X88150000Y-115350000D03*
X88150000Y-116850000D03*
D18*
X82850000Y-116850000D03*
D17*
X82850000Y-115350000D03*
D16*
X79912500Y-115287742D03*
%TD*%
%TO.C,S905*%
X79912500Y-74337742D03*
D17*
X88150000Y-72750000D03*
X88150000Y-74250000D03*
D18*
X82850000Y-74250000D03*
D17*
X82850000Y-72750000D03*
D16*
X79912500Y-72687742D03*
%TD*%
%TO.C,S906*%
X79812500Y-88537742D03*
D17*
X88050000Y-86950000D03*
X88050000Y-88450000D03*
D18*
X82750000Y-88450000D03*
D17*
X82750000Y-86950000D03*
D16*
X79812500Y-86887742D03*
%TD*%
%TO.C,S904*%
X172912500Y-55837742D03*
D17*
X181150000Y-54250000D03*
X181150000Y-55750000D03*
D18*
X175850000Y-55750000D03*
D17*
X175850000Y-54250000D03*
D16*
X172912500Y-54187742D03*
%TD*%
D19*
%TO.C,J403*%
X183890000Y-102650000D03*
X183890000Y-101800000D03*
X183890000Y-100950000D03*
X183890000Y-100100000D03*
X183890000Y-99250000D03*
X183890000Y-98400000D03*
X183890000Y-97550000D03*
X183890000Y-96700000D03*
X185240000Y-96700000D03*
X185240000Y-97550000D03*
X185240000Y-98400000D03*
X185240000Y-99250000D03*
X185240000Y-100100000D03*
X185240000Y-100950000D03*
X185240000Y-101800000D03*
X185240000Y-102650000D03*
D20*
X184870000Y-104000000D03*
D21*
X188250000Y-104000000D03*
D20*
X184870000Y-95350000D03*
D21*
X188250000Y-95350000D03*
%TD*%
D22*
%TO.C,R505*%
X162000000Y-123675000D03*
X162000000Y-125325000D03*
%TD*%
D23*
%TO.C,J702*%
X87210000Y-128750000D03*
X87210000Y-132350000D03*
X88480000Y-128750000D03*
X88480000Y-132350000D03*
X89750000Y-128750000D03*
X89750000Y-132350000D03*
X91020000Y-128750000D03*
X91020000Y-132350000D03*
X92290000Y-128750000D03*
X92290000Y-132350000D03*
%TD*%
D24*
%TO.C,R401*%
X154475000Y-106100000D03*
X156125000Y-106100000D03*
%TD*%
D25*
%TO.C,C701*%
X101900000Y-110750000D03*
X101900000Y-108850000D03*
%TD*%
D26*
%TO.C,D201*%
X122045000Y-97062500D03*
X122045000Y-98937500D03*
%TD*%
D27*
%TO.C,FB401*%
X146287500Y-105100000D03*
X148112500Y-105100000D03*
%TD*%
D28*
%TO.C,Q701*%
X102150000Y-102637500D03*
X104050000Y-102637500D03*
X103100000Y-100762500D03*
%TD*%
D29*
%TO.C,C406*%
X154375000Y-103800000D03*
X152825000Y-103800000D03*
%TD*%
D30*
%TO.C,R407*%
X170325000Y-96750000D03*
X168675000Y-96750000D03*
%TD*%
D16*
%TO.C,R201*%
X126500000Y-86675000D03*
X126500000Y-88325000D03*
%TD*%
D25*
%TO.C,C208*%
X130000000Y-88950000D03*
X130000000Y-87050000D03*
%TD*%
D22*
%TO.C,R404*%
X182675000Y-91775000D03*
X182675000Y-90125000D03*
%TD*%
D31*
%TO.C,J601*%
X176875000Y-73750000D03*
X176875000Y-73250000D03*
X176875000Y-72750000D03*
X176875000Y-72250000D03*
X176875000Y-71750000D03*
X176875000Y-71250000D03*
D32*
X179225000Y-74750000D03*
X179225000Y-70250000D03*
%TD*%
D33*
%TO.C,C402*%
X156725000Y-104500000D03*
X158275000Y-104500000D03*
%TD*%
D30*
%TO.C,R406*%
X166825000Y-90750000D03*
X165175000Y-90750000D03*
%TD*%
D34*
%TO.C,U401*%
X158670000Y-100080000D03*
X160000000Y-100080000D03*
X161330000Y-100080000D03*
X158670000Y-98750000D03*
X160000000Y-98750000D03*
X161330000Y-98750000D03*
X158670000Y-97420000D03*
X160000000Y-97420000D03*
X161330000Y-97420000D03*
D35*
X157400000Y-102200000D03*
X157800000Y-102200000D03*
X158200000Y-102200000D03*
X158600000Y-102200000D03*
X159000000Y-102200000D03*
X159400000Y-102200000D03*
X159800000Y-102200000D03*
X160200000Y-102200000D03*
X160600000Y-102200000D03*
X161000000Y-102200000D03*
X161400000Y-102200000D03*
X161800000Y-102200000D03*
X162200000Y-102200000D03*
X162600000Y-102200000D03*
D36*
X163450000Y-101350000D03*
X163450000Y-100950000D03*
X163450000Y-100550000D03*
X163450000Y-100150000D03*
X163450000Y-99750000D03*
X163450000Y-99350000D03*
X163450000Y-98950000D03*
X163450000Y-98550000D03*
X163450000Y-98150000D03*
X163450000Y-97750000D03*
X163450000Y-97350000D03*
X163450000Y-96950000D03*
X163450000Y-96550000D03*
X163450000Y-96150000D03*
D35*
X162600000Y-95300000D03*
X162200000Y-95300000D03*
X161800000Y-95300000D03*
X161400000Y-95300000D03*
X161000000Y-95300000D03*
X160600000Y-95300000D03*
X160200000Y-95300000D03*
X159800000Y-95300000D03*
X159400000Y-95300000D03*
X159000000Y-95300000D03*
X158600000Y-95300000D03*
X158200000Y-95300000D03*
X157800000Y-95300000D03*
X157400000Y-95300000D03*
D36*
X156550000Y-96150000D03*
X156550000Y-96550000D03*
X156550000Y-96950000D03*
X156550000Y-97350000D03*
X156550000Y-97750000D03*
X156550000Y-98150000D03*
X156550000Y-98550000D03*
X156550000Y-98950000D03*
X156550000Y-99350000D03*
X156550000Y-99750000D03*
X156550000Y-100150000D03*
X156550000Y-100550000D03*
X156550000Y-100950000D03*
X156550000Y-101350000D03*
%TD*%
D16*
%TO.C,R204*%
X118500000Y-97000000D03*
X118500000Y-98650000D03*
%TD*%
D30*
%TO.C,R307*%
X137575000Y-84000000D03*
X135925000Y-84000000D03*
%TD*%
D37*
%TO.C,C201*%
X132500000Y-87000000D03*
X132500000Y-89950000D03*
%TD*%
D38*
%TO.C,C506*%
X177475000Y-117000000D03*
X174525000Y-117000000D03*
%TD*%
D22*
%TO.C,R202*%
X128000000Y-88325000D03*
X128000000Y-86675000D03*
%TD*%
D24*
%TO.C,R804*%
X94875000Y-102100000D03*
X96525000Y-102100000D03*
%TD*%
D33*
%TO.C,C404*%
X167625000Y-101400000D03*
X169175000Y-101400000D03*
%TD*%
D24*
%TO.C,R801*%
X94875000Y-100600000D03*
X96525000Y-100600000D03*
%TD*%
%TO.C,R802*%
X94875000Y-103600000D03*
X96525000Y-103600000D03*
%TD*%
D16*
%TO.C,R203*%
X122500000Y-86850000D03*
X122500000Y-88500000D03*
%TD*%
D39*
%TO.C,U501*%
X162350000Y-110650000D03*
X162350000Y-109450000D03*
X161150000Y-110650000D03*
X161150000Y-109450000D03*
D40*
X164200000Y-111800000D03*
X164200000Y-111300000D03*
X164200000Y-110800000D03*
X164200000Y-110300000D03*
X164200000Y-109800000D03*
X164200000Y-109300000D03*
X164200000Y-108800000D03*
X164200000Y-108300000D03*
D41*
X163500000Y-107600000D03*
X163000000Y-107600000D03*
X162500000Y-107600000D03*
X162000000Y-107600000D03*
X161500000Y-107600000D03*
X161000000Y-107600000D03*
X160500000Y-107600000D03*
X160000000Y-107600000D03*
D40*
X159300000Y-108300000D03*
X159300000Y-108800000D03*
X159300000Y-109300000D03*
X159300000Y-109800000D03*
X159300000Y-110300000D03*
X159300000Y-110800000D03*
X159300000Y-111300000D03*
X159300000Y-111800000D03*
D41*
X160000000Y-112500000D03*
X160500000Y-112500000D03*
X161000000Y-112500000D03*
X161500000Y-112500000D03*
X162000000Y-112500000D03*
X162500000Y-112500000D03*
X163000000Y-112500000D03*
X163500000Y-112500000D03*
%TD*%
D42*
%TO.C,C702*%
X101900000Y-113025000D03*
X101900000Y-114575000D03*
%TD*%
D33*
%TO.C,C408*%
X168725000Y-95250000D03*
X170275000Y-95250000D03*
%TD*%
D22*
%TO.C,R504*%
X166750000Y-117375000D03*
X166750000Y-115725000D03*
%TD*%
D30*
%TO.C,R411*%
X175825000Y-100000000D03*
X174175000Y-100000000D03*
%TD*%
D43*
%TO.C,U402*%
X176000000Y-93310000D03*
X176000000Y-92040000D03*
X176000000Y-90770000D03*
X176000000Y-89500000D03*
X168825000Y-89500000D03*
X168825000Y-90770000D03*
X168825000Y-92040000D03*
X168825000Y-93310000D03*
%TD*%
D44*
%TO.C,L401*%
X148000000Y-109712500D03*
X148000000Y-111287500D03*
%TD*%
D30*
%TO.C,R303*%
X132325000Y-80250000D03*
X130675000Y-80250000D03*
%TD*%
D45*
%TO.C,C301*%
X127000000Y-80975000D03*
X127000000Y-78025000D03*
%TD*%
D16*
%TO.C,R415*%
X141250000Y-108925000D03*
X141250000Y-110575000D03*
%TD*%
%TO.C,R408*%
X135750000Y-105425000D03*
X135750000Y-107075000D03*
%TD*%
D46*
%TO.C,R419*%
X142000000Y-91000000D03*
X142000000Y-89175000D03*
%TD*%
D30*
%TO.C,R304*%
X132325000Y-81750000D03*
X130675000Y-81750000D03*
%TD*%
D47*
%TO.C,C302*%
X119475000Y-74500000D03*
X116525000Y-74500000D03*
%TD*%
D25*
%TO.C,C401*%
X140000000Y-90950000D03*
X140000000Y-89050000D03*
%TD*%
D28*
%TO.C,Q601*%
X147550000Y-85187500D03*
X149450000Y-85187500D03*
X148500000Y-83312500D03*
%TD*%
D48*
%TO.C,D401*%
X151162500Y-107800000D03*
X153037500Y-107800000D03*
%TD*%
D33*
%TO.C,C413*%
X147725000Y-113000000D03*
X149275000Y-113000000D03*
%TD*%
D29*
%TO.C,C405*%
X154375000Y-102300000D03*
X152825000Y-102300000D03*
%TD*%
D30*
%TO.C,R412*%
X175825000Y-98250000D03*
X174175000Y-98250000D03*
%TD*%
D49*
%TO.C,C410*%
X177500000Y-98275000D03*
X177500000Y-96725000D03*
%TD*%
D45*
%TO.C,C204*%
X135000000Y-93975000D03*
X135000000Y-91025000D03*
%TD*%
D16*
%TO.C,R501*%
X173750000Y-107225000D03*
X173750000Y-108875000D03*
%TD*%
D50*
%TO.C,SW401*%
X186900000Y-92500000D03*
X186800000Y-86900000D03*
X188500000Y-92500000D03*
X188500000Y-86900000D03*
%TD*%
D51*
%TO.C,J602*%
X160125000Y-69250000D03*
X160125000Y-69750000D03*
X160125000Y-70250000D03*
X160125000Y-70750000D03*
X160125000Y-71250000D03*
X160125000Y-71750000D03*
X160125000Y-72250000D03*
X160125000Y-72750000D03*
X160125000Y-73250000D03*
X160125000Y-73750000D03*
X160125000Y-74250000D03*
X160125000Y-74750000D03*
X160125000Y-75250000D03*
X160125000Y-75750000D03*
X160125000Y-76250000D03*
X160125000Y-76750000D03*
X160125000Y-77250000D03*
X160125000Y-77750000D03*
X160125000Y-78250000D03*
X160125000Y-78750000D03*
X160125000Y-79250000D03*
X160125000Y-79750000D03*
X160125000Y-80250000D03*
X160125000Y-80750000D03*
X160125000Y-81250000D03*
X160125000Y-81750000D03*
X160125000Y-82250000D03*
X160125000Y-82750000D03*
X160125000Y-83250000D03*
X160125000Y-83750000D03*
X160125000Y-84250000D03*
X160125000Y-84750000D03*
X160125000Y-85250000D03*
X160125000Y-85750000D03*
X160125000Y-86250000D03*
X160125000Y-86750000D03*
X160125000Y-87250000D03*
X160125000Y-87750000D03*
X160125000Y-88250000D03*
X160125000Y-88750000D03*
D52*
X157775000Y-68250000D03*
X157775000Y-89750000D03*
%TD*%
D45*
%TO.C,C205*%
X127000000Y-98875000D03*
X127000000Y-95925000D03*
%TD*%
D16*
%TO.C,R502*%
X181500000Y-116175000D03*
X181500000Y-117825000D03*
%TD*%
D53*
%TO.C,U301*%
X121050000Y-79100000D03*
X120250000Y-79100000D03*
X121050000Y-79900000D03*
X120250000Y-79900000D03*
D54*
X121400000Y-78062500D03*
X120900000Y-78062500D03*
X120400000Y-78062500D03*
X119900000Y-78062500D03*
D55*
X119212500Y-78750000D03*
X119212500Y-79250000D03*
X119212500Y-79750000D03*
X119212500Y-80250000D03*
D54*
X119900000Y-80937500D03*
X120400000Y-80937500D03*
X120900000Y-80937500D03*
X121400000Y-80937500D03*
D55*
X122087500Y-80250000D03*
X122087500Y-79750000D03*
X122087500Y-79250000D03*
X122087500Y-78750000D03*
%TD*%
D45*
%TO.C,C203*%
X127000000Y-93975000D03*
X127000000Y-91025000D03*
%TD*%
D30*
%TO.C,R302*%
X127825000Y-73000000D03*
X126175000Y-73000000D03*
%TD*%
D56*
%TO.C,U201*%
X131900000Y-94125000D03*
X131900000Y-93475000D03*
X131900000Y-92875000D03*
X131900000Y-92350000D03*
D57*
X131500000Y-91600000D03*
X131000000Y-91600000D03*
X130500000Y-91600000D03*
D56*
X130100000Y-92350000D03*
X130100000Y-92875000D03*
X130100000Y-93475000D03*
X130100000Y-94125000D03*
D58*
X131000000Y-93788000D03*
%TD*%
D42*
%TO.C,C510*%
X169750000Y-111275000D03*
X169750000Y-112825000D03*
%TD*%
D16*
%TO.C,R503*%
X171250000Y-111225000D03*
X171250000Y-112875000D03*
%TD*%
D30*
%TO.C,R301*%
X132325000Y-78750000D03*
X130675000Y-78750000D03*
%TD*%
D24*
%TO.C,R803*%
X94875000Y-99100000D03*
X96525000Y-99100000D03*
%TD*%
%TO.C,R402*%
X154475000Y-108000000D03*
X156125000Y-108000000D03*
%TD*%
D22*
%TO.C,R409*%
X139500000Y-110575000D03*
X139500000Y-108925000D03*
%TD*%
D42*
%TO.C,C703*%
X103400000Y-113025000D03*
X103400000Y-114575000D03*
%TD*%
D27*
%TO.C,FB501*%
X156337500Y-117250000D03*
X158162500Y-117250000D03*
%TD*%
D59*
%TO.C,R702*%
X102100000Y-98700000D03*
X104100000Y-98700000D03*
%TD*%
D29*
%TO.C,C507*%
X169275000Y-124000000D03*
X167725000Y-124000000D03*
%TD*%
D25*
%TO.C,C502*%
X166000000Y-106200000D03*
X166000000Y-104300000D03*
%TD*%
D60*
%TO.C,U403*%
X180525000Y-100500000D03*
X180525000Y-100000000D03*
X180525000Y-99500000D03*
X180525000Y-99000000D03*
X180525000Y-98500000D03*
X179750000Y-98500000D03*
X179750000Y-99000000D03*
X179750000Y-99500000D03*
X179750000Y-100000000D03*
X179750000Y-100500000D03*
%TD*%
D33*
%TO.C,C411*%
X133475000Y-111250000D03*
X135025000Y-111250000D03*
%TD*%
D30*
%TO.C,R306*%
X137575000Y-85500000D03*
X135925000Y-85500000D03*
%TD*%
D45*
%TO.C,C202*%
X123000000Y-93975000D03*
X123000000Y-91025000D03*
%TD*%
D24*
%TO.C,R414*%
X183925000Y-105750000D03*
X185575000Y-105750000D03*
%TD*%
D61*
%TO.C,C504*%
X161750000Y-115600000D03*
X161750000Y-117500000D03*
%TD*%
D33*
%TO.C,C415*%
X149750000Y-97700000D03*
X151300000Y-97700000D03*
%TD*%
D61*
%TO.C,C511*%
X164750000Y-115600000D03*
X164750000Y-117500000D03*
%TD*%
D62*
%TO.C,R602*%
X147750000Y-89162500D03*
X147750000Y-87337500D03*
%TD*%
D30*
%TO.C,R417*%
X135075000Y-109750000D03*
X133425000Y-109750000D03*
%TD*%
D63*
%TO.C,J405*%
X144250000Y-115250000D03*
D64*
X142750000Y-116725000D03*
D63*
X141250000Y-115250000D03*
D64*
X142750000Y-113775000D03*
%TD*%
D25*
%TO.C,C503*%
X162000000Y-106000000D03*
X162000000Y-104100000D03*
%TD*%
D29*
%TO.C,C412*%
X148050000Y-108000000D03*
X146500000Y-108000000D03*
%TD*%
D30*
%TO.C,R305*%
X132325000Y-77250000D03*
X130675000Y-77250000D03*
%TD*%
D65*
%TO.C,AE401*%
X147500000Y-118175000D03*
X147500000Y-119025000D03*
D66*
X146100000Y-118600000D03*
%TD*%
D61*
%TO.C,C207*%
X124500000Y-86550000D03*
X124500000Y-88450000D03*
%TD*%
D46*
%TO.C,R420*%
X144000000Y-91000000D03*
X144000000Y-89175000D03*
%TD*%
D42*
%TO.C,C409*%
X177500000Y-99975000D03*
X177500000Y-101525000D03*
%TD*%
D67*
%TO.C,J404*%
X129750000Y-113150000D03*
X129750000Y-112050000D03*
X129750000Y-110950000D03*
X129750000Y-109850000D03*
X129750000Y-108750000D03*
X129750000Y-107650000D03*
X129750000Y-106550000D03*
X129750000Y-105450000D03*
X129750000Y-114250000D03*
X129750000Y-115350000D03*
X122000000Y-117350000D03*
X122000000Y-102850000D03*
%TD*%
D68*
%TO.C,R601*%
X148500000Y-79587500D03*
X148500000Y-81412500D03*
%TD*%
D45*
%TO.C,C303*%
X119000000Y-93975000D03*
X119000000Y-91025000D03*
%TD*%
%TO.C,C206*%
X135000000Y-98975000D03*
X135000000Y-96025000D03*
%TD*%
D30*
%TO.C,R416*%
X184400000Y-93500000D03*
X182750000Y-93500000D03*
%TD*%
D16*
%TO.C,R410*%
X134000000Y-105425000D03*
X134000000Y-107075000D03*
%TD*%
D69*
%TO.C,Y401*%
X151625000Y-100650000D03*
X151625000Y-99250000D03*
X150525000Y-99250000D03*
X150525000Y-100650000D03*
%TD*%
D49*
%TO.C,C403*%
X154600000Y-95975000D03*
X154600000Y-94425000D03*
%TD*%
D70*
%TO.C,R701*%
X104100000Y-104700000D03*
X102100000Y-104700000D03*
%TD*%
D71*
%TO.C,C505*%
X158200000Y-115250000D03*
X156300000Y-115250000D03*
%TD*%
D42*
%TO.C,C509*%
X168250000Y-115775000D03*
X168250000Y-117325000D03*
%TD*%
D16*
%TO.C,R413*%
X143000000Y-108925000D03*
X143000000Y-110575000D03*
%TD*%
D29*
%TO.C,C414*%
X151300000Y-102250000D03*
X149750000Y-102250000D03*
%TD*%
D72*
%TO.C,C501*%
X168300000Y-108550000D03*
X171250000Y-108550000D03*
%TD*%
D30*
%TO.C,R418*%
X154675000Y-100750000D03*
X153025000Y-100750000D03*
%TD*%
D31*
%TO.C,J603*%
X168875000Y-86250000D03*
X168875000Y-85750000D03*
X168875000Y-85250000D03*
X168875000Y-84750000D03*
X168875000Y-84250000D03*
X168875000Y-83750000D03*
X168875000Y-83250000D03*
X168875000Y-82750000D03*
X168875000Y-82250000D03*
X168875000Y-81750000D03*
X168875000Y-81250000D03*
X168875000Y-80750000D03*
D32*
X171225000Y-87250000D03*
X171225000Y-79750000D03*
%TD*%
D25*
%TO.C,C407*%
X184675000Y-91725000D03*
X184675000Y-89825000D03*
%TD*%
D73*
%TO.C,L201*%
X131000000Y-96100000D03*
X131000000Y-98900000D03*
%TD*%
D42*
%TO.C,C508*%
X171900000Y-116325000D03*
X171900000Y-117875000D03*
%TD*%
M02*
