%TF.GenerationSoftware,KiCad,Pcbnew,9.0.2-9.0.2-0~ubuntu24.04.1*%
%TF.CreationDate,2025-06-13T08:12:44-04:00*%
%TF.ProjectId,minstro_combined_board,6d696e73-7472-46f5-9f63-6f6d62696e65,rev?*%
%TF.SameCoordinates,Original*%
%TF.FileFunction,Copper,L1,Top*%
%TF.FilePolarity,Positive*%
%FSLAX46Y46*%
G04 Gerber Fmt 4.6, Leading zero omitted, Abs format (unit mm)*
G04 Created by KiCad (PCBNEW 9.0.2-9.0.2-0~ubuntu24.04.1) date 2025-06-13 08:12:44*
%MOMM*%
%LPD*%
G01*
G04 APERTURE LIST*
G04 Aperture macros list*
%AMRoundRect*
0 Rectangle with rounded corners*
0 $1 Rounding radius*
0 $2 $3 $4 $5 $6 $7 $8 $9 X,Y pos of 4 corners*
0 Add a 4 corners polygon primitive as box body*
4,1,4,$2,$3,$4,$5,$6,$7,$8,$9,$2,$3,0*
0 Add four circle primitives for the rounded corners*
1,1,$1+$1,$2,$3*
1,1,$1+$1,$4,$5*
1,1,$1+$1,$6,$7*
1,1,$1+$1,$8,$9*
0 Add four rect primitives between the rounded corners*
20,1,$1+$1,$2,$3,$4,$5,0*
20,1,$1+$1,$4,$5,$6,$7,0*
20,1,$1+$1,$6,$7,$8,$9,0*
20,1,$1+$1,$8,$9,$2,$3,0*%
%AMOutline5P*
0 Free polygon, 5 corners , with rotation*
0 The origin of the aperture is its center*
0 number of corners: always 5*
0 $1 to $10 corner X, Y*
0 $11 Rotation angle, in degrees counterclockwise*
0 create outline with 5 corners*
4,1,5,$1,$2,$3,$4,$5,$6,$7,$8,$9,$10,$1,$2,$11*%
%AMOutline6P*
0 Free polygon, 6 corners , with rotation*
0 The origin of the aperture is its center*
0 number of corners: always 6*
0 $1 to $12 corner X, Y*
0 $13 Rotation angle, in degrees counterclockwise*
0 create outline with 6 corners*
4,1,6,$1,$2,$3,$4,$5,$6,$7,$8,$9,$10,$11,$12,$1,$2,$13*%
%AMOutline7P*
0 Free polygon, 7 corners , with rotation*
0 The origin of the aperture is its center*
0 number of corners: always 7*
0 $1 to $14 corner X, Y*
0 $15 Rotation angle, in degrees counterclockwise*
0 create outline with 7 corners*
4,1,7,$1,$2,$3,$4,$5,$6,$7,$8,$9,$10,$11,$12,$13,$14,$1,$2,$15*%
%AMOutline8P*
0 Free polygon, 8 corners , with rotation*
0 The origin of the aperture is its center*
0 number of corners: always 8*
0 $1 to $16 corner X, Y*
0 $17 Rotation angle, in degrees counterclockwise*
0 create outline with 8 corners*
4,1,8,$1,$2,$3,$4,$5,$6,$7,$8,$9,$10,$11,$12,$13,$14,$15,$16,$1,$2,$17*%
G04 Aperture macros list end*
%TA.AperFunction,EtchedComponent*%
%ADD10C,0.200000*%
%TD*%
%TA.AperFunction,HeatsinkPad*%
%ADD11C,1.200000*%
%TD*%
%TA.AperFunction,SMDPad,CuDef*%
%ADD12RoundRect,0.200000X-0.275000X0.200000X-0.275000X-0.200000X0.275000X-0.200000X0.275000X0.200000X0*%
%TD*%
%TA.AperFunction,SMDPad,CuDef*%
%ADD13RoundRect,0.250000X0.475000X-0.250000X0.475000X0.250000X-0.475000X0.250000X-0.475000X-0.250000X0*%
%TD*%
%TA.AperFunction,SMDPad,CuDef*%
%ADD14RoundRect,0.243750X-0.456250X0.243750X-0.456250X-0.243750X0.456250X-0.243750X0.456250X0.243750X0*%
%TD*%
%TA.AperFunction,SMDPad,CuDef*%
%ADD15RoundRect,0.250000X0.450000X-0.262500X0.450000X0.262500X-0.450000X0.262500X-0.450000X-0.262500X0*%
%TD*%
%TA.AperFunction,ComponentPad*%
%ADD16C,2.000000*%
%TD*%
%TA.AperFunction,SMDPad,CuDef*%
%ADD17R,1.500000X0.820000*%
%TD*%
%TA.AperFunction,SMDPad,CuDef*%
%ADD18Outline5P,-0.750000X0.410000X0.750000X0.410000X0.750000X-0.410000X-0.545000X-0.410000X-0.750000X-0.205000X0.000000*%
%TD*%
%TA.AperFunction,SMDPad,CuDef*%
%ADD19RoundRect,0.150000X0.150000X-0.587500X0.150000X0.587500X-0.150000X0.587500X-0.150000X-0.587500X0*%
%TD*%
%TA.AperFunction,SMDPad,CuDef*%
%ADD20RoundRect,0.225000X-0.250000X0.225000X-0.250000X-0.225000X0.250000X-0.225000X0.250000X0.225000X0*%
%TD*%
%TA.AperFunction,ComponentPad*%
%ADD21RoundRect,0.250000X0.350000X0.625000X-0.350000X0.625000X-0.350000X-0.625000X0.350000X-0.625000X0*%
%TD*%
%TA.AperFunction,ComponentPad*%
%ADD22O,1.200000X1.750000*%
%TD*%
%TA.AperFunction,SMDPad,CuDef*%
%ADD23R,1.500000X1.000000*%
%TD*%
%TA.AperFunction,SMDPad,CuDef*%
%ADD24C,1.500000*%
%TD*%
%TA.AperFunction,SMDPad,CuDef*%
%ADD25RoundRect,0.200000X0.200000X0.275000X-0.200000X0.275000X-0.200000X-0.275000X0.200000X-0.275000X0*%
%TD*%
%TA.AperFunction,ComponentPad*%
%ADD26O,2.000000X2.500000*%
%TD*%
%TA.AperFunction,ComponentPad*%
%ADD27O,1.500000X1.500000*%
%TD*%
%TA.AperFunction,ComponentPad*%
%ADD28C,6.400000*%
%TD*%
%TA.AperFunction,SMDPad,CuDef*%
%ADD29RoundRect,0.200000X0.275000X-0.200000X0.275000X0.200000X-0.275000X0.200000X-0.275000X-0.200000X0*%
%TD*%
%TA.AperFunction,SMDPad,CuDef*%
%ADD30RoundRect,0.075000X0.375000X-0.075000X0.375000X0.075000X-0.375000X0.075000X-0.375000X-0.075000X0*%
%TD*%
%TA.AperFunction,SMDPad,CuDef*%
%ADD31RoundRect,0.100000X0.300000X-0.100000X0.300000X0.100000X-0.300000X0.100000X-0.300000X-0.100000X0*%
%TD*%
%TA.AperFunction,SMDPad,CuDef*%
%ADD32RoundRect,0.225000X0.250000X-0.225000X0.250000X0.225000X-0.250000X0.225000X-0.250000X-0.225000X0*%
%TD*%
%TA.AperFunction,SMDPad,CuDef*%
%ADD33RoundRect,0.050000X0.350000X0.050000X-0.350000X0.050000X-0.350000X-0.050000X0.350000X-0.050000X0*%
%TD*%
%TA.AperFunction,SMDPad,CuDef*%
%ADD34RoundRect,0.050000X0.050000X0.350000X-0.050000X0.350000X-0.050000X-0.350000X0.050000X-0.350000X0*%
%TD*%
%TA.AperFunction,HeatsinkPad*%
%ADD35C,0.500000*%
%TD*%
%TA.AperFunction,HeatsinkPad*%
%ADD36R,4.000000X4.000000*%
%TD*%
%TA.AperFunction,SMDPad,CuDef*%
%ADD37RoundRect,0.250000X-0.650000X0.325000X-0.650000X-0.325000X0.650000X-0.325000X0.650000X0.325000X0*%
%TD*%
%TA.AperFunction,SMDPad,CuDef*%
%ADD38RoundRect,0.250000X0.325000X1.100000X-0.325000X1.100000X-0.325000X-1.100000X0.325000X-1.100000X0*%
%TD*%
%TA.AperFunction,SMDPad,CuDef*%
%ADD39O,0.800000X1.500000*%
%TD*%
%TA.AperFunction,SMDPad,CuDef*%
%ADD40RoundRect,0.200000X-0.200000X-0.275000X0.200000X-0.275000X0.200000X0.275000X-0.200000X0.275000X0*%
%TD*%
%TA.AperFunction,SMDPad,CuDef*%
%ADD41RoundRect,0.062500X0.337500X0.062500X-0.337500X0.062500X-0.337500X-0.062500X0.337500X-0.062500X0*%
%TD*%
%TA.AperFunction,SMDPad,CuDef*%
%ADD42RoundRect,0.062500X0.062500X0.337500X-0.062500X0.337500X-0.062500X-0.337500X0.062500X-0.337500X0*%
%TD*%
%TA.AperFunction,HeatsinkPad*%
%ADD43R,2.700000X2.700000*%
%TD*%
%TA.AperFunction,SMDPad,CuDef*%
%ADD44RoundRect,0.225000X-0.225000X-0.250000X0.225000X-0.250000X0.225000X0.250000X-0.225000X0.250000X0*%
%TD*%
%TA.AperFunction,SMDPad,CuDef*%
%ADD45RoundRect,0.162500X0.650000X0.162500X-0.650000X0.162500X-0.650000X-0.162500X0.650000X-0.162500X0*%
%TD*%
%TA.AperFunction,SMDPad,CuDef*%
%ADD46RoundRect,0.218750X-0.256250X0.218750X-0.256250X-0.218750X0.256250X-0.218750X0.256250X0.218750X0*%
%TD*%
%TA.AperFunction,SMDPad,CuDef*%
%ADD47RoundRect,0.250000X0.650000X-0.325000X0.650000X0.325000X-0.650000X0.325000X-0.650000X-0.325000X0*%
%TD*%
%TA.AperFunction,SMDPad,CuDef*%
%ADD48RoundRect,0.062500X-0.062500X0.350000X-0.062500X-0.350000X0.062500X-0.350000X0.062500X0.350000X0*%
%TD*%
%TA.AperFunction,SMDPad,CuDef*%
%ADD49RoundRect,0.062500X-0.350000X0.062500X-0.350000X-0.062500X0.350000X-0.062500X0.350000X0.062500X0*%
%TD*%
%TA.AperFunction,HeatsinkPad*%
%ADD50R,2.600000X2.600000*%
%TD*%
%TA.AperFunction,ComponentPad*%
%ADD51RoundRect,0.250000X-0.615000X0.265000X-0.615000X-0.265000X0.615000X-0.265000X0.615000X0.265000X0*%
%TD*%
%TA.AperFunction,ComponentPad*%
%ADD52O,1.730000X1.030000*%
%TD*%
%TA.AperFunction,SMDPad,CuDef*%
%ADD53RoundRect,0.250000X0.262500X0.450000X-0.262500X0.450000X-0.262500X-0.450000X0.262500X-0.450000X0*%
%TD*%
%TA.AperFunction,SMDPad,CuDef*%
%ADD54RoundRect,0.250000X0.325000X0.650000X-0.325000X0.650000X-0.325000X-0.650000X0.325000X-0.650000X0*%
%TD*%
%TA.AperFunction,SMDPad,CuDef*%
%ADD55RoundRect,0.243750X0.456250X-0.243750X0.456250X0.243750X-0.456250X0.243750X-0.456250X-0.243750X0*%
%TD*%
%TA.AperFunction,SMDPad,CuDef*%
%ADD56R,1.000000X1.200000*%
%TD*%
%TA.AperFunction,SMDPad,CuDef*%
%ADD57RoundRect,0.075000X-0.375000X0.075000X-0.375000X-0.075000X0.375000X-0.075000X0.375000X0.075000X0*%
%TD*%
%TA.AperFunction,SMDPad,CuDef*%
%ADD58RoundRect,0.100000X-0.300000X0.100000X-0.300000X-0.100000X0.300000X-0.100000X0.300000X0.100000X0*%
%TD*%
%TA.AperFunction,ComponentPad*%
%ADD59R,1.700000X1.700000*%
%TD*%
%TA.AperFunction,ComponentPad*%
%ADD60C,1.700000*%
%TD*%
%TA.AperFunction,SMDPad,CuDef*%
%ADD61RoundRect,0.062500X-0.062500X0.375000X-0.062500X-0.375000X0.062500X-0.375000X0.062500X0.375000X0*%
%TD*%
%TA.AperFunction,SMDPad,CuDef*%
%ADD62RoundRect,0.062500X-0.375000X0.062500X-0.375000X-0.062500X0.375000X-0.062500X0.375000X0.062500X0*%
%TD*%
%TA.AperFunction,HeatsinkPad*%
%ADD63R,1.600000X1.600000*%
%TD*%
%TA.AperFunction,SMDPad,CuDef*%
%ADD64RoundRect,0.062500X0.237500X0.062500X-0.237500X0.062500X-0.237500X-0.062500X0.237500X-0.062500X0*%
%TD*%
%TA.AperFunction,SMDPad,CuDef*%
%ADD65RoundRect,0.062500X-0.062500X0.237500X-0.062500X-0.237500X0.062500X-0.237500X0.062500X0.237500X0*%
%TD*%
%TA.AperFunction,SMDPad,CuDef*%
%ADD66RoundRect,0.062500X-0.062500X-0.850000X0.062500X-0.850000X0.062500X0.850000X-0.062500X0.850000X0*%
%TD*%
%TA.AperFunction,SMDPad,CuDef*%
%ADD67RoundRect,0.225000X0.275000X-0.225000X0.275000X0.225000X-0.275000X0.225000X-0.275000X-0.225000X0*%
%TD*%
%TA.AperFunction,SMDPad,CuDef*%
%ADD68RoundRect,0.250000X-0.250000X-0.250000X0.250000X-0.250000X0.250000X0.250000X-0.250000X0.250000X0*%
%TD*%
%TA.AperFunction,SMDPad,CuDef*%
%ADD69RoundRect,0.225000X0.225000X0.275000X-0.225000X0.275000X-0.225000X-0.275000X0.225000X-0.275000X0*%
%TD*%
%TA.AperFunction,SMDPad,CuDef*%
%ADD70RoundRect,0.250000X-0.262500X-0.450000X0.262500X-0.450000X0.262500X0.450000X-0.262500X0.450000X0*%
%TD*%
%TA.AperFunction,SMDPad,CuDef*%
%ADD71RoundRect,0.250000X-0.350000X-0.450000X0.350000X-0.450000X0.350000X0.450000X-0.350000X0.450000X0*%
%TD*%
%TA.AperFunction,SMDPad,CuDef*%
%ADD72RoundRect,0.225000X0.225000X0.250000X-0.225000X0.250000X-0.225000X-0.250000X0.225000X-0.250000X0*%
%TD*%
%TA.AperFunction,SMDPad,CuDef*%
%ADD73R,0.475000X0.200000*%
%TD*%
%TA.AperFunction,SMDPad,CuDef*%
%ADD74RoundRect,0.250000X-0.475000X0.250000X-0.475000X-0.250000X0.475000X-0.250000X0.475000X0.250000X0*%
%TD*%
%TA.AperFunction,SMDPad,CuDef*%
%ADD75RoundRect,0.237500X0.237500X-0.250000X0.237500X0.250000X-0.237500X0.250000X-0.237500X-0.250000X0*%
%TD*%
%TA.AperFunction,SMDPad,CuDef*%
%ADD76RoundRect,0.100000X-0.400000X-0.400000X0.400000X-0.400000X0.400000X0.400000X-0.400000X0.400000X0*%
%TD*%
%TA.AperFunction,SMDPad,CuDef*%
%ADD77RoundRect,0.105000X-0.420000X-0.995000X0.420000X-0.995000X0.420000X0.995000X-0.420000X0.995000X0*%
%TD*%
%TA.AperFunction,SMDPad,CuDef*%
%ADD78RoundRect,0.100000X-0.100000X0.200000X-0.100000X-0.200000X0.100000X-0.200000X0.100000X0.200000X0*%
%TD*%
%TA.AperFunction,SMDPad,CuDef*%
%ADD79RoundRect,0.150000X-0.475000X0.150000X-0.475000X-0.150000X0.475000X-0.150000X0.475000X0.150000X0*%
%TD*%
%TA.AperFunction,SMDPad,CuDef*%
%ADD80R,0.750000X2.100000*%
%TD*%
%TA.AperFunction,SMDPad,CuDef*%
%ADD81RoundRect,0.150000X-0.600000X0.150000X-0.600000X-0.150000X0.600000X-0.150000X0.600000X0.150000X0*%
%TD*%
%TA.AperFunction,SMDPad,CuDef*%
%ADD82RoundRect,0.237500X-0.237500X0.250000X-0.237500X-0.250000X0.237500X-0.250000X0.237500X0.250000X0*%
%TD*%
%TA.AperFunction,SMDPad,CuDef*%
%ADD83RoundRect,0.200000X0.250000X0.200000X-0.250000X0.200000X-0.250000X-0.200000X0.250000X-0.200000X0*%
%TD*%
%TA.AperFunction,SMDPad,CuDef*%
%ADD84RoundRect,0.250000X0.350000X0.450000X-0.350000X0.450000X-0.350000X-0.450000X0.350000X-0.450000X0*%
%TD*%
%TA.AperFunction,SMDPad,CuDef*%
%ADD85RoundRect,0.250000X0.250000X0.475000X-0.250000X0.475000X-0.250000X-0.475000X0.250000X-0.475000X0*%
%TD*%
%TA.AperFunction,SMDPad,CuDef*%
%ADD86R,2.000000X2.800000*%
%TD*%
%TA.AperFunction,SMDPad,CuDef*%
%ADD87R,2.800000X2.800000*%
%TD*%
%TA.AperFunction,SMDPad,CuDef*%
%ADD88R,2.200000X2.800000*%
%TD*%
%TA.AperFunction,SMDPad,CuDef*%
%ADD89RoundRect,0.250000X-0.325000X-1.100000X0.325000X-1.100000X0.325000X1.100000X-0.325000X1.100000X0*%
%TD*%
%TA.AperFunction,ComponentPad*%
%ADD90C,0.700000*%
%TD*%
%TA.AperFunction,ComponentPad*%
%ADD91O,2.400000X0.900000*%
%TD*%
%TA.AperFunction,ComponentPad*%
%ADD92O,1.700000X0.900000*%
%TD*%
%TA.AperFunction,SMDPad,CuDef*%
%ADD93R,3.700000X1.200000*%
%TD*%
%TA.AperFunction,ViaPad*%
%ADD94C,0.500000*%
%TD*%
%TA.AperFunction,ViaPad*%
%ADD95C,1.000000*%
%TD*%
%TA.AperFunction,ViaPad*%
%ADD96C,0.600000*%
%TD*%
%TA.AperFunction,Conductor*%
%ADD97C,0.200000*%
%TD*%
%TA.AperFunction,Conductor*%
%ADD98C,0.500000*%
%TD*%
%TA.AperFunction,Conductor*%
%ADD99C,0.349250*%
%TD*%
%TA.AperFunction,Conductor*%
%ADD100C,0.120000*%
%TD*%
%TA.AperFunction,Conductor*%
%ADD101C,0.250000*%
%TD*%
G04 APERTURE END LIST*
D10*
%TO.C,S902*%
X129250000Y-58250000D02*
X128250000Y-57250000D01*
X128437500Y-56237742D01*
X129100000Y-56200000D01*
X129250000Y-58250000D01*
%TA.AperFunction,EtchedComponent*%
G36*
X129250000Y-58250000D02*
G01*
X128250000Y-57250000D01*
X128437500Y-56237742D01*
X129100000Y-56200000D01*
X129250000Y-58250000D01*
G37*
%TD.AperFunction*%
%TO.C,S903*%
X151250000Y-58250000D02*
X150250000Y-57250000D01*
X150437500Y-56237742D01*
X151100000Y-56200000D01*
X151250000Y-58250000D01*
%TA.AperFunction,EtchedComponent*%
G36*
X151250000Y-58250000D02*
G01*
X150250000Y-57250000D01*
X150437500Y-56237742D01*
X151100000Y-56200000D01*
X151250000Y-58250000D01*
G37*
%TD.AperFunction*%
%TO.C,S910*%
X129250000Y-133000000D02*
X128250000Y-132000000D01*
X128437500Y-130987742D01*
X129100000Y-130950000D01*
X129250000Y-133000000D01*
%TA.AperFunction,EtchedComponent*%
G36*
X129250000Y-133000000D02*
G01*
X128250000Y-132000000D01*
X128437500Y-130987742D01*
X129100000Y-130950000D01*
X129250000Y-133000000D01*
G37*
%TD.AperFunction*%
%TO.C,S907*%
X80250000Y-105150000D02*
X79250000Y-104150000D01*
X79437500Y-103137742D01*
X80100000Y-103100000D01*
X80250000Y-105150000D01*
%TA.AperFunction,EtchedComponent*%
G36*
X80250000Y-105150000D02*
G01*
X79250000Y-104150000D01*
X79437500Y-103137742D01*
X80100000Y-103100000D01*
X80250000Y-105150000D01*
G37*
%TD.AperFunction*%
%TO.C,S911*%
X151250000Y-133000000D02*
X150250000Y-132000000D01*
X150437500Y-130987742D01*
X151100000Y-130950000D01*
X151250000Y-133000000D01*
%TA.AperFunction,EtchedComponent*%
G36*
X151250000Y-133000000D02*
G01*
X150250000Y-132000000D01*
X150437500Y-130987742D01*
X151100000Y-130950000D01*
X151250000Y-133000000D01*
G37*
%TD.AperFunction*%
%TO.C,S909*%
X107250000Y-133000000D02*
X106250000Y-132000000D01*
X106437500Y-130987742D01*
X107100000Y-130950000D01*
X107250000Y-133000000D01*
%TA.AperFunction,EtchedComponent*%
G36*
X107250000Y-133000000D02*
G01*
X106250000Y-132000000D01*
X106437500Y-130987742D01*
X107100000Y-130950000D01*
X107250000Y-133000000D01*
G37*
%TD.AperFunction*%
%TO.C,S901*%
X107250000Y-58250000D02*
X106250000Y-57250000D01*
X106437500Y-56237742D01*
X107100000Y-56200000D01*
X107250000Y-58250000D01*
%TA.AperFunction,EtchedComponent*%
G36*
X107250000Y-58250000D02*
G01*
X106250000Y-57250000D01*
X106437500Y-56237742D01*
X107100000Y-56200000D01*
X107250000Y-58250000D01*
G37*
%TD.AperFunction*%
%TO.C,S912*%
X173250000Y-133000000D02*
X172250000Y-132000000D01*
X172437500Y-130987742D01*
X173100000Y-130950000D01*
X173250000Y-133000000D01*
%TA.AperFunction,EtchedComponent*%
G36*
X173250000Y-133000000D02*
G01*
X172250000Y-132000000D01*
X172437500Y-130987742D01*
X173100000Y-130950000D01*
X173250000Y-133000000D01*
G37*
%TD.AperFunction*%
%TO.C,S908*%
X80250000Y-119350000D02*
X79250000Y-118350000D01*
X79437500Y-117337742D01*
X80100000Y-117300000D01*
X80250000Y-119350000D01*
%TA.AperFunction,EtchedComponent*%
G36*
X80250000Y-119350000D02*
G01*
X79250000Y-118350000D01*
X79437500Y-117337742D01*
X80100000Y-117300000D01*
X80250000Y-119350000D01*
G37*
%TD.AperFunction*%
%TO.C,S905*%
X80250000Y-76750000D02*
X79250000Y-75750000D01*
X79437500Y-74737742D01*
X80100000Y-74700000D01*
X80250000Y-76750000D01*
%TA.AperFunction,EtchedComponent*%
G36*
X80250000Y-76750000D02*
G01*
X79250000Y-75750000D01*
X79437500Y-74737742D01*
X80100000Y-74700000D01*
X80250000Y-76750000D01*
G37*
%TD.AperFunction*%
%TO.C,S906*%
X80150000Y-90950000D02*
X79150000Y-89950000D01*
X79337500Y-88937742D01*
X80000000Y-88900000D01*
X80150000Y-90950000D01*
%TA.AperFunction,EtchedComponent*%
G36*
X80150000Y-90950000D02*
G01*
X79150000Y-89950000D01*
X79337500Y-88937742D01*
X80000000Y-88900000D01*
X80150000Y-90950000D01*
G37*
%TD.AperFunction*%
%TO.C,S904*%
X173250000Y-58250000D02*
X172250000Y-57250000D01*
X172437500Y-56237742D01*
X173100000Y-56200000D01*
X173250000Y-58250000D01*
%TA.AperFunction,EtchedComponent*%
G36*
X173250000Y-58250000D02*
G01*
X172250000Y-57250000D01*
X172437500Y-56237742D01*
X173100000Y-56200000D01*
X173250000Y-58250000D01*
G37*
%TD.AperFunction*%
%TD*%
D11*
%TO.P,MK501,1,-*%
%TO.N,/Audio/Mic_P*%
X98100000Y-127730000D03*
%TO.P,MK501,2,+*%
%TO.N,/Audio/Mic_HS_N*%
X98100000Y-130270000D03*
%TD*%
D12*
%TO.P,R401,1*%
%TO.N,+3.3V*%
X151320000Y-77195000D03*
%TO.P,R401,2*%
%TO.N,/ESP32 Microcontroller/GPIO3_STRAP_PD*%
X151320000Y-78845000D03*
%TD*%
D13*
%TO.P,C701,1*%
%TO.N,+3.3V*%
X101900000Y-110750000D03*
%TO.P,C701,2*%
%TO.N,GND*%
X101900000Y-108850000D03*
%TD*%
D14*
%TO.P,D201,1,K*%
%TO.N,Net-(D201-K)*%
X122045000Y-97062500D03*
%TO.P,D201,2,A*%
%TO.N,+3.3V*%
X122045000Y-98937500D03*
%TD*%
D15*
%TO.P,FB401,1*%
%TO.N,+3.3V*%
X148300000Y-98912500D03*
%TO.P,FB401,2*%
%TO.N,/ESP32 Microcontroller/VDD33A*%
X148300000Y-97087500D03*
%TD*%
D16*
%TO.P,S902,*%
%TO.N,*%
X128250000Y-51750000D03*
D12*
X128912500Y-55837742D03*
D16*
X128250000Y-58250000D03*
D17*
%TO.P,S902,1,VDD*%
%TO.N,+5V*%
X137150000Y-54250000D03*
%TO.P,S902,2,DO*%
%TO.N,Net-(S902B-DO)*%
X137150000Y-55750000D03*
D18*
%TO.P,S902,3,GND*%
%TO.N,GND*%
X131850000Y-55750000D03*
D17*
%TO.P,S902,4,DI*%
%TO.N,Net-(S901B-DO)*%
X131850000Y-54250000D03*
D16*
%TO.P,S902,5*%
%TO.N,/HMI Controller/ROW_A*%
X132750000Y-51750000D03*
X132750000Y-58250000D03*
D12*
%TO.P,S902,6*%
%TO.N,GND*%
X128912500Y-54187742D03*
%TD*%
D19*
%TO.P,Q701,1,G*%
%TO.N,+3.3V*%
X102150000Y-102637500D03*
%TO.P,Q701,2,S*%
%TO.N,/HMI Controller/RGB_DATA_3.3*%
X104050000Y-102637500D03*
%TO.P,Q701,3,D*%
%TO.N,/HMI Controller/RGB_DATA*%
X103100000Y-100762500D03*
%TD*%
D20*
%TO.P,C406,1*%
%TO.N,/ESP32 Microcontroller/VDD33A*%
X148350000Y-90125000D03*
%TO.P,C406,2*%
%TO.N,GND*%
X148350000Y-91675000D03*
%TD*%
D21*
%TO.P,J301,1,Pin_1*%
%TO.N,/Battery/BATT_TS*%
X122750000Y-70950000D03*
D22*
%TO.P,J301,2,Pin_2*%
%TO.N,+BATT*%
X120750000Y-70950000D03*
%TO.P,J301,3,Pin_3*%
%TO.N,GND*%
X118750000Y-70950000D03*
%TD*%
D23*
%TO.P,JP701,1,A*%
%TO.N,/HMI Controller/RGB_DATA_3.3*%
X100100000Y-102700000D03*
%TO.P,JP701,2,B*%
%TO.N,/HMI Controller/RGB_DATA*%
X100100000Y-101400000D03*
%TD*%
D24*
%TO.P,TP201,1,1*%
%TO.N,/Power/PWR_REG_GOOD*%
X119000000Y-88500000D03*
%TD*%
D25*
%TO.P,R407,1*%
%TO.N,+3.3V*%
X142325000Y-75840000D03*
%TO.P,R407,2*%
%TO.N,/ESP32 Microcontroller/VDD33_SPI*%
X140675000Y-75840000D03*
%TD*%
D16*
%TO.P,S903,*%
%TO.N,*%
X150250000Y-51750000D03*
D12*
X150912500Y-55837742D03*
D16*
X150250000Y-58250000D03*
D17*
%TO.P,S903,1,VDD*%
%TO.N,+5V*%
X159150000Y-54250000D03*
%TO.P,S903,2,DO*%
%TO.N,Net-(S903B-DO)*%
X159150000Y-55750000D03*
D18*
%TO.P,S903,3,GND*%
%TO.N,GND*%
X153850000Y-55750000D03*
D17*
%TO.P,S903,4,DI*%
%TO.N,Net-(S902B-DO)*%
X153850000Y-54250000D03*
D16*
%TO.P,S903,5*%
%TO.N,/HMI Controller/ROW_A*%
X154750000Y-51750000D03*
X154750000Y-58250000D03*
D12*
%TO.P,S903,6*%
%TO.N,GND*%
X150912500Y-54187742D03*
%TD*%
%TO.P,R201,1*%
%TO.N,+3.3V*%
X126500000Y-86675000D03*
%TO.P,R201,2*%
%TO.N,/Power/FB*%
X126500000Y-88325000D03*
%TD*%
D26*
%TO.P,S917,*%
%TO.N,*%
X96500000Y-54250000D03*
X89500000Y-54250000D03*
D27*
%TO.P,S917,1,1*%
%TO.N,/HMI Controller/POW_SW*%
X95250000Y-51760000D03*
%TO.P,S917,2,2*%
%TO.N,GND*%
X90750000Y-51750000D03*
%TD*%
D28*
%TO.P,H101,1,1*%
%TO.N,GND*%
X190000000Y-55000000D03*
%TD*%
D13*
%TO.P,C208,1*%
%TO.N,/Power/VCC*%
X130000000Y-88950000D03*
%TO.P,C208,2*%
%TO.N,GND*%
X130000000Y-87050000D03*
%TD*%
D29*
%TO.P,R404,1*%
%TO.N,/ESP32 Microcontroller/CHIP_EN*%
X182675000Y-91775000D03*
%TO.P,R404,2*%
%TO.N,+3.3V*%
X182675000Y-90125000D03*
%TD*%
D30*
%TO.P,J601,1,VDD*%
%TO.N,+3.3V*%
X183075000Y-83250000D03*
%TO.P,J601,2,SDA*%
%TO.N,/I2C_SDA*%
X183075000Y-82750000D03*
%TO.P,J601,3,SCL*%
%TO.N,/I2C_SCL*%
X183075000Y-82250000D03*
%TO.P,J601,4,INT*%
%TO.N,/Display Connectors/DISP_TS_INT*%
X183075000Y-81750000D03*
%TO.P,J601,5,RST*%
%TO.N,/Display Connectors/DISP_TS_RST*%
X183075000Y-81250000D03*
%TO.P,J601,6,GND*%
%TO.N,GND*%
X183075000Y-80750000D03*
D31*
%TO.P,J601,MP,MP*%
%TO.N,unconnected-(J601-PadMP)_1*%
X185425000Y-84250000D03*
%TO.N,unconnected-(J601-PadMP)*%
X185425000Y-79750000D03*
%TD*%
D32*
%TO.P,C402,1*%
%TO.N,+3.3V*%
X148600000Y-86075000D03*
%TO.P,C402,2*%
%TO.N,GND*%
X148600000Y-84525000D03*
%TD*%
D12*
%TO.P,R406,1*%
%TO.N,Net-(U402-CLK)*%
X137900000Y-70875000D03*
%TO.P,R406,2*%
%TO.N,/ESP32 Microcontroller/SPIFLASH_CLK*%
X137900000Y-72525000D03*
%TD*%
D33*
%TO.P,U401,1,LNA_IN*%
%TO.N,/ESP32 Microcontroller/RF*%
X146750000Y-87100000D03*
%TO.P,U401,2,VDD3P3*%
%TO.N,+3.3V*%
X146750000Y-86700000D03*
%TO.P,U401,3,VDD3P3*%
X146750000Y-86300000D03*
%TO.P,U401,4,CHIP_PU*%
%TO.N,/ESP32 Microcontroller/CHIP_EN*%
X146750000Y-85900000D03*
%TO.P,U401,5,GPIO0*%
%TO.N,/ESP32 Microcontroller/BOOT_MODE*%
X146750000Y-85500000D03*
%TO.P,U401,6,GPIO1*%
%TO.N,unconnected-(U401-GPIO1-Pad6)*%
X146750000Y-85100000D03*
%TO.P,U401,7,GPIO2*%
%TO.N,unconnected-(U401-GPIO2-Pad7)*%
X146750000Y-84700000D03*
%TO.P,U401,8,GPIO3*%
%TO.N,unconnected-(U401-GPIO3-Pad8)*%
X146750000Y-84300000D03*
%TO.P,U401,9,GPIO4*%
%TO.N,/ESP32 Microcontroller/GPIO3_STRAP_PD*%
X146750000Y-83900000D03*
%TO.P,U401,10,GPIO5*%
%TO.N,unconnected-(U401-GPIO5-Pad10)*%
X146750000Y-83500000D03*
%TO.P,U401,11,GPIO6*%
%TO.N,/I2C_SDA*%
X146750000Y-83100000D03*
%TO.P,U401,12,GPIO7*%
%TO.N,/I2C_SCL*%
X146750000Y-82700000D03*
%TO.P,U401,13,GPIO8*%
%TO.N,/Audio/I2S_MCLK*%
X146750000Y-82300000D03*
%TO.P,U401,14,GPIO9*%
%TO.N,/Audio/I2S_ADCIN*%
X146750000Y-81900000D03*
D34*
%TO.P,U401,15,GPIO10*%
%TO.N,/Audio/I2S_ADCOUT*%
X145900000Y-81050000D03*
%TO.P,U401,16,GPIO11*%
%TO.N,/Audio/I2S_BCLK*%
X145500000Y-81050000D03*
%TO.P,U401,17,GPIO12*%
%TO.N,/Audio/I2S_FS*%
X145100000Y-81050000D03*
%TO.P,U401,18,GPIO13*%
%TO.N,/Display Connectors/DISP_DC*%
X144700000Y-81050000D03*
%TO.P,U401,19,GPIO14*%
%TO.N,/Display Connectors/DISP_SCL*%
X144300000Y-81050000D03*
%TO.P,U401,20,VDD3P3_RTC*%
%TO.N,+3.3V*%
X143900000Y-81050000D03*
%TO.P,U401,21,GPIO15/XTAL_32K_P\u002A*%
%TO.N,/Display Connectors/DISP_TS_INT*%
X143500000Y-81050000D03*
%TO.P,U401,22,GPIO16/XTAL_32K_N\u002A*%
%TO.N,/Display Connectors/DISP_TS_RST*%
X143100000Y-81050000D03*
%TO.P,U401,23,GPIO17*%
%TO.N,/Display Connectors/DISP_SDA*%
X142700000Y-81050000D03*
%TO.P,U401,24,GPIO18*%
%TO.N,/Display Connectors/DISP_RST*%
X142300000Y-81050000D03*
%TO.P,U401,25,GPIO19/USB_D-*%
%TO.N,/ESP32 Microcontroller/USB_uC_N*%
X141900000Y-81050000D03*
%TO.P,U401,26,GPIO20/USB_D+*%
%TO.N,/ESP32 Microcontroller/USB_uC_P*%
X141500000Y-81050000D03*
%TO.P,U401,27,GPIO21*%
%TO.N,/Display Connectors/DISP_CS*%
X141100000Y-81050000D03*
%TO.P,U401,28,SPICS1*%
%TO.N,unconnected-(U401-SPICS1-Pad28)*%
X140700000Y-81050000D03*
D33*
%TO.P,U401,29,VDD_SPI*%
%TO.N,/ESP32 Microcontroller/VDD33_SPI*%
X139850000Y-81900000D03*
%TO.P,U401,30,SPIHD*%
%TO.N,/ESP32 Microcontroller/SPIFLASH_HD*%
X139850000Y-82300000D03*
%TO.P,U401,31,SPIWP*%
%TO.N,/ESP32 Microcontroller/SPIFLASH_WP*%
X139850000Y-82700000D03*
%TO.P,U401,32,SPICS0*%
%TO.N,/ESP32 Microcontroller/SPIFLASH_CS0*%
X139850000Y-83100000D03*
%TO.P,U401,33,SPICLK*%
%TO.N,/ESP32 Microcontroller/SPIFLASH_CLK*%
X139850000Y-83500000D03*
%TO.P,U401,34,SPIQ*%
%TO.N,/ESP32 Microcontroller/SPIFLASH_Q*%
X139850000Y-83900000D03*
%TO.P,U401,35,SPID*%
%TO.N,/ESP32 Microcontroller/SPIFLASH_D*%
X139850000Y-84300000D03*
%TO.P,U401,36,SPICLK_N*%
%TO.N,unconnected-(U401-SPICLK_N-Pad36)*%
X139850000Y-84700000D03*
%TO.P,U401,37,SPICLK_P*%
%TO.N,unconnected-(U401-SPICLK_P-Pad37)*%
X139850000Y-85100000D03*
%TO.P,U401,38,GPIO33*%
%TO.N,/Display Connectors/DISP_BL*%
X139850000Y-85500000D03*
%TO.P,U401,39,GPIO34*%
%TO.N,/Battery/PWR_CHRG*%
X139850000Y-85900000D03*
%TO.P,U401,40,GPIO35*%
%TO.N,/Battery/PWR_GOOD*%
X139850000Y-86300000D03*
%TO.P,U401,41,GPIO36*%
%TO.N,/ESP32 Microcontroller/HMI_WAKE*%
X139850000Y-86700000D03*
%TO.P,U401,42,GPIO37*%
%TO.N,/ESP32 Microcontroller/HMI_INT*%
X139850000Y-87100000D03*
D34*
%TO.P,U401,43,GPIO38*%
%TO.N,/ESP32 Microcontroller/SD_DAT1*%
X140700000Y-87950000D03*
%TO.P,U401,44,GPIO39/MTCK*%
%TO.N,/ESP32 Microcontroller/SD_DAT0*%
X141100000Y-87950000D03*
%TO.P,U401,45,GPIO40/MTDO*%
%TO.N,/ESP32 Microcontroller/SD_SCK*%
X141500000Y-87950000D03*
%TO.P,U401,46,VDD3P3_CPU*%
%TO.N,+3.3V*%
X141900000Y-87950000D03*
%TO.P,U401,47,GPIO41/MTDI*%
%TO.N,/ESP32 Microcontroller/SD_CMD*%
X142300000Y-87950000D03*
%TO.P,U401,48,GPIO42/MTMS*%
%TO.N,/ESP32 Microcontroller/SD_DAT3*%
X142700000Y-87950000D03*
%TO.P,U401,49,GPIO43/U0TXD*%
%TO.N,/ESP32 Microcontroller/SD_DAT2*%
X143100000Y-87950000D03*
%TO.P,U401,50,GPIO44/U0RXD*%
%TO.N,/ESP32 Microcontroller/SD_DET*%
X143500000Y-87950000D03*
%TO.P,U401,51,GPIO45*%
%TO.N,/ESP32 Microcontroller/STATUS_LED*%
X143900000Y-87950000D03*
%TO.P,U401,52,GPIO46*%
%TO.N,unconnected-(U401-GPIO46-Pad52)*%
X144300000Y-87950000D03*
%TO.P,U401,53,XTAL_N*%
%TO.N,/ESP32 Microcontroller/XTAL_N*%
X144700000Y-87950000D03*
%TO.P,U401,54,XTAL_P*%
%TO.N,/ESP32 Microcontroller/XTAL_P*%
X145100000Y-87950000D03*
%TO.P,U401,55,VDDA*%
%TO.N,/ESP32 Microcontroller/VDD33A*%
X145500000Y-87950000D03*
%TO.P,U401,56,VDDA*%
X145900000Y-87950000D03*
D35*
%TO.P,U401,57,GND*%
%TO.N,GND*%
X145050000Y-86250000D03*
X145050000Y-84500000D03*
X145050000Y-82750000D03*
X143300000Y-86250000D03*
X143300000Y-84500000D03*
D36*
X143300000Y-84500000D03*
D35*
X143300000Y-82750000D03*
X141550000Y-86250000D03*
X141550000Y-84500000D03*
X141550000Y-82750000D03*
%TD*%
D12*
%TO.P,R204,1*%
%TO.N,Net-(D201-K)*%
X118500000Y-97000000D03*
%TO.P,R204,2*%
%TO.N,GND*%
X118500000Y-98650000D03*
%TD*%
D25*
%TO.P,R307,1*%
%TO.N,+3.3V*%
X133325000Y-83750000D03*
%TO.P,R307,2*%
%TO.N,/Battery/PWR_CHRG*%
X131675000Y-83750000D03*
%TD*%
D37*
%TO.P,C201,1*%
%TO.N,Net-(U201-BOOT)*%
X132500000Y-87000000D03*
%TO.P,C201,2*%
%TO.N,/Power/SW*%
X132500000Y-89950000D03*
%TD*%
D38*
%TO.P,C506,1*%
%TO.N,Net-(J501-R1)*%
X177475000Y-117000000D03*
%TO.P,C506,2*%
%TO.N,/Audio/R_HS*%
X174525000Y-117000000D03*
%TD*%
D29*
%TO.P,R202,1*%
%TO.N,/Power/FB*%
X128000000Y-88325000D03*
%TO.P,R202,2*%
%TO.N,GND*%
X128000000Y-86675000D03*
%TD*%
D39*
%TO.P,J701,1,Vcc*%
%TO.N,+3.3V*%
X90905000Y-136729500D03*
%TO.P,J701,3*%
%TO.N,unconnected-(J701-Pad3)*%
X89635000Y-136729500D03*
%TO.P,J701,5*%
%TO.N,unconnected-(J701-Pad5)*%
X88365000Y-136729500D03*
%TO.P,J701,7,GND*%
%TO.N,GND*%
X87095000Y-136729500D03*
%TD*%
D40*
%TO.P,R804,1*%
%TO.N,/Nav Switch/Nav_Left_VD*%
X94875000Y-102100000D03*
%TO.P,R804,2*%
%TO.N,/HMI Controller/NAV_DIR*%
X96525000Y-102100000D03*
%TD*%
D32*
%TO.P,C404,1*%
%TO.N,+3.3V*%
X144400000Y-79075000D03*
%TO.P,C404,2*%
%TO.N,GND*%
X144400000Y-77525000D03*
%TD*%
D40*
%TO.P,R801,1*%
%TO.N,/Nav Switch/Nav_Down_VD*%
X94875000Y-100600000D03*
%TO.P,R801,2*%
%TO.N,/HMI Controller/NAV_DIR*%
X96525000Y-100600000D03*
%TD*%
%TO.P,R802,1*%
%TO.N,/Nav Switch/Nav_Right_VD*%
X94875000Y-103600000D03*
%TO.P,R802,2*%
%TO.N,/HMI Controller/NAV_DIR*%
X96525000Y-103600000D03*
%TD*%
D12*
%TO.P,R203,1*%
%TO.N,+3.3V*%
X122500000Y-86850000D03*
%TO.P,R203,2*%
%TO.N,/Power/PWR_REG_GOOD*%
X122500000Y-88500000D03*
%TD*%
D41*
%TO.P,U501,1,LMICP*%
%TO.N,Net-(U501-LMICP)*%
X164200000Y-111800000D03*
%TO.P,U501,2,LMICN*%
%TO.N,Net-(U501-LMICN)*%
X164200000Y-111300000D03*
%TO.P,U501,3,LLIN/GPIO2*%
%TO.N,/Audio/R_HS_N*%
X164200000Y-110800000D03*
%TO.P,U501,4,RMICP*%
%TO.N,Net-(U501-RMICP)*%
X164200000Y-110300000D03*
%TO.P,U501,5,RMICN*%
%TO.N,Net-(U501-RMICN)*%
X164200000Y-109800000D03*
%TO.P,U501,6,RLIN/GPIO3*%
%TO.N,unconnected-(U501-RLIN{slash}GPIO3-Pad6)*%
X164200000Y-109300000D03*
%TO.P,U501,7,FS*%
%TO.N,/Audio/I2S_FS*%
X164200000Y-108800000D03*
%TO.P,U501,8,BCLK*%
%TO.N,/Audio/I2S_BCLK*%
X164200000Y-108300000D03*
D42*
%TO.P,U501,9,ADCOUT*%
%TO.N,/Audio/I2S_ADCOUT*%
X163500000Y-107600000D03*
%TO.P,U501,10,DACIN*%
%TO.N,/Audio/I2S_ADCIN*%
X163000000Y-107600000D03*
%TO.P,U501,11,MCLK*%
%TO.N,/Audio/I2S_MCLK*%
X162500000Y-107600000D03*
%TO.P,U501,12,VSSD*%
%TO.N,GND*%
X162000000Y-107600000D03*
%TO.P,U501,13,VDDC*%
%TO.N,+3.3V*%
X161500000Y-107600000D03*
%TO.P,U501,14,VDDB*%
X161000000Y-107600000D03*
%TO.P,U501,15,CSB/GPIO1*%
%TO.N,unconnected-(U501-CSB{slash}GPIO1-Pad15)*%
X160500000Y-107600000D03*
%TO.P,U501,16,SCLK*%
%TO.N,/I2C_SCL*%
X160000000Y-107600000D03*
D41*
%TO.P,U501,17,SDIO*%
%TO.N,/I2C_SDA*%
X159300000Y-108300000D03*
%TO.P,U501,18,MODE*%
%TO.N,GND*%
X159300000Y-108800000D03*
%TO.P,U501,19,LAUXIN*%
%TO.N,unconnected-(U501-LAUXIN-Pad19)*%
X159300000Y-109300000D03*
%TO.P,U501,20,RAUXIN*%
%TO.N,unconnected-(U501-RAUXIN-Pad20)*%
X159300000Y-109800000D03*
%TO.P,U501,21,AUXOUT1*%
%TO.N,unconnected-(U501-AUXOUT1-Pad21)*%
X159300000Y-110300000D03*
%TO.P,U501,22,AUXOUT2*%
%TO.N,unconnected-(U501-AUXOUT2-Pad22)*%
X159300000Y-110800000D03*
%TO.P,U501,23,RSPKOUT*%
%TO.N,/Audio/SP_N*%
X159300000Y-111300000D03*
%TO.P,U501,24,VSSSPK*%
%TO.N,GND*%
X159300000Y-111800000D03*
D42*
%TO.P,U501,25,LSPKOUT*%
%TO.N,/Audio/SP_P*%
X160000000Y-112500000D03*
%TO.P,U501,26,VDDSPK*%
%TO.N,/Audio/VDDSPK*%
X160500000Y-112500000D03*
%TO.P,U501,27,VREF*%
%TO.N,/Audio/Mic_HS_N*%
X161000000Y-112500000D03*
%TO.P,U501,28,VSSA*%
%TO.N,GND*%
X161500000Y-112500000D03*
%TO.P,U501,29,RHP*%
%TO.N,/Audio/R_HS*%
X162000000Y-112500000D03*
%TO.P,U501,30,LHP*%
%TO.N,/Audio/L_HS*%
X162500000Y-112500000D03*
%TO.P,U501,31,VDDA*%
%TO.N,+3.3V*%
X163000000Y-112500000D03*
%TO.P,U501,32,MICBIAS*%
%TO.N,/Audio/Mic_Bias*%
X163500000Y-112500000D03*
D35*
%TO.P,U501,33,VSSD*%
%TO.N,GND*%
X162750000Y-111050000D03*
X162750000Y-110050000D03*
X162750000Y-109050000D03*
X161750000Y-111050000D03*
X161750000Y-110050000D03*
D43*
X161750000Y-110050000D03*
D35*
X161750000Y-109050000D03*
X160750000Y-111050000D03*
X160750000Y-110050000D03*
X160750000Y-109050000D03*
%TD*%
D20*
%TO.P,C702,1*%
%TO.N,+3.3V*%
X101900000Y-113025000D03*
%TO.P,C702,2*%
%TO.N,GND*%
X101900000Y-114575000D03*
%TD*%
D44*
%TO.P,C408,1*%
%TO.N,/ESP32 Microcontroller/VDD33_SPI*%
X140725000Y-74340000D03*
%TO.P,C408,2*%
%TO.N,GND*%
X142275000Y-74340000D03*
%TD*%
D29*
%TO.P,R504,1*%
%TO.N,/Audio/Mic_Bias*%
X166750000Y-117375000D03*
%TO.P,R504,2*%
%TO.N,/Audio/Mic_HS*%
X166750000Y-115725000D03*
%TD*%
D25*
%TO.P,R411,1*%
%TO.N,/ESP32 Microcontroller/USB_N*%
X175825000Y-100000000D03*
%TO.P,R411,2*%
%TO.N,/ESP32 Microcontroller/USB_uC_N*%
X174175000Y-100000000D03*
%TD*%
D45*
%TO.P,U402,1,~{CS}*%
%TO.N,/ESP32 Microcontroller/SPIFLASH_CS0*%
X148000000Y-72400000D03*
%TO.P,U402,2,DO/IO_{1}*%
%TO.N,/ESP32 Microcontroller/SPIFLASH_Q*%
X148000000Y-71130000D03*
%TO.P,U402,3,~{WP}/IO_{2}*%
%TO.N,/ESP32 Microcontroller/SPIFLASH_WP*%
X148000000Y-69860000D03*
%TO.P,U402,4,GND*%
%TO.N,GND*%
X148000000Y-68590000D03*
%TO.P,U402,5,DI/IO_{0}*%
%TO.N,/ESP32 Microcontroller/SPIFLASH_D*%
X140825000Y-68590000D03*
%TO.P,U402,6,CLK*%
%TO.N,Net-(U402-CLK)*%
X140825000Y-69860000D03*
%TO.P,U402,7,~{HOLD}/~{RESET}/IO_{3}*%
%TO.N,/ESP32 Microcontroller/SPIFLASH_HD*%
X140825000Y-71130000D03*
%TO.P,U402,8,VCC*%
%TO.N,/ESP32 Microcontroller/VDD33_SPI*%
X140825000Y-72400000D03*
%TD*%
D46*
%TO.P,L401,1*%
%TO.N,/ESP32 Microcontroller/RF*%
X146820000Y-106162500D03*
%TO.P,L401,2*%
%TO.N,/ESP32 Microcontroller/RF_ANT*%
X146820000Y-107737500D03*
%TD*%
D16*
%TO.P,S910,*%
%TO.N,*%
X128250000Y-126500000D03*
D12*
X128912500Y-130587742D03*
D16*
X128250000Y-133000000D03*
D17*
%TO.P,S910,1,VDD*%
%TO.N,+5V*%
X137150000Y-129000000D03*
%TO.P,S910,2,DO*%
%TO.N,Net-(S910B-DO)*%
X137150000Y-130500000D03*
D18*
%TO.P,S910,3,GND*%
%TO.N,GND*%
X131850000Y-130500000D03*
D17*
%TO.P,S910,4,DI*%
%TO.N,Net-(S909B-DO)*%
X131850000Y-129000000D03*
D16*
%TO.P,S910,5*%
%TO.N,/HMI Controller/ROW_C*%
X132750000Y-126500000D03*
X132750000Y-133000000D03*
D12*
%TO.P,S910,6*%
%TO.N,GND*%
X128912500Y-128937742D03*
%TD*%
D16*
%TO.P,S907,*%
%TO.N,*%
X79250000Y-98650000D03*
D12*
X79912500Y-102737742D03*
D16*
X79250000Y-105150000D03*
D17*
%TO.P,S907,1,VDD*%
%TO.N,+5V*%
X88150000Y-101150000D03*
%TO.P,S907,2,DO*%
%TO.N,Net-(S907B-DO)*%
X88150000Y-102650000D03*
D18*
%TO.P,S907,3,GND*%
%TO.N,GND*%
X82850000Y-102650000D03*
D17*
%TO.P,S907,4,DI*%
%TO.N,Net-(S906B-DO)*%
X82850000Y-101150000D03*
D16*
%TO.P,S907,5*%
%TO.N,/HMI Controller/ROW_B*%
X83750000Y-98650000D03*
X83750000Y-105150000D03*
D12*
%TO.P,S907,6*%
%TO.N,GND*%
X79912500Y-101087742D03*
%TD*%
D25*
%TO.P,R303,1*%
%TO.N,GND*%
X132325000Y-80250000D03*
%TO.P,R303,2*%
%TO.N,Net-(U301-TMR)*%
X130675000Y-80250000D03*
%TD*%
D29*
%TO.P,R505,1*%
%TO.N,/Audio/Mic_Bias*%
X162000000Y-125325000D03*
%TO.P,R505,2*%
%TO.N,/Audio/Mic_P*%
X162000000Y-123675000D03*
%TD*%
D47*
%TO.P,C301,1*%
%TO.N,/Battery/Vusb*%
X127000000Y-80975000D03*
%TO.P,C301,2*%
%TO.N,GND*%
X127000000Y-78025000D03*
%TD*%
D12*
%TO.P,R415,1*%
%TO.N,/ESP32 Microcontroller/SD_DAT3*%
X141250000Y-108925000D03*
%TO.P,R415,2*%
%TO.N,+3.3V*%
X141250000Y-110575000D03*
%TD*%
D48*
%TO.P,U701,1,PA02*%
%TO.N,/HMI Controller/ROW_C*%
X98500000Y-112512500D03*
%TO.P,U701,2,PA03*%
%TO.N,/HMI Controller/ROW_A*%
X98000000Y-112512500D03*
%TO.P,U701,3,PA04*%
%TO.N,/HMI Controller/RGB_DATA_3.3*%
X97500000Y-112512500D03*
%TO.P,U701,4,PA05*%
%TO.N,/HMI Controller/NAV_DIR*%
X97000000Y-112512500D03*
%TO.P,U701,5,PA06*%
%TO.N,/HMI Controller/NAV_A*%
X96500000Y-112512500D03*
%TO.P,U701,6,PA07*%
%TO.N,/HMI Controller/ROW_B*%
X96000000Y-112512500D03*
D49*
%TO.P,U701,7,PA08/XIN*%
%TO.N,/HMI Controller/VFO_SW*%
X95312500Y-113200000D03*
%TO.P,U701,8,PA09/XOUT*%
%TO.N,unconnected-(U701-PA09{slash}XOUT-Pad8)*%
X95312500Y-113700000D03*
%TO.P,U701,9,PA10*%
%TO.N,/HMI Controller/NAV_B*%
X95312500Y-114200000D03*
%TO.P,U701,10,PA11*%
%TO.N,/HMI Controller/NAV_SW*%
X95312500Y-114700000D03*
%TO.P,U701,11,PA14*%
%TO.N,/HMI Controller/VFO_A*%
X95312500Y-115200000D03*
%TO.P,U701,12,PA15*%
%TO.N,/HMI Controller/VFO_B*%
X95312500Y-115700000D03*
D48*
%TO.P,U701,13,PA16*%
%TO.N,/HMI Controller/VFO_ADJ_A*%
X96000000Y-116387500D03*
%TO.P,U701,14,PA17*%
%TO.N,/HMI Controller/VFO_ADJ_B*%
X96500000Y-116387500D03*
%TO.P,U701,15,PA22*%
%TO.N,/I2C_SDA*%
X97000000Y-116387500D03*
%TO.P,U701,16,PA23*%
%TO.N,/I2C_SCL*%
X97500000Y-116387500D03*
%TO.P,U701,17,PA27*%
%TO.N,/HMI Controller/POW_SW*%
X98000000Y-116387500D03*
%TO.P,U701,18,PA28/~{RST}*%
%TO.N,/HMI Controller/~{RST}*%
X98500000Y-116387500D03*
D49*
%TO.P,U701,19,PA30/SWCLK*%
%TO.N,/HMI Controller/SWCLK*%
X99187500Y-115700000D03*
%TO.P,U701,20,PA31/SWDIO*%
%TO.N,/HMI Controller/SWDIO*%
X99187500Y-115200000D03*
%TO.P,U701,21,PA24*%
%TO.N,/ESP32 Microcontroller/HMI_INT*%
X99187500Y-114700000D03*
%TO.P,U701,22,PA25*%
%TO.N,/ESP32 Microcontroller/HMI_WAKE*%
X99187500Y-114200000D03*
%TO.P,U701,23,GND*%
%TO.N,GND*%
X99187500Y-113700000D03*
%TO.P,U701,24,VDD*%
%TO.N,+3.3V*%
X99187500Y-113200000D03*
D35*
%TO.P,U701,25,GND*%
%TO.N,GND*%
X98300000Y-113400000D03*
X97250000Y-113400000D03*
X96200000Y-113400000D03*
X98300000Y-114450000D03*
X97250000Y-114450000D03*
D50*
X97250000Y-114450000D03*
D35*
X96200000Y-114450000D03*
X98300000Y-115500000D03*
X97250000Y-115500000D03*
X96200000Y-115500000D03*
%TD*%
D16*
%TO.P,S911,*%
%TO.N,*%
X150250000Y-126500000D03*
D12*
X150912500Y-130587742D03*
D16*
X150250000Y-133000000D03*
D17*
%TO.P,S911,1,VDD*%
%TO.N,+5V*%
X159150000Y-129000000D03*
%TO.P,S911,2,DO*%
%TO.N,Net-(S911B-DO)*%
X159150000Y-130500000D03*
D18*
%TO.P,S911,3,GND*%
%TO.N,GND*%
X153850000Y-130500000D03*
D17*
%TO.P,S911,4,DI*%
%TO.N,Net-(S910B-DO)*%
X153850000Y-129000000D03*
D16*
%TO.P,S911,5*%
%TO.N,/HMI Controller/ROW_C*%
X154750000Y-126500000D03*
X154750000Y-133000000D03*
D12*
%TO.P,S911,6*%
%TO.N,GND*%
X150912500Y-128937742D03*
%TD*%
%TO.P,R408,1*%
%TO.N,/ESP32 Microcontroller/SD_DAT0*%
X135750000Y-105425000D03*
%TO.P,R408,2*%
%TO.N,+3.3V*%
X135750000Y-107075000D03*
%TD*%
D16*
%TO.P,S909,*%
%TO.N,*%
X106250000Y-126500000D03*
D12*
X106912500Y-130587742D03*
D16*
X106250000Y-133000000D03*
D17*
%TO.P,S909,1,VDD*%
%TO.N,+5V*%
X115150000Y-129000000D03*
%TO.P,S909,2,DO*%
%TO.N,Net-(S909B-DO)*%
X115150000Y-130500000D03*
D18*
%TO.P,S909,3,GND*%
%TO.N,GND*%
X109850000Y-130500000D03*
D17*
%TO.P,S909,4,DI*%
%TO.N,Net-(S908B-DO)*%
X109850000Y-129000000D03*
D16*
%TO.P,S909,5*%
%TO.N,/HMI Controller/ROW_C*%
X110750000Y-126500000D03*
X110750000Y-133000000D03*
D12*
%TO.P,S909,6*%
%TO.N,GND*%
X106912500Y-128937742D03*
%TD*%
D51*
%TO.P,J502,1,Pin_1*%
%TO.N,/Audio/SP_N*%
X152900000Y-114600000D03*
D52*
%TO.P,J502,2,Pin_2*%
%TO.N,/Audio/SP_P*%
X152900000Y-116100000D03*
%TD*%
D16*
%TO.P,S901,*%
%TO.N,*%
X106250000Y-51750000D03*
D12*
X106912500Y-55837742D03*
D16*
X106250000Y-58250000D03*
D17*
%TO.P,S901,1,VDD*%
%TO.N,+5V*%
X115150000Y-54250000D03*
%TO.P,S901,2,DO*%
%TO.N,Net-(S901B-DO)*%
X115150000Y-55750000D03*
D18*
%TO.P,S901,3,GND*%
%TO.N,GND*%
X109850000Y-55750000D03*
D17*
%TO.P,S901,4,DI*%
%TO.N,/HMI Controller/RGB_DATA*%
X109850000Y-54250000D03*
D16*
%TO.P,S901,5*%
%TO.N,/HMI Controller/ROW_A*%
X110750000Y-51750000D03*
X110750000Y-58250000D03*
D12*
%TO.P,S901,6*%
%TO.N,GND*%
X106912500Y-54187742D03*
%TD*%
D53*
%TO.P,R419,1*%
%TO.N,/I2C_SDA*%
X157712500Y-106800000D03*
%TO.P,R419,2*%
%TO.N,+3.3V*%
X155887500Y-106800000D03*
%TD*%
D25*
%TO.P,R304,1*%
%TO.N,GND*%
X132325000Y-81750000D03*
%TO.P,R304,2*%
%TO.N,Net-(U301-ILIM)*%
X130675000Y-81750000D03*
%TD*%
D54*
%TO.P,C302,1*%
%TO.N,+BATT*%
X119475000Y-74500000D03*
%TO.P,C302,2*%
%TO.N,GND*%
X116525000Y-74500000D03*
%TD*%
D13*
%TO.P,C401,1*%
%TO.N,+3.3V*%
X150400000Y-86150000D03*
%TO.P,C401,2*%
%TO.N,GND*%
X150400000Y-84250000D03*
%TD*%
D19*
%TO.P,Q601,1,G*%
%TO.N,Net-(Q601-G)*%
X164050000Y-92400000D03*
%TO.P,Q601,2,S*%
%TO.N,GND*%
X165950000Y-92400000D03*
%TO.P,Q601,3,D*%
%TO.N,Net-(Q601-D)*%
X165000000Y-90525000D03*
%TD*%
D55*
%TO.P,D401,1,K*%
%TO.N,GND*%
X144200000Y-103262500D03*
%TO.P,D401,2,A*%
%TO.N,Net-(D401-A)*%
X144200000Y-101387500D03*
%TD*%
D44*
%TO.P,C413,1*%
%TO.N,/ESP32 Microcontroller/RF_ANT*%
X146800000Y-109300000D03*
%TO.P,C413,2*%
%TO.N,GND*%
X148350000Y-109300000D03*
%TD*%
D16*
%TO.P,S912,*%
%TO.N,*%
X172250000Y-126500000D03*
D12*
X172912500Y-130587742D03*
D16*
X172250000Y-133000000D03*
D17*
%TO.P,S912,1,VDD*%
%TO.N,+5V*%
X181150000Y-129000000D03*
%TO.P,S912,2,DO*%
%TO.N,unconnected-(S912B-DO-Pad2)*%
X181150000Y-130500000D03*
D18*
%TO.P,S912,3,GND*%
%TO.N,GND*%
X175850000Y-130500000D03*
D17*
%TO.P,S912,4,DI*%
%TO.N,Net-(S911B-DO)*%
X175850000Y-129000000D03*
D16*
%TO.P,S912,5*%
%TO.N,/HMI Controller/ROW_C*%
X176750000Y-126500000D03*
X176750000Y-133000000D03*
D12*
%TO.P,S912,6*%
%TO.N,GND*%
X172912500Y-128937742D03*
%TD*%
D20*
%TO.P,C405,1*%
%TO.N,/ESP32 Microcontroller/VDD33A*%
X146850000Y-90125000D03*
%TO.P,C405,2*%
%TO.N,GND*%
X146850000Y-91675000D03*
%TD*%
D25*
%TO.P,R412,1*%
%TO.N,/ESP32 Microcontroller/USB_P*%
X175825000Y-98250000D03*
%TO.P,R412,2*%
%TO.N,/ESP32 Microcontroller/USB_uC_P*%
X174175000Y-98250000D03*
%TD*%
D16*
%TO.P,S908,*%
%TO.N,*%
X79250000Y-112850000D03*
D12*
X79912500Y-116937742D03*
D16*
X79250000Y-119350000D03*
D17*
%TO.P,S908,1,VDD*%
%TO.N,+5V*%
X88150000Y-115350000D03*
%TO.P,S908,2,DO*%
%TO.N,Net-(S908B-DO)*%
X88150000Y-116850000D03*
D18*
%TO.P,S908,3,GND*%
%TO.N,GND*%
X82850000Y-116850000D03*
D17*
%TO.P,S908,4,DI*%
%TO.N,Net-(S907B-DO)*%
X82850000Y-115350000D03*
D16*
%TO.P,S908,5*%
%TO.N,/HMI Controller/ROW_B*%
X83750000Y-112850000D03*
X83750000Y-119350000D03*
D12*
%TO.P,S908,6*%
%TO.N,GND*%
X79912500Y-115287742D03*
%TD*%
D32*
%TO.P,C410,1*%
%TO.N,/ESP32 Microcontroller/USB_P*%
X177500000Y-98275000D03*
%TO.P,C410,2*%
%TO.N,GND*%
X177500000Y-96725000D03*
%TD*%
D47*
%TO.P,C204,1*%
%TO.N,+5V*%
X135000000Y-93975000D03*
%TO.P,C204,2*%
%TO.N,GND*%
X135000000Y-91025000D03*
%TD*%
D12*
%TO.P,R501,1*%
%TO.N,GND*%
X173750000Y-107225000D03*
%TO.P,R501,2*%
%TO.N,Net-(J501-T)*%
X173750000Y-108875000D03*
%TD*%
D56*
%TO.P,SW401,1,A*%
%TO.N,GND*%
X187450000Y-74400000D03*
X187350000Y-68800000D03*
%TO.P,SW401,2,B*%
%TO.N,/ESP32 Microcontroller/CHIP_EN*%
X189050000Y-74400000D03*
X189050000Y-68800000D03*
%TD*%
D57*
%TO.P,J602,1,XL*%
%TO.N,unconnected-(J602-XL-Pad1)*%
X160125000Y-80250000D03*
%TO.P,J602,2,YU*%
%TO.N,unconnected-(J602-YU-Pad2)*%
X160125000Y-80750000D03*
%TO.P,J602,3,XR*%
%TO.N,unconnected-(J602-XR-Pad3)*%
X160125000Y-81250000D03*
%TO.P,J602,4,YD*%
%TO.N,unconnected-(J602-YD-Pad4)*%
X160125000Y-81750000D03*
%TO.P,J602,5,GND*%
%TO.N,GND*%
X160125000Y-82250000D03*
%TO.P,J602,6,VCC*%
%TO.N,+3.3V*%
X160125000Y-82750000D03*
%TO.P,J602,7,VCC*%
X160125000Y-83250000D03*
%TO.P,J602,8,FMARK*%
%TO.N,unconnected-(J602-FMARK-Pad8)*%
X160125000Y-83750000D03*
%TO.P,J602,9,CS*%
%TO.N,/Display Connectors/DISP_CS*%
X160125000Y-84250000D03*
%TO.P,J602,10,RS/SPI_A0*%
%TO.N,/Display Connectors/DISP_DC*%
X160125000Y-84750000D03*
%TO.P,J602,11,WR/SPI_SCL*%
%TO.N,/Display Connectors/DISP_SCL*%
X160125000Y-85250000D03*
%TO.P,J602,12,RD*%
%TO.N,unconnected-(J602-RD-Pad12)*%
X160125000Y-85750000D03*
%TO.P,J602,13,SDA*%
%TO.N,/Display Connectors/DISP_SDA*%
X160125000Y-86250000D03*
%TO.P,J602,14,SDO*%
%TO.N,unconnected-(J602-SDO-Pad14)*%
X160125000Y-86750000D03*
%TO.P,J602,15,RST*%
%TO.N,/Display Connectors/DISP_RST*%
X160125000Y-87250000D03*
%TO.P,J602,16,GND*%
%TO.N,GND*%
X160125000Y-87750000D03*
%TO.P,J602,17,DB0*%
%TO.N,unconnected-(J602-DB0-Pad17)*%
X160125000Y-88250000D03*
%TO.P,J602,18,DB1*%
%TO.N,unconnected-(J602-DB1-Pad18)*%
X160125000Y-88750000D03*
%TO.P,J602,19,DB2*%
%TO.N,unconnected-(J602-DB2-Pad19)*%
X160125000Y-89250000D03*
%TO.P,J602,20,DB3*%
%TO.N,unconnected-(J602-DB3-Pad20)*%
X160125000Y-89750000D03*
%TO.P,J602,21,DB4*%
%TO.N,unconnected-(J602-DB4-Pad21)*%
X160125000Y-90250000D03*
%TO.P,J602,22,DB5*%
%TO.N,unconnected-(J602-DB5-Pad22)*%
X160125000Y-90750000D03*
%TO.P,J602,23,DB6*%
%TO.N,unconnected-(J602-DB6-Pad23)*%
X160125000Y-91250000D03*
%TO.P,J602,24,DB7*%
%TO.N,unconnected-(J602-DB7-Pad24)*%
X160125000Y-91750000D03*
%TO.P,J602,25,DB8*%
%TO.N,unconnected-(J602-DB8-Pad25)*%
X160125000Y-92250000D03*
%TO.P,J602,26,DB9*%
%TO.N,unconnected-(J602-DB9-Pad26)*%
X160125000Y-92750000D03*
%TO.P,J602,27,DB10*%
%TO.N,unconnected-(J602-DB10-Pad27)*%
X160125000Y-93250000D03*
%TO.P,J602,28,DB11*%
%TO.N,unconnected-(J602-DB11-Pad28)*%
X160125000Y-93750000D03*
%TO.P,J602,29,DB12*%
%TO.N,unconnected-(J602-DB12-Pad29)*%
X160125000Y-94250000D03*
%TO.P,J602,30,DB13*%
%TO.N,unconnected-(J602-DB13-Pad30)*%
X160125000Y-94750000D03*
%TO.P,J602,31,DB14*%
%TO.N,unconnected-(J602-DB14-Pad31)*%
X160125000Y-95250000D03*
%TO.P,J602,32,DB15*%
%TO.N,unconnected-(J602-DB15-Pad32)*%
X160125000Y-95750000D03*
%TO.P,J602,33,LED_A*%
%TO.N,+3.3V*%
X160125000Y-96250000D03*
%TO.P,J602,34,LED_K1*%
%TO.N,/Display Connectors/LED_K*%
X160125000Y-96750000D03*
%TO.P,J602,35,LED_K2*%
X160125000Y-97250000D03*
%TO.P,J602,36,LED_K3*%
X160125000Y-97750000D03*
%TO.P,J602,37,GND*%
%TO.N,GND*%
X160125000Y-98250000D03*
%TO.P,J602,38,IM0*%
%TO.N,+3.3V*%
X160125000Y-98750000D03*
%TO.P,J602,39,IM1*%
X160125000Y-99250000D03*
%TO.P,J602,40,EM2*%
X160125000Y-99750000D03*
D58*
%TO.P,J602,MP,MP*%
%TO.N,unconnected-(J602-PadMP)_1*%
X157775000Y-79250000D03*
%TO.N,unconnected-(J602-PadMP)*%
X157775000Y-100750000D03*
%TD*%
D59*
%TO.P,J402,1,Pin_1*%
%TO.N,GND*%
X170690000Y-76000000D03*
D60*
%TO.P,J402,2,Pin_2*%
%TO.N,+3.3V*%
X173230000Y-75873000D03*
%TO.P,J402,3,Pin_3*%
%TO.N,/I2C_SDA*%
X175770000Y-76127000D03*
%TO.P,J402,4,Pin_4*%
%TO.N,/I2C_SCL*%
X178310000Y-76000000D03*
%TD*%
D47*
%TO.P,C205,1*%
%TO.N,+3.3V*%
X127000000Y-98875000D03*
%TO.P,C205,2*%
%TO.N,GND*%
X127000000Y-95925000D03*
%TD*%
D12*
%TO.P,R502,1*%
%TO.N,Net-(J501-R1)*%
X181500000Y-116175000D03*
%TO.P,R502,2*%
%TO.N,GND*%
X181500000Y-117825000D03*
%TD*%
D16*
%TO.P,S905,*%
%TO.N,*%
X79250000Y-70250000D03*
D12*
X79912500Y-74337742D03*
D16*
X79250000Y-76750000D03*
D17*
%TO.P,S905,1,VDD*%
%TO.N,+5V*%
X88150000Y-72750000D03*
%TO.P,S905,2,DO*%
%TO.N,Net-(S905B-DO)*%
X88150000Y-74250000D03*
D18*
%TO.P,S905,3,GND*%
%TO.N,GND*%
X82850000Y-74250000D03*
D17*
%TO.P,S905,4,DI*%
%TO.N,Net-(S904B-DO)*%
X82850000Y-72750000D03*
D16*
%TO.P,S905,5*%
%TO.N,/HMI Controller/ROW_B*%
X83750000Y-70250000D03*
X83750000Y-76750000D03*
D12*
%TO.P,S905,6*%
%TO.N,GND*%
X79912500Y-72687742D03*
%TD*%
D61*
%TO.P,U301,1,TS*%
%TO.N,/Battery/BATT_TS*%
X121400000Y-78062500D03*
%TO.P,U301,2,BAT*%
%TO.N,+BATT*%
X120900000Y-78062500D03*
%TO.P,U301,3,BAT*%
X120400000Y-78062500D03*
%TO.P,U301,4,~{CE}*%
%TO.N,GND*%
X119900000Y-78062500D03*
D62*
%TO.P,U301,5,EN2*%
X119212500Y-78750000D03*
%TO.P,U301,6,EN1*%
%TO.N,+5V*%
X119212500Y-79250000D03*
%TO.P,U301,7,~{PGOOD}*%
%TO.N,/Battery/PWR_GOOD*%
X119212500Y-79750000D03*
%TO.P,U301,8,VSS*%
%TO.N,GND*%
X119212500Y-80250000D03*
D61*
%TO.P,U301,9,~{CHG}*%
%TO.N,/Battery/PWR_CHRG*%
X119900000Y-80937500D03*
%TO.P,U301,10,OUT*%
%TO.N,+5V*%
X120400000Y-80937500D03*
%TO.P,U301,11,OUT*%
X120900000Y-80937500D03*
%TO.P,U301,12,ILIM*%
%TO.N,Net-(U301-ILIM)*%
X121400000Y-80937500D03*
D62*
%TO.P,U301,13,IN*%
%TO.N,/Battery/Vusb*%
X122087500Y-80250000D03*
%TO.P,U301,14,TMR*%
%TO.N,Net-(U301-TMR)*%
X122087500Y-79750000D03*
%TO.P,U301,15,ITERM*%
%TO.N,Net-(U301-ITERM)*%
X122087500Y-79250000D03*
%TO.P,U301,16,ISET*%
%TO.N,Net-(U301-ISET)*%
X122087500Y-78750000D03*
D35*
%TO.P,U301,17,VSS*%
%TO.N,GND*%
X121200000Y-78950000D03*
X120100000Y-78950000D03*
D63*
X120650000Y-79500000D03*
D35*
X121200000Y-80050000D03*
X120100000Y-80050000D03*
%TD*%
D47*
%TO.P,C203,1*%
%TO.N,+5V*%
X127000000Y-93975000D03*
%TO.P,C203,2*%
%TO.N,GND*%
X127000000Y-91025000D03*
%TD*%
D25*
%TO.P,R302,1*%
%TO.N,GND*%
X127825000Y-73000000D03*
%TO.P,R302,2*%
%TO.N,/Battery/BATT_TS*%
X126175000Y-73000000D03*
%TD*%
D64*
%TO.P,U201,1,PGND*%
%TO.N,GND*%
X131900000Y-94125000D03*
%TO.P,U201,2,VIN*%
%TO.N,+5V*%
X131900000Y-93475000D03*
%TO.P,U201,3,SW*%
%TO.N,/Power/SW*%
X131900000Y-92875000D03*
%TO.P,U201,4,BOOT*%
%TO.N,Net-(U201-BOOT)*%
X131900000Y-92350000D03*
D65*
%TO.P,U201,5,VCC*%
%TO.N,/Power/VCC*%
X131500000Y-91600000D03*
%TO.P,U201,6,AGND*%
%TO.N,GND*%
X131000000Y-91600000D03*
%TO.P,U201,7,FB*%
%TO.N,/Power/FB*%
X130500000Y-91600000D03*
D64*
%TO.P,U201,8,PG*%
%TO.N,/Power/PWR_REG_GOOD*%
X130100000Y-92350000D03*
%TO.P,U201,9,EN*%
%TO.N,+5V*%
X130100000Y-92875000D03*
%TO.P,U201,10,VIN*%
X130100000Y-93475000D03*
%TO.P,U201,11,PGND*%
%TO.N,GND*%
X130100000Y-94125000D03*
D66*
%TO.P,U201,12,SW*%
%TO.N,/Power/SW*%
X131000000Y-93788000D03*
%TD*%
D20*
%TO.P,C510,1*%
%TO.N,Net-(U501-RMICN)*%
X169750000Y-111275000D03*
%TO.P,C510,2*%
%TO.N,/Audio/Mic_HS_N*%
X169750000Y-112825000D03*
%TD*%
D12*
%TO.P,R503,1*%
%TO.N,/Audio/R_HS_N*%
X171250000Y-111225000D03*
%TO.P,R503,2*%
%TO.N,+3.3V*%
X171250000Y-112875000D03*
%TD*%
D67*
%TO.P,JP401,1,A*%
%TO.N,Net-(AE401-A)*%
X146320000Y-113050000D03*
D68*
%TO.P,JP401,2,C*%
%TO.N,/ESP32 Microcontroller/RF_ANT*%
X146320000Y-111450000D03*
D69*
%TO.P,JP401,3,B*%
%TO.N,Net-(J405-In)*%
X144720000Y-111450000D03*
%TD*%
D25*
%TO.P,R301,1*%
%TO.N,GND*%
X132325000Y-78750000D03*
%TO.P,R301,2*%
%TO.N,Net-(U301-ITERM)*%
X130675000Y-78750000D03*
%TD*%
D40*
%TO.P,R803,1*%
%TO.N,/Nav Switch/Nav_Up_VD*%
X94875000Y-99100000D03*
%TO.P,R803,2*%
%TO.N,/HMI Controller/NAV_DIR*%
X96525000Y-99100000D03*
%TD*%
D29*
%TO.P,R402,1*%
%TO.N,Net-(D401-A)*%
X144400000Y-99950000D03*
%TO.P,R402,2*%
%TO.N,/ESP32 Microcontroller/STATUS_LED*%
X144400000Y-98300000D03*
%TD*%
D59*
%TO.P,J1001,1,Pin_1*%
%TO.N,GND*%
X94873000Y-70780000D03*
D60*
%TO.P,J1001,2,Pin_2*%
%TO.N,/HMI Controller/VFO_A*%
X95000000Y-73320000D03*
%TO.P,J1001,3,Pin_3*%
%TO.N,/HMI Controller/VFO_B*%
X94746000Y-75860000D03*
%TO.P,J1001,4,Pin_4*%
%TO.N,/HMI Controller/VFO_ADJ_A*%
X95000000Y-78400000D03*
%TO.P,J1001,5,Pin_5*%
%TO.N,/HMI Controller/VFO_ADJ_B*%
X94746000Y-80940000D03*
%TO.P,J1001,6,Pin_6*%
%TO.N,/HMI Controller/VFO_SW*%
X94873000Y-83480000D03*
%TD*%
D29*
%TO.P,R409,1*%
%TO.N,+3.3V*%
X139500000Y-110575000D03*
%TO.P,R409,2*%
%TO.N,/ESP32 Microcontroller/SD_CMD*%
X139500000Y-108925000D03*
%TD*%
D20*
%TO.P,C703,1*%
%TO.N,+3.3V*%
X103400000Y-113025000D03*
%TO.P,C703,2*%
%TO.N,GND*%
X103400000Y-114575000D03*
%TD*%
D70*
%TO.P,FB501,1*%
%TO.N,+5V*%
X156337500Y-117250000D03*
%TO.P,FB501,2*%
%TO.N,/Audio/VDDSPK*%
X158162500Y-117250000D03*
%TD*%
D71*
%TO.P,R702,1*%
%TO.N,+5V*%
X102100000Y-98700000D03*
%TO.P,R702,2*%
%TO.N,/HMI Controller/RGB_DATA*%
X104100000Y-98700000D03*
%TD*%
D72*
%TO.P,C507,1*%
%TO.N,Net-(U501-LMICP)*%
X169275000Y-124000000D03*
%TO.P,C507,2*%
%TO.N,/Audio/Mic_P*%
X167725000Y-124000000D03*
%TD*%
D13*
%TO.P,C502,1*%
%TO.N,+3.3V*%
X166000000Y-106200000D03*
%TO.P,C502,2*%
%TO.N,GND*%
X166000000Y-104300000D03*
%TD*%
D73*
%TO.P,U403,1,CH1*%
%TO.N,/ESP32 Microcontroller/USB_N*%
X180525000Y-100500000D03*
%TO.P,U403,2,CH2*%
%TO.N,unconnected-(U403-CH2-Pad2)*%
X180525000Y-100000000D03*
%TO.P,U403,3,GND*%
%TO.N,GND*%
X180525000Y-99500000D03*
%TO.P,U403,4,CH3*%
%TO.N,unconnected-(U403-CH3-Pad4)*%
X180525000Y-99000000D03*
%TO.P,U403,5,CH4*%
%TO.N,/ESP32 Microcontroller/USB_P*%
X180525000Y-98500000D03*
%TO.P,U403,6,nc*%
%TO.N,unconnected-(U403-nc-Pad6)*%
X179750000Y-98500000D03*
%TO.P,U403,7,nc*%
%TO.N,unconnected-(U403-nc-Pad7)*%
X179750000Y-99000000D03*
%TO.P,U403,8,GND*%
%TO.N,GND*%
X179750000Y-99500000D03*
%TO.P,U403,9,nc*%
%TO.N,unconnected-(U403-nc-Pad9)*%
X179750000Y-100000000D03*
%TO.P,U403,10,nc*%
%TO.N,unconnected-(U403-nc-Pad10)*%
X179750000Y-100500000D03*
%TD*%
D44*
%TO.P,C411,1*%
%TO.N,GND*%
X133475000Y-111250000D03*
%TO.P,C411,2*%
%TO.N,+3.3V*%
X135025000Y-111250000D03*
%TD*%
D25*
%TO.P,R306,1*%
%TO.N,+3.3V*%
X133325000Y-85250000D03*
%TO.P,R306,2*%
%TO.N,/Battery/PWR_GOOD*%
X131675000Y-85250000D03*
%TD*%
D47*
%TO.P,C202,1*%
%TO.N,+5V*%
X123000000Y-93975000D03*
%TO.P,C202,2*%
%TO.N,GND*%
X123000000Y-91025000D03*
%TD*%
D40*
%TO.P,R414,1*%
%TO.N,Net-(J403-CC1)*%
X183925000Y-105750000D03*
%TO.P,R414,2*%
%TO.N,GND*%
X185575000Y-105750000D03*
%TD*%
D74*
%TO.P,C504,1*%
%TO.N,+3.3V*%
X161750000Y-115600000D03*
%TO.P,C504,2*%
%TO.N,GND*%
X161750000Y-117500000D03*
%TD*%
D32*
%TO.P,C415,1*%
%TO.N,/ESP32 Microcontroller/XTAL_N*%
X142250000Y-94375000D03*
%TO.P,C415,2*%
%TO.N,GND*%
X142250000Y-92825000D03*
%TD*%
D59*
%TO.P,J801,1,Pin_1*%
%TO.N,GND*%
X91927000Y-93860000D03*
D60*
%TO.P,J801,2,Pin_2*%
%TO.N,/Nav Switch/Nav_Up_VD*%
X92054000Y-96400000D03*
%TO.P,J801,3,Pin_3*%
%TO.N,/Nav Switch/Nav_Down_VD*%
X91800000Y-98940000D03*
%TO.P,J801,4,Pin_4*%
%TO.N,/Nav Switch/Nav_Left_VD*%
X92054000Y-101480000D03*
%TO.P,J801,5,Pin_5*%
%TO.N,/Nav Switch/Nav_Right_VD*%
X91800000Y-104020000D03*
%TO.P,J801,6,Pin_6*%
%TO.N,GND*%
X92054000Y-106560000D03*
%TO.P,J801,7,Pin_7*%
X91800000Y-109100000D03*
%TO.P,J801,8,Pin_8*%
%TO.N,/HMI Controller/NAV_A*%
X92054000Y-111640000D03*
%TO.P,J801,9,Pin_9*%
%TO.N,/HMI Controller/NAV_B*%
X91800000Y-114180000D03*
%TO.P,J801,10,Pin_10*%
%TO.N,/HMI Controller/NAV_SW*%
X91927000Y-116720000D03*
%TD*%
D74*
%TO.P,C511,1*%
%TO.N,/Audio/Mic_HS_N*%
X164750000Y-115600000D03*
%TO.P,C511,2*%
%TO.N,GND*%
X164750000Y-117500000D03*
%TD*%
D75*
%TO.P,R602,1*%
%TO.N,/Display Connectors/DISP_BL*%
X164250000Y-96375000D03*
%TO.P,R602,2*%
%TO.N,Net-(Q601-G)*%
X164250000Y-94550000D03*
%TD*%
D25*
%TO.P,R417,1*%
%TO.N,+3.3V*%
X135075000Y-109750000D03*
%TO.P,R417,2*%
%TO.N,Net-(J404-VDD)*%
X133425000Y-109750000D03*
%TD*%
D76*
%TO.P,J405,1,In*%
%TO.N,Net-(J405-In)*%
X142500000Y-113100000D03*
D77*
%TO.P,J405,2,Ext*%
%TO.N,GND*%
X143975000Y-114600000D03*
D76*
X142500000Y-116100000D03*
D77*
X141025000Y-114600000D03*
%TD*%
D13*
%TO.P,C503,1*%
%TO.N,+3.3V*%
X162000000Y-106000000D03*
%TO.P,C503,2*%
%TO.N,GND*%
X162000000Y-104100000D03*
%TD*%
D44*
%TO.P,C412,1*%
%TO.N,/ESP32 Microcontroller/RF*%
X146800000Y-104600000D03*
%TO.P,C412,2*%
%TO.N,GND*%
X148350000Y-104600000D03*
%TD*%
D25*
%TO.P,R305,1*%
%TO.N,GND*%
X132325000Y-77250000D03*
%TO.P,R305,2*%
%TO.N,Net-(U301-ISET)*%
X130675000Y-77250000D03*
%TD*%
D78*
%TO.P,AE401,1,A*%
%TO.N,Net-(AE401-A)*%
X146275000Y-117400000D03*
%TO.P,AE401,2,GND*%
%TO.N,GND*%
X147125000Y-117400000D03*
D79*
X146700000Y-118800000D03*
%TD*%
D74*
%TO.P,C207,1*%
%TO.N,+3.3V*%
X124500000Y-86550000D03*
%TO.P,C207,2*%
%TO.N,/Power/FB*%
X124500000Y-88450000D03*
%TD*%
D16*
%TO.P,S906,*%
%TO.N,*%
X79150000Y-84450000D03*
D12*
X79812500Y-88537742D03*
D16*
X79150000Y-90950000D03*
D17*
%TO.P,S906,1,VDD*%
%TO.N,+5V*%
X88050000Y-86950000D03*
%TO.P,S906,2,DO*%
%TO.N,Net-(S906B-DO)*%
X88050000Y-88450000D03*
D18*
%TO.P,S906,3,GND*%
%TO.N,GND*%
X82750000Y-88450000D03*
D17*
%TO.P,S906,4,DI*%
%TO.N,Net-(S905B-DO)*%
X82750000Y-86950000D03*
D16*
%TO.P,S906,5*%
%TO.N,/HMI Controller/ROW_B*%
X83650000Y-84450000D03*
X83650000Y-90950000D03*
D12*
%TO.P,S906,6*%
%TO.N,GND*%
X79812500Y-86887742D03*
%TD*%
D53*
%TO.P,R420,1*%
%TO.N,/I2C_SCL*%
X157712500Y-104900000D03*
%TO.P,R420,2*%
%TO.N,+3.3V*%
X155887500Y-104900000D03*
%TD*%
D28*
%TO.P,H102,1,1*%
%TO.N,GND*%
X81500000Y-55000000D03*
%TD*%
D80*
%TO.P,J702,1,VTref*%
%TO.N,+3.3V*%
X87210000Y-132350000D03*
%TO.P,J702,2,SWDIO/TMS*%
%TO.N,/HMI Controller/SWDIO*%
X87210000Y-128750000D03*
%TO.P,J702,3,GND*%
%TO.N,GND*%
X88480000Y-132350000D03*
%TO.P,J702,4,SWCLK/TCK*%
%TO.N,/HMI Controller/SWCLK*%
X88480000Y-128750000D03*
%TO.P,J702,5,GND*%
%TO.N,GND*%
X89750000Y-132350000D03*
%TO.P,J702,6,SWO/TDO*%
%TO.N,unconnected-(J702-SWO{slash}TDO-Pad6)*%
X89750000Y-128750000D03*
%TO.P,J702,7,KEY*%
%TO.N,unconnected-(J702-KEY-Pad7)*%
X91020000Y-132350000D03*
%TO.P,J702,8,NC/TDI*%
%TO.N,unconnected-(J702-NC{slash}TDI-Pad8)*%
X91020000Y-128750000D03*
%TO.P,J702,9,GNDDetect*%
%TO.N,GND*%
X92290000Y-132350000D03*
%TO.P,J702,10,~{RESET}*%
%TO.N,/HMI Controller/~{RST}*%
X92290000Y-128750000D03*
%TD*%
D16*
%TO.P,S904,*%
%TO.N,*%
X172250000Y-51750000D03*
D12*
X172912500Y-55837742D03*
D16*
X172250000Y-58250000D03*
D17*
%TO.P,S904,1,VDD*%
%TO.N,+5V*%
X181150000Y-54250000D03*
%TO.P,S904,2,DO*%
%TO.N,Net-(S904B-DO)*%
X181150000Y-55750000D03*
D18*
%TO.P,S904,3,GND*%
%TO.N,GND*%
X175850000Y-55750000D03*
D17*
%TO.P,S904,4,DI*%
%TO.N,Net-(S903B-DO)*%
X175850000Y-54250000D03*
D16*
%TO.P,S904,5*%
%TO.N,/HMI Controller/ROW_A*%
X176750000Y-51750000D03*
X176750000Y-58250000D03*
D12*
%TO.P,S904,6*%
%TO.N,GND*%
X172912500Y-54187742D03*
%TD*%
D20*
%TO.P,C409,1*%
%TO.N,/ESP32 Microcontroller/USB_N*%
X177500000Y-99975000D03*
%TO.P,C409,2*%
%TO.N,GND*%
X177500000Y-101525000D03*
%TD*%
D59*
%TO.P,J401,1,Pin_1*%
%TO.N,GND*%
X154475000Y-110800000D03*
D60*
%TO.P,J401,2,Pin_2*%
%TO.N,/ESP32 Microcontroller/BOOT_MODE*%
X151935000Y-110800000D03*
%TD*%
D81*
%TO.P,J404,1,DAT2*%
%TO.N,/ESP32 Microcontroller/SD_DAT2*%
X129750000Y-113150000D03*
%TO.P,J404,2,DAT3/CD*%
%TO.N,/ESP32 Microcontroller/SD_DAT3*%
X129750000Y-112050000D03*
%TO.P,J404,3,CMD*%
%TO.N,/ESP32 Microcontroller/SD_CMD*%
X129750000Y-110950000D03*
%TO.P,J404,4,VDD*%
%TO.N,Net-(J404-VDD)*%
X129750000Y-109850000D03*
%TO.P,J404,5,CLK*%
%TO.N,/ESP32 Microcontroller/SD_SCK*%
X129750000Y-108750000D03*
%TO.P,J404,6,VSS*%
%TO.N,GND*%
X129750000Y-107650000D03*
%TO.P,J404,7,DAT0*%
%TO.N,/ESP32 Microcontroller/SD_DAT0*%
X129750000Y-106550000D03*
%TO.P,J404,8,DAT1*%
%TO.N,/ESP32 Microcontroller/SD_DAT1*%
X129750000Y-105450000D03*
%TO.P,J404,9,DET_B*%
%TO.N,GND*%
X129750000Y-114250000D03*
%TO.P,J404,10,DET_A*%
%TO.N,/ESP32 Microcontroller/SD_DET*%
X129750000Y-115350000D03*
%TO.P,J404,11,SHIELD*%
%TO.N,GND*%
X122000000Y-117350000D03*
X122000000Y-102850000D03*
%TD*%
D82*
%TO.P,R601,1*%
%TO.N,/Display Connectors/LED_K*%
X165000000Y-86800000D03*
%TO.P,R601,2*%
%TO.N,Net-(Q601-D)*%
X165000000Y-88625000D03*
%TD*%
D47*
%TO.P,C303,1*%
%TO.N,+5V*%
X119000000Y-93975000D03*
%TO.P,C303,2*%
%TO.N,GND*%
X119000000Y-91025000D03*
%TD*%
%TO.P,C206,1*%
%TO.N,+3.3V*%
X135000000Y-98975000D03*
%TO.P,C206,2*%
%TO.N,GND*%
X135000000Y-96025000D03*
%TD*%
D25*
%TO.P,R416,1*%
%TO.N,Net-(J403-CC2)*%
X184400000Y-93500000D03*
%TO.P,R416,2*%
%TO.N,GND*%
X182750000Y-93500000D03*
%TD*%
D12*
%TO.P,R410,1*%
%TO.N,/ESP32 Microcontroller/SD_DAT1*%
X134000000Y-105425000D03*
%TO.P,R410,2*%
%TO.N,+3.3V*%
X134000000Y-107075000D03*
%TD*%
D83*
%TO.P,Y401,1,1*%
%TO.N,Net-(C414-Pad1)*%
X145200000Y-92875000D03*
%TO.P,Y401,2,2*%
%TO.N,GND*%
X143800000Y-92875000D03*
%TO.P,Y401,3,3*%
%TO.N,/ESP32 Microcontroller/XTAL_N*%
X143800000Y-93975000D03*
%TO.P,Y401,4,4*%
%TO.N,GND*%
X145200000Y-93975000D03*
%TD*%
D20*
%TO.P,C403,1*%
%TO.N,+3.3V*%
X141500000Y-89825000D03*
%TO.P,C403,2*%
%TO.N,GND*%
X141500000Y-91375000D03*
%TD*%
D84*
%TO.P,R701,1*%
%TO.N,/HMI Controller/RGB_DATA_3.3*%
X104100000Y-104700000D03*
%TO.P,R701,2*%
%TO.N,+3.3V*%
X102100000Y-104700000D03*
%TD*%
D85*
%TO.P,C505,1*%
%TO.N,/Audio/VDDSPK*%
X158200000Y-115250000D03*
%TO.P,C505,2*%
%TO.N,GNDA*%
X156300000Y-115250000D03*
%TD*%
D20*
%TO.P,C509,1*%
%TO.N,Net-(U501-RMICP)*%
X168250000Y-115775000D03*
%TO.P,C509,2*%
%TO.N,/Audio/Mic_HS*%
X168250000Y-117325000D03*
%TD*%
D28*
%TO.P,H104,1,1*%
%TO.N,GND*%
X81500000Y-135000000D03*
%TD*%
D12*
%TO.P,R413,1*%
%TO.N,/ESP32 Microcontroller/SD_DAT2*%
X143000000Y-108925000D03*
%TO.P,R413,2*%
%TO.N,+3.3V*%
X143000000Y-110575000D03*
%TD*%
D86*
%TO.P,J501,1,S*%
%TO.N,/Audio/Mic_HS*%
X188550000Y-108850000D03*
D87*
%TO.P,J501,2,T*%
%TO.N,Net-(J501-T)*%
X176450000Y-108850000D03*
D88*
%TO.P,J501,3,R1*%
%TO.N,Net-(J501-R1)*%
X183950000Y-116250000D03*
%TO.P,J501,4,R2*%
%TO.N,GND*%
X185750000Y-108850000D03*
D86*
%TO.P,J501,6,R1N*%
%TO.N,/Audio/R_HS_N*%
X186750000Y-116250000D03*
%TD*%
D20*
%TO.P,C414,1*%
%TO.N,Net-(C414-Pad1)*%
X146800000Y-93200000D03*
%TO.P,C414,2*%
%TO.N,GND*%
X146800000Y-94750000D03*
%TD*%
%TO.P,C508,1*%
%TO.N,Net-(U501-LMICN)*%
X171900000Y-116325000D03*
%TO.P,C508,2*%
%TO.N,/Audio/Mic_HS_N*%
X171900000Y-117875000D03*
%TD*%
D89*
%TO.P,C501,1*%
%TO.N,/Audio/L_HS*%
X168300000Y-108550000D03*
%TO.P,C501,2*%
%TO.N,Net-(J501-T)*%
X171250000Y-108550000D03*
%TD*%
D12*
%TO.P,R418,1*%
%TO.N,/ESP32 Microcontroller/XTAL_P*%
X145300000Y-89825000D03*
%TO.P,R418,2*%
%TO.N,Net-(C414-Pad1)*%
X145300000Y-91475000D03*
%TD*%
D30*
%TO.P,J603,1,GND*%
%TO.N,GND*%
X176375000Y-89750000D03*
%TO.P,J603,2,LED_K*%
%TO.N,/Display Connectors/LED_K*%
X176375000Y-89250000D03*
%TO.P,J603,3,LED_A*%
%TO.N,+3.3V*%
X176375000Y-88750000D03*
%TO.P,J603,4,VDD_IO*%
X176375000Y-88250000D03*
%TO.P,J603,5,GND*%
%TO.N,GND*%
X176375000Y-87750000D03*
%TO.P,J603,6,GND*%
X176375000Y-87250000D03*
%TO.P,J603,7,D_C*%
%TO.N,/Display Connectors/DISP_DC*%
X176375000Y-86750000D03*
%TO.P,J603,8,CS*%
%TO.N,/Display Connectors/DISP_CS*%
X176375000Y-86250000D03*
%TO.P,J603,9,SCL*%
%TO.N,/Display Connectors/DISP_SCL*%
X176375000Y-85750000D03*
%TO.P,J603,10,SDA*%
%TO.N,/Display Connectors/DISP_SDA*%
X176375000Y-85250000D03*
%TO.P,J603,11,RST*%
%TO.N,/Display Connectors/DISP_RST*%
X176375000Y-84750000D03*
%TO.P,J603,12,GND*%
%TO.N,GND*%
X176375000Y-84250000D03*
D31*
%TO.P,J603,MP,MP*%
%TO.N,unconnected-(J603-PadMP)_1*%
X178725000Y-90750000D03*
%TO.N,unconnected-(J603-PadMP)*%
X178725000Y-83250000D03*
%TD*%
D90*
%TO.P,J403,A1,GND*%
%TO.N,GND*%
X183890000Y-102650000D03*
%TO.P,J403,A4,VBUS*%
%TO.N,/Battery/Vusb*%
X183890000Y-101800000D03*
%TO.P,J403,A5,CC1*%
%TO.N,Net-(J403-CC1)*%
X183890000Y-100950000D03*
%TO.P,J403,A6,D+*%
%TO.N,/ESP32 Microcontroller/USB_P*%
X183890000Y-100100000D03*
%TO.P,J403,A7,D-*%
%TO.N,/ESP32 Microcontroller/USB_N*%
X183890000Y-99250000D03*
%TO.P,J403,A8,SBU1*%
%TO.N,unconnected-(J403-SBU1-PadA8)*%
X183890000Y-98400000D03*
%TO.P,J403,A9,VBUS*%
%TO.N,/Battery/Vusb*%
X183890000Y-97550000D03*
%TO.P,J403,A12,GND*%
%TO.N,GND*%
X183890000Y-96700000D03*
%TO.P,J403,B1,GND*%
X185240000Y-96700000D03*
%TO.P,J403,B4,VBUS*%
%TO.N,/Battery/Vusb*%
X185240000Y-97550000D03*
%TO.P,J403,B5,CC2*%
%TO.N,Net-(J403-CC2)*%
X185240000Y-98400000D03*
%TO.P,J403,B6,D+*%
%TO.N,/ESP32 Microcontroller/USB_P*%
X185240000Y-99250000D03*
%TO.P,J403,B7,D-*%
%TO.N,/ESP32 Microcontroller/USB_N*%
X185240000Y-100100000D03*
%TO.P,J403,B8,SBU2*%
%TO.N,unconnected-(J403-SBU2-PadB8)*%
X185240000Y-100950000D03*
%TO.P,J403,B9,VBUS*%
%TO.N,/Battery/Vusb*%
X185240000Y-101800000D03*
%TO.P,J403,B12,GND*%
%TO.N,GND*%
X185240000Y-102650000D03*
D91*
%TO.P,J403,S1,SHIELD*%
%TO.N,unconnected-(J403-SHIELD-PadS1)*%
X184870000Y-104000000D03*
D92*
%TO.N,unconnected-(J403-SHIELD-PadS1)_1*%
X188250000Y-104000000D03*
D91*
%TO.N,unconnected-(J403-SHIELD-PadS1)_2*%
X184870000Y-95350000D03*
D92*
%TO.N,unconnected-(J403-SHIELD-PadS1)_3*%
X188250000Y-95350000D03*
%TD*%
D13*
%TO.P,C407,1*%
%TO.N,/ESP32 Microcontroller/CHIP_EN*%
X184675000Y-91725000D03*
%TO.P,C407,2*%
%TO.N,GND*%
X184675000Y-89825000D03*
%TD*%
D93*
%TO.P,L201,1*%
%TO.N,/Power/SW*%
X131000000Y-96100000D03*
%TO.P,L201,2*%
%TO.N,+3.3V*%
X131000000Y-98900000D03*
%TD*%
D28*
%TO.P,H103,1,1*%
%TO.N,GND*%
X189900000Y-135000000D03*
%TD*%
D94*
%TO.N,GND*%
X132325000Y-78000000D03*
X176400000Y-101600000D03*
X78900000Y-115500000D03*
X144200000Y-102425000D03*
X186000000Y-75000000D03*
X177825000Y-88300000D03*
X177700000Y-84350000D03*
X127000000Y-77000000D03*
X90000000Y-131000000D03*
X171900000Y-128400000D03*
X131200000Y-114200000D03*
X121600000Y-91400000D03*
X105900000Y-128900000D03*
X89000000Y-131000000D03*
X103300000Y-115600000D03*
X161378640Y-82035919D03*
X98600000Y-111100000D03*
X142500000Y-117900000D03*
X152800000Y-57000000D03*
X141290000Y-92330000D03*
X185000000Y-88500000D03*
X180500000Y-118000000D03*
X185800000Y-68200000D03*
X150600000Y-83350000D03*
X174750000Y-107000000D03*
X143300000Y-74400000D03*
X78900000Y-100700000D03*
X159100000Y-98300000D03*
X161750000Y-118500000D03*
X141360000Y-93120000D03*
X95400000Y-118700000D03*
X131100000Y-131500000D03*
X108700000Y-131900000D03*
X129000000Y-73000000D03*
X121600000Y-90600000D03*
X146700000Y-92250000D03*
X125600000Y-90600000D03*
X144950000Y-95500000D03*
X162000000Y-105000000D03*
X82000000Y-103700000D03*
X181500000Y-93750000D03*
X133800000Y-96000000D03*
X171700000Y-53800000D03*
X186750000Y-105750000D03*
X125600000Y-95800000D03*
X163250000Y-117500000D03*
X181250000Y-99575000D03*
X128900000Y-86200000D03*
X82300000Y-118000000D03*
X103100000Y-108800000D03*
X185500000Y-106750000D03*
X131200000Y-107600000D03*
X94000000Y-118700000D03*
X90750000Y-134750000D03*
X145400000Y-118800000D03*
X179000000Y-99575000D03*
X120400000Y-91400000D03*
X165130000Y-92380000D03*
X166000000Y-103250000D03*
X124400000Y-90600000D03*
X86000000Y-138000000D03*
X100500000Y-113800000D03*
X147800000Y-118000000D03*
X174800000Y-131900000D03*
X92000000Y-131000000D03*
X184000000Y-108750000D03*
X121000000Y-90600000D03*
X81900000Y-75300000D03*
X131200000Y-56900000D03*
X117300000Y-98800000D03*
X149700000Y-53600000D03*
X184200000Y-80600000D03*
X152900000Y-131900000D03*
X132325000Y-79500000D03*
X164750000Y-118500000D03*
X121400000Y-103600000D03*
X98600000Y-110000000D03*
X176400000Y-96700000D03*
X109100000Y-56800000D03*
X128200000Y-95800000D03*
X132500000Y-111000000D03*
X174800000Y-56800000D03*
X130400000Y-90500000D03*
X129400000Y-94600000D03*
X124400000Y-91400000D03*
X105800000Y-53800000D03*
X146650000Y-95950000D03*
X145000000Y-114600000D03*
X136400000Y-96000000D03*
X101900000Y-115600000D03*
X148400000Y-105900000D03*
X162000000Y-88250000D03*
X80500000Y-71900000D03*
X177450000Y-90100000D03*
X96400000Y-117900000D03*
X136400000Y-90900000D03*
X127700000Y-128700000D03*
X144400000Y-76700000D03*
X121100000Y-116600000D03*
X82200000Y-89700000D03*
X120400000Y-90600000D03*
X125000000Y-91400000D03*
X148400000Y-110400000D03*
X150100000Y-128300000D03*
X121000000Y-91400000D03*
X125000000Y-90600000D03*
X132325000Y-81000000D03*
X118000000Y-74500000D03*
X139900000Y-114700000D03*
X146100000Y-68600000D03*
X125600000Y-91400000D03*
X178300000Y-87600000D03*
X127800000Y-53600000D03*
X78300000Y-86500000D03*
%TO.N,+3.3V*%
X161400000Y-99300000D03*
X128400000Y-100200000D03*
X154700000Y-105500000D03*
X134500000Y-85250000D03*
X163250000Y-113500000D03*
X163200000Y-115600000D03*
X172500000Y-112750000D03*
X143000000Y-109800000D03*
X161600000Y-82700000D03*
X150475000Y-87150000D03*
X137600000Y-98600000D03*
X148300000Y-101850000D03*
X136800000Y-100200000D03*
X135800000Y-106300000D03*
X119675000Y-98425000D03*
X182500000Y-89000000D03*
X145200000Y-78900000D03*
X136000000Y-109750000D03*
X161400000Y-99900000D03*
X133100000Y-107200000D03*
X125200000Y-98400000D03*
X136250000Y-111250000D03*
X133500000Y-100200000D03*
X160750000Y-106000000D03*
X162000000Y-106750000D03*
X141300000Y-109800000D03*
X166000000Y-107250000D03*
X184200000Y-83500000D03*
X121300000Y-86900000D03*
X154600000Y-106100000D03*
X123600000Y-98400000D03*
X140480000Y-90350000D03*
X161500000Y-83400000D03*
X133500000Y-98600000D03*
X161400000Y-98800000D03*
X143300000Y-75800000D03*
X136800000Y-98600000D03*
X158800000Y-96300000D03*
X137600000Y-100200000D03*
X139500000Y-109800000D03*
X128400000Y-98600000D03*
X123600000Y-100200000D03*
X178450000Y-88850000D03*
X134500000Y-83750000D03*
X152400000Y-77900000D03*
X125200000Y-100200000D03*
D95*
%TO.N,/Battery/Vusb*%
X128800000Y-80800000D03*
D96*
%TO.N,/ESP32 Microcontroller/USB_N*%
X182000000Y-100500000D03*
D94*
%TO.N,/Audio/L_HS*%
X162500000Y-113750000D03*
X167000000Y-109000000D03*
%TO.N,/Audio/R_HS*%
X162186949Y-114376102D03*
X169250000Y-114750000D03*
%TO.N,/ESP32 Microcontroller/BOOT_MODE*%
X145250000Y-106850000D03*
X145900000Y-85900000D03*
%TO.N,/ESP32 Microcontroller/SD_DAT3*%
X141300000Y-107700000D03*
X142600000Y-91300000D03*
%TO.N,/ESP32 Microcontroller/SD_DET*%
X141300000Y-111800000D03*
X143700000Y-90100000D03*
%TO.N,/ESP32 Microcontroller/SD_DAT2*%
X142900000Y-107600000D03*
X143100000Y-90600000D03*
%TO.N,/Display Connectors/DISP_TS_INT*%
X174750000Y-72400000D03*
X143500000Y-79500000D03*
%TO.N,/Display Connectors/DISP_TS_RST*%
X173750000Y-71750000D03*
X143175000Y-80125000D03*
%TO.N,Net-(U501-LMICP)*%
X166299753Y-114439852D03*
X171000000Y-123500000D03*
%TO.N,/Display Connectors/DISP_SDA*%
X158700000Y-83100000D03*
X163800000Y-85800000D03*
X158600000Y-85400000D03*
X165000000Y-84600000D03*
%TO.N,/Display Connectors/DISP_RST*%
X161700000Y-87150000D03*
X165750000Y-82500000D03*
X143000000Y-78200000D03*
%TO.N,/Display Connectors/DISP_CS*%
X167900000Y-84000000D03*
X164000000Y-84000000D03*
%TO.N,/Display Connectors/DISP_DC*%
X168000000Y-85050000D03*
X164100000Y-84700000D03*
%TO.N,/Display Connectors/DISP_SCL*%
X158100000Y-82100000D03*
X158000000Y-84400000D03*
%TO.N,/Battery/PWR_GOOD*%
X117750000Y-81750000D03*
X122000000Y-83250000D03*
%TO.N,/Battery/PWR_CHRG*%
X118750000Y-81750000D03*
X122750000Y-83000000D03*
%TO.N,/ESP32 Microcontroller/STATUS_LED*%
X143900000Y-89000000D03*
X144100000Y-97500000D03*
D96*
%TO.N,/ESP32 Microcontroller/USB_uC_N*%
X174600000Y-95490000D03*
X141500000Y-78890000D03*
%TO.N,/ESP32 Microcontroller/USB_uC_P*%
X141270121Y-79656263D03*
X174906193Y-96229087D03*
D94*
%TO.N,Net-(U501-LMICN)*%
X166900000Y-114800000D03*
X170100000Y-117000000D03*
%TO.N,/Audio/Mic_HS_N*%
X167925000Y-112825000D03*
X173200000Y-118700000D03*
X167500000Y-125600000D03*
X165000000Y-114000000D03*
D95*
%TO.N,+5V*%
X89600000Y-115800000D03*
D94*
X117000000Y-94200000D03*
X135100000Y-94100000D03*
D95*
X116600000Y-92000000D03*
D94*
X119600000Y-83200000D03*
D95*
X149300000Y-117300000D03*
X182900000Y-128600000D03*
X160600000Y-128600000D03*
X87856405Y-85658636D03*
D94*
X118800000Y-84000000D03*
D95*
X182800000Y-53500000D03*
X102200000Y-96800000D03*
X88100000Y-71000000D03*
D94*
X135100000Y-93100000D03*
D95*
X116400000Y-53100000D03*
X109500000Y-92000000D03*
D94*
X124800000Y-93200000D03*
X120400000Y-82600000D03*
X118000000Y-84800000D03*
X121000000Y-94200000D03*
D95*
X138800000Y-53500000D03*
X116600000Y-90000000D03*
X87972193Y-99880790D03*
D94*
X121000000Y-93200000D03*
D95*
X160500000Y-53600000D03*
D94*
X124800000Y-94200000D03*
D95*
X109500000Y-90000000D03*
D94*
X117000000Y-93200000D03*
D95*
X116700000Y-128200000D03*
X139000000Y-128400000D03*
D94*
%TO.N,/ESP32 Microcontroller/HMI_WAKE*%
X128150000Y-117400000D03*
X102000000Y-117000000D03*
%TO.N,/ESP32 Microcontroller/HMI_INT*%
X128700000Y-118000000D03*
X101500000Y-117500000D03*
%TO.N,/ESP32 Microcontroller/SPIFLASH_Q*%
X145300000Y-71100000D03*
X137200000Y-74600000D03*
%TO.N,/Audio/R_HS_N*%
X174250000Y-113500000D03*
X166800000Y-112000000D03*
X168000000Y-112000000D03*
X173250000Y-112250000D03*
%TO.N,/ESP32 Microcontroller/SPIFLASH_CS0*%
X138700000Y-71700000D03*
X144900000Y-71700000D03*
%TO.N,/I2C_SDA*%
X138900000Y-112900000D03*
X100800000Y-123400000D03*
X136400000Y-115400000D03*
X159300000Y-106750000D03*
X98200000Y-123400000D03*
X144600000Y-110000000D03*
X178000000Y-78000000D03*
X145900000Y-83200000D03*
%TO.N,/I2C_SCL*%
X145900000Y-82300000D03*
X105000000Y-122500000D03*
X135300000Y-115400000D03*
X160540000Y-104460000D03*
X99000000Y-122500000D03*
%TO.N,/HMI Controller/ROW_A*%
X99400000Y-105200000D03*
%TO.N,/HMI Controller/VFO_A*%
X93200000Y-117600000D03*
%TO.N,/HMI Controller/SWCLK*%
X87500000Y-125800000D03*
X89000000Y-126000000D03*
X99250000Y-118000000D03*
%TO.N,/HMI Controller/POW_SW*%
X98000000Y-117200000D03*
%TO.N,/HMI Controller/VFO_SW*%
X94500000Y-113400000D03*
%TO.N,/HMI Controller/~{RST}*%
X94000000Y-129000000D03*
X98500000Y-121000000D03*
%TO.N,/HMI Controller/VFO_B*%
X93900000Y-117500000D03*
%TO.N,/HMI Controller/SWDIO*%
X86000000Y-129000000D03*
X100000000Y-117250000D03*
%TO.N,/HMI Controller/VFO_ADJ_A*%
X94599997Y-117400000D03*
%TO.N,/HMI Controller/VFO_ADJ_B*%
X95300000Y-117400000D03*
%TO.N,/HMI Controller/ROW_C*%
X104800000Y-127800000D03*
X103400000Y-122800000D03*
X100300000Y-111400000D03*
X103900000Y-118400000D03*
%TO.N,/HMI Controller/RGB_DATA*%
X108300000Y-54700000D03*
X108200000Y-71200000D03*
%TO.N,/Audio/I2S_ADCOUT*%
X152105024Y-102894976D03*
X146800000Y-81100000D03*
%TO.N,/Audio/I2S_MCLK*%
X150570897Y-103219776D03*
X147700000Y-82677156D03*
%TO.N,/Audio/I2S_ADCIN*%
X148000000Y-82000000D03*
X151250000Y-103050000D03*
%TO.N,/Audio/I2S_BCLK*%
X147375000Y-80675000D03*
X152600000Y-102400000D03*
%TO.N,/Audio/I2S_FS*%
X150826414Y-100923586D03*
X149800000Y-82050000D03*
%TD*%
D97*
%TO.N,/Audio/Mic_HS_N*%
X98100000Y-130270000D02*
X100500000Y-130270000D01*
X100500000Y-130270000D02*
X106270000Y-124500000D01*
X106270000Y-124500000D02*
X159300000Y-124500000D01*
X159300000Y-124500000D02*
X160746000Y-125946000D01*
X160746000Y-125946000D02*
X167154000Y-125946000D01*
X167154000Y-125946000D02*
X167500000Y-125600000D01*
%TO.N,/Audio/Mic_P*%
X98100000Y-127730000D02*
X100500000Y-127730000D01*
X100500000Y-127730000D02*
X104510000Y-123720000D01*
X104510000Y-123720000D02*
X160880000Y-123720000D01*
%TO.N,+3.3V*%
X99750000Y-124100000D02*
X94367250Y-129482750D01*
X94367250Y-129482750D02*
X94367250Y-133867250D01*
D98*
%TO.N,/Battery/Vusb*%
X127000000Y-80975000D02*
X122812500Y-80975000D01*
X128800000Y-80800000D02*
X127175000Y-80800000D01*
X127175000Y-80800000D02*
X127000000Y-80975000D01*
D97*
%TO.N,GND*%
X132000000Y-55750000D02*
X132000000Y-56100000D01*
X120975000Y-91025000D02*
X121000000Y-91000000D01*
X180525000Y-99500000D02*
X181175000Y-99500000D01*
X185750000Y-108850000D02*
X185750000Y-107000000D01*
X119900000Y-78750000D02*
X120100000Y-78950000D01*
X187450000Y-74400000D02*
X186600000Y-74400000D01*
X177100000Y-89750000D02*
X177450000Y-90100000D01*
X92290000Y-131290000D02*
X92000000Y-131000000D01*
X149425000Y-84525000D02*
X150600000Y-83350000D01*
X135000000Y-91025000D02*
X136275000Y-91025000D01*
X180500000Y-118000000D02*
X181325000Y-118000000D01*
X142300000Y-92875000D02*
X142250000Y-92825000D01*
X185750000Y-108850000D02*
X184100000Y-108850000D01*
X121025000Y-91025000D02*
X121000000Y-91000000D01*
X148350000Y-110350000D02*
X148400000Y-110400000D01*
X132325000Y-78750000D02*
X132325000Y-78000000D01*
X148350000Y-105850000D02*
X148400000Y-105900000D01*
X147200000Y-117400000D02*
X147800000Y-118000000D01*
X172912500Y-128937742D02*
X172437742Y-128937742D01*
X79912500Y-101087742D02*
X79287742Y-101087742D01*
X185575000Y-105750000D02*
X186750000Y-105750000D01*
X79812500Y-86887742D02*
X78687742Y-86887742D01*
X160000000Y-111800000D02*
X160750000Y-111050000D01*
X176375000Y-89750000D02*
X177100000Y-89750000D01*
X78687742Y-86887742D02*
X78300000Y-86500000D01*
X132750000Y-111250000D02*
X132500000Y-111000000D01*
X132325000Y-81750000D02*
X132325000Y-80250000D01*
X181175000Y-99500000D02*
X181250000Y-99575000D01*
X83000000Y-102700000D02*
X82000000Y-103700000D01*
X160125000Y-82250000D02*
X161164559Y-82250000D01*
X159300000Y-111800000D02*
X160000000Y-111800000D01*
X161164559Y-82250000D02*
X161378640Y-82035919D01*
X172437742Y-128937742D02*
X171900000Y-128400000D01*
X141900000Y-91275000D02*
X141900000Y-91200000D01*
X133800000Y-96000000D02*
X134975000Y-96000000D01*
X122000000Y-103000000D02*
X121400000Y-103600000D01*
X176400000Y-87750000D02*
X177275000Y-87750000D01*
X129750000Y-114250000D02*
X131150000Y-114250000D01*
X129875000Y-94125000D02*
X129400000Y-94600000D01*
X121850000Y-117350000D02*
X121100000Y-116600000D01*
X146800000Y-94750000D02*
X146600000Y-94750000D01*
X177500000Y-96725000D02*
X176425000Y-96725000D01*
X176475000Y-101525000D02*
X176400000Y-101600000D01*
X119900000Y-80250000D02*
X120100000Y-80050000D01*
X110000000Y-130600000D02*
X108700000Y-131900000D01*
X172087742Y-54187742D02*
X171700000Y-53800000D01*
X184675000Y-88825000D02*
X185000000Y-88500000D01*
X101900000Y-108850000D02*
X103050000Y-108850000D01*
X146700000Y-118800000D02*
X145400000Y-118800000D01*
X129750000Y-107650000D02*
X131150000Y-107650000D01*
X148350000Y-109300000D02*
X148350000Y-110350000D01*
X183075000Y-80750000D02*
X184050000Y-80750000D01*
X128425000Y-86675000D02*
X128900000Y-86200000D01*
X146800000Y-94750000D02*
X146800000Y-95800000D01*
X147125000Y-117400000D02*
X147200000Y-117400000D01*
X133800000Y-95400000D02*
X134375000Y-95400000D01*
X177600000Y-84250000D02*
X177700000Y-84350000D01*
X103400000Y-115500000D02*
X103300000Y-115600000D01*
X176425000Y-96725000D02*
X176400000Y-96700000D01*
X186600000Y-74400000D02*
X186000000Y-75000000D01*
X176000000Y-130700000D02*
X174800000Y-131900000D01*
X119212500Y-78750000D02*
X119900000Y-78750000D01*
X129675000Y-94125000D02*
X127875000Y-95925000D01*
X143800000Y-92875000D02*
X142300000Y-92875000D01*
X101900000Y-114575000D02*
X101900000Y-115600000D01*
X132325000Y-80250000D02*
X132325000Y-78750000D01*
X127825000Y-73000000D02*
X129000000Y-73000000D01*
X162000000Y-104100000D02*
X162000000Y-105000000D01*
X144400000Y-77525000D02*
X144400000Y-76700000D01*
X88480000Y-131520000D02*
X89000000Y-131000000D01*
X132325000Y-77250000D02*
X132325000Y-78000000D01*
X130100000Y-94125000D02*
X129875000Y-94125000D01*
X92290000Y-132350000D02*
X92290000Y-131290000D01*
X177700000Y-87600000D02*
X178300000Y-87600000D01*
X79912500Y-72487500D02*
X80500000Y-71900000D01*
X166000000Y-104300000D02*
X166000000Y-103250000D01*
X172912500Y-54187742D02*
X172087742Y-54187742D01*
X150125000Y-84525000D02*
X150400000Y-84250000D01*
X82900000Y-89000000D02*
X82200000Y-89700000D01*
X176375000Y-84250000D02*
X177600000Y-84250000D01*
X141500000Y-91375000D02*
X141500000Y-92120000D01*
X177500000Y-101525000D02*
X176475000Y-101525000D01*
X103050000Y-108850000D02*
X103100000Y-108800000D01*
X161500000Y-87750000D02*
X162000000Y-88250000D01*
X82900000Y-88450000D02*
X82900000Y-89000000D01*
X131150000Y-114250000D02*
X131200000Y-114200000D01*
X130400000Y-90600000D02*
X130400000Y-90500000D01*
X106912500Y-128937742D02*
X105937742Y-128937742D01*
X145200000Y-95250000D02*
X144950000Y-95500000D01*
X161750000Y-117500000D02*
X163250000Y-117500000D01*
X142275000Y-74340000D02*
X143240000Y-74340000D01*
X83000000Y-116850000D02*
X83000000Y-117300000D01*
X99187500Y-113700000D02*
X100400000Y-113700000D01*
X141025000Y-114600000D02*
X140000000Y-114600000D01*
X175850000Y-55750000D02*
X174800000Y-56800000D01*
X129750000Y-87050000D02*
X128900000Y-86200000D01*
X161500000Y-112500000D02*
X161500000Y-111300000D01*
X185750000Y-107000000D02*
X185500000Y-106750000D01*
X148350000Y-104600000D02*
X148350000Y-105850000D01*
X89750000Y-132350000D02*
X89750000Y-131250000D01*
X159150000Y-98250000D02*
X159100000Y-98300000D01*
X150287742Y-54187742D02*
X149700000Y-53600000D01*
X165150000Y-92400000D02*
X165130000Y-92380000D01*
X128912500Y-54187742D02*
X128387742Y-54187742D01*
X148000000Y-68590000D02*
X146110000Y-68590000D01*
X179075000Y-99500000D02*
X179000000Y-99575000D01*
X136400000Y-96000000D02*
X135025000Y-96000000D01*
X184100000Y-108850000D02*
X184000000Y-108750000D01*
X140000000Y-114600000D02*
X139900000Y-114700000D01*
X87095000Y-136905000D02*
X86000000Y-138000000D01*
X186400000Y-68800000D02*
X185800000Y-68200000D01*
X179750000Y-99500000D02*
X179075000Y-99500000D01*
X132000000Y-56100000D02*
X131200000Y-56900000D01*
X83000000Y-117300000D02*
X82300000Y-118000000D01*
X146110000Y-68590000D02*
X146100000Y-68600000D01*
X143975000Y-114600000D02*
X145000000Y-114600000D01*
X181750000Y-93500000D02*
X181500000Y-93750000D01*
X182750000Y-93500000D02*
X181750000Y-93500000D01*
X177275000Y-87750000D02*
X177825000Y-88300000D01*
X150737742Y-128937742D02*
X150100000Y-128300000D01*
X100400000Y-113700000D02*
X100500000Y-113800000D01*
X110000000Y-55900000D02*
X109100000Y-56800000D01*
X162000000Y-107600000D02*
X162000000Y-108800000D01*
X79112258Y-115287742D02*
X78900000Y-115500000D01*
X130400000Y-90600000D02*
X131000000Y-91200000D01*
X154000000Y-130800000D02*
X152900000Y-131900000D01*
X106187742Y-54187742D02*
X105800000Y-53800000D01*
X118500000Y-98650000D02*
X117450000Y-98650000D01*
X116525000Y-74500000D02*
X118000000Y-74500000D01*
X177350000Y-87250000D02*
X177700000Y-87600000D01*
X150912500Y-54187742D02*
X150287742Y-54187742D01*
X148600000Y-84525000D02*
X149425000Y-84525000D01*
X184050000Y-80750000D02*
X184200000Y-80600000D01*
X79287742Y-101087742D02*
X78900000Y-100700000D01*
X132000000Y-130600000D02*
X131100000Y-131500000D01*
X146800000Y-95800000D02*
X146650000Y-95950000D01*
X127000000Y-78025000D02*
X127000000Y-77000000D01*
X131900000Y-94125000D02*
X132525000Y-94125000D01*
X130100000Y-94125000D02*
X129675000Y-94125000D01*
X119900000Y-78062500D02*
X119900000Y-78750000D01*
X119212500Y-80250000D02*
X119900000Y-80250000D01*
X117450000Y-98650000D02*
X117300000Y-98800000D01*
X127875000Y-95925000D02*
X127000000Y-95925000D01*
X184675000Y-89825000D02*
X184675000Y-88825000D01*
X131150000Y-107650000D02*
X131200000Y-107600000D01*
X142250000Y-92825000D02*
X141655000Y-92825000D01*
X134375000Y-95400000D02*
X135000000Y-96025000D01*
X105937742Y-128937742D02*
X105900000Y-128900000D01*
X103400000Y-114575000D02*
X103400000Y-115500000D01*
X133475000Y-111250000D02*
X132750000Y-111250000D01*
X160125000Y-98250000D02*
X159150000Y-98250000D01*
X136275000Y-91025000D02*
X136400000Y-90900000D01*
X141500000Y-92120000D02*
X141290000Y-92330000D01*
X82950000Y-74250000D02*
X81900000Y-75300000D01*
X128387742Y-54187742D02*
X127800000Y-53600000D01*
X128000000Y-86675000D02*
X128425000Y-86675000D01*
X173750000Y-107225000D02*
X174525000Y-107225000D01*
X174525000Y-107225000D02*
X174750000Y-107000000D01*
X132525000Y-94125000D02*
X133800000Y-95400000D01*
X142500000Y-116100000D02*
X142500000Y-117900000D01*
X164750000Y-117500000D02*
X164750000Y-118500000D01*
X128912500Y-128937742D02*
X127937742Y-128937742D01*
X148600000Y-84525000D02*
X150125000Y-84525000D01*
X176375000Y-87250000D02*
X177350000Y-87250000D01*
X150600000Y-84050000D02*
X150400000Y-84250000D01*
X154000000Y-55800000D02*
X152800000Y-57000000D01*
X146850000Y-92100000D02*
X146700000Y-92250000D01*
X125600000Y-95800000D02*
X126875000Y-95800000D01*
X144200000Y-103262500D02*
X144200000Y-102425000D01*
X160125000Y-87750000D02*
X161500000Y-87750000D01*
X127937742Y-128937742D02*
X127700000Y-128700000D01*
X161750000Y-117500000D02*
X161750000Y-118500000D01*
X131000000Y-91600000D02*
X131000000Y-91200000D01*
X165950000Y-92400000D02*
X165150000Y-92400000D01*
X79912500Y-115287742D02*
X79112258Y-115287742D01*
X145200000Y-93975000D02*
X145200000Y-95250000D01*
X146850000Y-91675000D02*
X146850000Y-92100000D01*
X187350000Y-68800000D02*
X186400000Y-68800000D01*
X150600000Y-83350000D02*
X150600000Y-84050000D01*
X89750000Y-131250000D02*
X90000000Y-131000000D01*
X106912500Y-54187742D02*
X106187742Y-54187742D01*
X159300000Y-108800000D02*
X160500000Y-108800000D01*
X148350000Y-91675000D02*
X146850000Y-91675000D01*
X164750000Y-117500000D02*
X163250000Y-117500000D01*
X141655000Y-92825000D02*
X141360000Y-93120000D01*
X143240000Y-74340000D02*
X143300000Y-74400000D01*
D99*
%TO.N,Net-(AE401-A)*%
X146275000Y-113095000D02*
X146320000Y-113050000D01*
X146275000Y-117400000D02*
X146275000Y-113095000D01*
D97*
%TO.N,Net-(U201-BOOT)*%
X131379000Y-88121000D02*
X131379000Y-90579000D01*
X132200000Y-92050000D02*
X131900000Y-92350000D01*
X132500000Y-87000000D02*
X131379000Y-88121000D01*
X131379000Y-90579000D02*
X132200000Y-91400000D01*
X132200000Y-91400000D02*
X132200000Y-92050000D01*
%TO.N,+3.3V*%
X133325000Y-83750000D02*
X134500000Y-83750000D01*
X90905000Y-136729500D02*
X91505000Y-136729500D01*
X183075000Y-83250000D02*
X183950000Y-83250000D01*
X176476000Y-88851000D02*
X177700000Y-88851000D01*
X141500000Y-89825000D02*
X141005000Y-89825000D01*
X150325000Y-86075000D02*
X150400000Y-86150000D01*
X139500000Y-110575000D02*
X139500000Y-109800000D01*
X160125000Y-99750000D02*
X161250000Y-99750000D01*
X162000000Y-106000000D02*
X161500000Y-106500000D01*
X141005000Y-89825000D02*
X140480000Y-90350000D01*
X166000000Y-106200000D02*
X166000000Y-107250000D01*
X182675000Y-90125000D02*
X182675000Y-89175000D01*
X103400000Y-113025000D02*
X101900000Y-113025000D01*
X108125000Y-108375000D02*
X109750000Y-106750000D01*
X177700000Y-88851000D02*
X178449000Y-88851000D01*
X160125000Y-83250000D02*
X161350000Y-83250000D01*
X88052250Y-133867250D02*
X94367250Y-133867250D01*
X148375000Y-86300000D02*
X148600000Y-86075000D01*
X163250000Y-114100000D02*
X163250000Y-113500000D01*
X176375000Y-88250000D02*
X176976000Y-88851000D01*
X182675000Y-89175000D02*
X182500000Y-89000000D01*
X155300000Y-104900000D02*
X154700000Y-105500000D01*
X160125000Y-99250000D02*
X161350000Y-99250000D01*
X141900000Y-89425000D02*
X141500000Y-89825000D01*
X151320000Y-77195000D02*
X151695000Y-77195000D01*
X118250000Y-98000000D02*
X119250000Y-98000000D01*
X134000000Y-107075000D02*
X133225000Y-107075000D01*
X148300000Y-98912500D02*
X148300000Y-101850000D01*
X111000000Y-94000000D02*
X115500000Y-94000000D01*
X141250000Y-109850000D02*
X141300000Y-109800000D01*
X91505000Y-136729500D02*
X94367250Y-133867250D01*
X160125000Y-96250000D02*
X158850000Y-96250000D01*
X162000000Y-106000000D02*
X160750000Y-106000000D01*
X161500000Y-106500000D02*
X161500000Y-107600000D01*
X148600000Y-86075000D02*
X149400000Y-86075000D01*
X149400000Y-86075000D02*
X150475000Y-87150000D01*
X115500000Y-94000000D02*
X116250000Y-94750000D01*
X151695000Y-77195000D02*
X152400000Y-77900000D01*
X99362500Y-113025000D02*
X99187500Y-113200000D01*
X142325000Y-75840000D02*
X143260000Y-75840000D01*
X116250000Y-96000000D02*
X118250000Y-98000000D01*
X161250000Y-99750000D02*
X161400000Y-99900000D01*
X133225000Y-107075000D02*
X133100000Y-107200000D01*
X101900000Y-110750000D02*
X105750000Y-110750000D01*
X116250000Y-94750000D02*
X116250000Y-96000000D01*
X172375000Y-112875000D02*
X172500000Y-112750000D01*
X146750000Y-86700000D02*
X146750000Y-86300000D01*
X122500000Y-86850000D02*
X124200000Y-86850000D01*
X87210000Y-133025000D02*
X88052250Y-133867250D01*
X102100000Y-104700000D02*
X105775000Y-108375000D01*
X135025000Y-111250000D02*
X136250000Y-111250000D01*
X103475000Y-113025000D02*
X105750000Y-110750000D01*
X155300000Y-106800000D02*
X154600000Y-106100000D01*
X143260000Y-75840000D02*
X143300000Y-75800000D01*
X150400000Y-87075000D02*
X150475000Y-87150000D01*
X101900000Y-113025000D02*
X101900000Y-110750000D01*
X161550000Y-82750000D02*
X161600000Y-82700000D01*
X178449000Y-88851000D02*
X178450000Y-88850000D01*
X143900000Y-80631780D02*
X143900000Y-81050000D01*
X141250000Y-110575000D02*
X141250000Y-109850000D01*
X155887500Y-104900000D02*
X155300000Y-104900000D01*
X146750000Y-86300000D02*
X148375000Y-86300000D01*
X161350000Y-99250000D02*
X161400000Y-99300000D01*
X161000000Y-107600000D02*
X161000000Y-107000000D01*
X183950000Y-83250000D02*
X184200000Y-83500000D01*
X119250000Y-98000000D02*
X119675000Y-98425000D01*
X144400000Y-79075000D02*
X145025000Y-79075000D01*
X161750000Y-115600000D02*
X163200000Y-115600000D01*
X171250000Y-112875000D02*
X172375000Y-112875000D01*
X176375000Y-88750000D02*
X176476000Y-88851000D01*
X135750000Y-107075000D02*
X135750000Y-106350000D01*
X144400000Y-79075000D02*
X144400000Y-79733012D01*
X109750000Y-106750000D02*
X109750000Y-95250000D01*
X135075000Y-109750000D02*
X136000000Y-109750000D01*
X105750000Y-110750000D02*
X108125000Y-108375000D01*
X133325000Y-85250000D02*
X134500000Y-85250000D01*
X122045000Y-98937500D02*
X120187500Y-98937500D01*
X99750000Y-120500000D02*
X104750000Y-115500000D01*
X109750000Y-95250000D02*
X111000000Y-94000000D01*
X163000000Y-113250000D02*
X163250000Y-113500000D01*
X121300000Y-86900000D02*
X122450000Y-86900000D01*
X163000000Y-112500000D02*
X163000000Y-113250000D01*
X143000000Y-110575000D02*
X143000000Y-109800000D01*
X101900000Y-113025000D02*
X99362500Y-113025000D01*
X161000000Y-107000000D02*
X162000000Y-106000000D01*
X135025000Y-111250000D02*
X135025000Y-109800000D01*
X141900000Y-87950000D02*
X141900000Y-89425000D01*
X124675000Y-86675000D02*
X126500000Y-86675000D01*
X176976000Y-88851000D02*
X177700000Y-88851000D01*
X102100000Y-104700000D02*
X102100000Y-102687500D01*
X144046000Y-80087012D02*
X144046000Y-80485780D01*
X104750000Y-114375000D02*
X103400000Y-113025000D01*
X150400000Y-86150000D02*
X150400000Y-87075000D01*
X144400000Y-79733012D02*
X144046000Y-80087012D01*
X105775000Y-108375000D02*
X108125000Y-108375000D01*
X160125000Y-82750000D02*
X161550000Y-82750000D01*
X158850000Y-96250000D02*
X158800000Y-96300000D01*
X99750000Y-124100000D02*
X99750000Y-120500000D01*
X155887500Y-106800000D02*
X155300000Y-106800000D01*
X162000000Y-106000000D02*
X162000000Y-106750000D01*
X161350000Y-83250000D02*
X161500000Y-83400000D01*
X161750000Y-115600000D02*
X163250000Y-114100000D01*
X161350000Y-98750000D02*
X161400000Y-98800000D01*
X145025000Y-79075000D02*
X145200000Y-78900000D01*
X160125000Y-98750000D02*
X161350000Y-98750000D01*
X120187500Y-98937500D02*
X119675000Y-98425000D01*
X135750000Y-106350000D02*
X135800000Y-106300000D01*
X144046000Y-80485780D02*
X143900000Y-80631780D01*
X148600000Y-86075000D02*
X150325000Y-86075000D01*
X104750000Y-115500000D02*
X104750000Y-114375000D01*
%TO.N,/Power/FB*%
X130500000Y-91600000D02*
X128000000Y-89100000D01*
X126500000Y-88325000D02*
X124625000Y-88325000D01*
X128000000Y-88325000D02*
X126500000Y-88325000D01*
X128000000Y-89100000D02*
X128000000Y-88325000D01*
D100*
%TO.N,/Power/VCC*%
X131500000Y-91600000D02*
X131500000Y-91100000D01*
X131099000Y-90049000D02*
X130000000Y-88950000D01*
X131099000Y-90699000D02*
X131099000Y-90049000D01*
X131500000Y-91100000D02*
X131099000Y-90699000D01*
D97*
%TO.N,/Battery/Vusb*%
X183890000Y-101800000D02*
X185240000Y-101800000D01*
X183890000Y-97550000D02*
X185240000Y-97550000D01*
%TO.N,+BATT*%
X120400000Y-73575000D02*
X120400000Y-73500000D01*
X120400000Y-73500000D02*
X120400000Y-71300000D01*
X119475000Y-74500000D02*
X120400000Y-73575000D01*
X120900000Y-71100000D02*
X120900000Y-78062500D01*
X120400000Y-75425000D02*
X119475000Y-74500000D01*
X120400000Y-75412500D02*
X120400000Y-73500000D01*
X120400000Y-78062500D02*
X120400000Y-75425000D01*
%TO.N,/ESP32 Microcontroller/VDD33A*%
X149046000Y-96341500D02*
X149046000Y-90821000D01*
X149046000Y-90821000D02*
X148350000Y-90125000D01*
X148300000Y-97087500D02*
X149046000Y-96341500D01*
%TO.N,/ESP32 Microcontroller/CHIP_EN*%
X151346000Y-87104000D02*
X150950000Y-87500000D01*
X160873962Y-101700000D02*
X170403962Y-92170000D01*
X188200000Y-73550000D02*
X188200000Y-88200000D01*
X146750000Y-85900000D02*
X147313026Y-85900000D01*
X179982548Y-92170000D02*
X180377548Y-91775000D01*
X188200000Y-88200000D02*
X184675000Y-91725000D01*
X150898022Y-85250000D02*
X151346000Y-85697978D01*
X153430548Y-101700000D02*
X160873962Y-101700000D01*
X150950000Y-100200000D02*
X152129000Y-101529000D01*
X188200000Y-69650000D02*
X188200000Y-73550000D01*
X147963026Y-85250000D02*
X150898022Y-85250000D01*
X151346000Y-85697978D02*
X151346000Y-87104000D01*
X188200000Y-73550000D02*
X189050000Y-74400000D01*
X180377548Y-91775000D02*
X182675000Y-91775000D01*
X153259548Y-101529000D02*
X153430548Y-101700000D01*
X152129000Y-101529000D02*
X153259548Y-101529000D01*
X150950000Y-87500000D02*
X150950000Y-100200000D01*
X170403962Y-92170000D02*
X179982548Y-92170000D01*
X189050000Y-68800000D02*
X188200000Y-69650000D01*
X147313026Y-85900000D02*
X147963026Y-85250000D01*
X184675000Y-91725000D02*
X182725000Y-91725000D01*
%TO.N,/ESP32 Microcontroller/VDD33_SPI*%
X140675000Y-75840000D02*
X140675000Y-74390000D01*
X140675000Y-74390000D02*
X140725000Y-74340000D01*
X139850000Y-81900000D02*
X139850000Y-76665000D01*
X139850000Y-76665000D02*
X140675000Y-75840000D01*
X140725000Y-72500000D02*
X140825000Y-72400000D01*
X140725000Y-74340000D02*
X140725000Y-72500000D01*
%TO.N,/ESP32 Microcontroller/USB_N*%
X176585000Y-99315000D02*
X175900000Y-100000000D01*
X177475000Y-99975000D02*
X176815000Y-99315000D01*
X182000000Y-100500000D02*
X180525000Y-100500000D01*
X180525000Y-100500000D02*
X180144000Y-100881000D01*
X176815000Y-99315000D02*
X176585000Y-99315000D01*
X180144000Y-100881000D02*
X179231500Y-100881000D01*
X178325500Y-99975000D02*
X179231500Y-100881000D01*
X177500000Y-99975000D02*
X178325500Y-99975000D01*
%TO.N,/ESP32 Microcontroller/USB_P*%
X178750000Y-98000000D02*
X180025000Y-98000000D01*
X183890000Y-100100000D02*
X183395026Y-100100000D01*
X180025000Y-98000000D02*
X180525000Y-98500000D01*
X177500000Y-98275000D02*
X178475000Y-98275000D01*
X176815000Y-98935000D02*
X176585000Y-98935000D01*
X178475000Y-98275000D02*
X178750000Y-98000000D01*
X181795026Y-98500000D02*
X180525000Y-98500000D01*
X183395026Y-100100000D02*
X181795026Y-98500000D01*
X176585000Y-98935000D02*
X175900000Y-98250000D01*
X184347631Y-100100000D02*
X185197631Y-99250000D01*
X177475000Y-98275000D02*
X176815000Y-98935000D01*
X183890000Y-100100000D02*
X184347631Y-100100000D01*
D99*
%TO.N,/ESP32 Microcontroller/RF*%
X146800000Y-104600000D02*
X146800000Y-106142500D01*
X147326625Y-87126625D02*
X149200000Y-89000000D01*
X149200000Y-89000000D02*
X149825000Y-89625000D01*
X146800000Y-106142500D02*
X146820000Y-106162500D01*
X149825000Y-101575000D02*
X146800000Y-104600000D01*
X149825000Y-89625000D02*
X149825000Y-101575000D01*
X147300000Y-87126625D02*
X147326625Y-87126625D01*
%TO.N,/ESP32 Microcontroller/RF_ANT*%
X146820000Y-109280000D02*
X146800000Y-109300000D01*
X146800000Y-110970000D02*
X146320000Y-111450000D01*
X146820000Y-107737500D02*
X146820000Y-109280000D01*
X146800000Y-109300000D02*
X146800000Y-110970000D01*
D97*
%TO.N,Net-(C414-Pad1)*%
X145200000Y-92875000D02*
X145200000Y-91575000D01*
X146475000Y-92875000D02*
X145200000Y-92875000D01*
X145200000Y-91575000D02*
X145300000Y-91475000D01*
X146800000Y-93200000D02*
X146475000Y-92875000D01*
D101*
%TO.N,/ESP32 Microcontroller/XTAL_N*%
X142250000Y-94375000D02*
X143400000Y-94375000D01*
X144496000Y-89558595D02*
X144579000Y-89475595D01*
X143800000Y-93975000D02*
X144496000Y-93279000D01*
X144579000Y-88490994D02*
X144700000Y-88369994D01*
X143400000Y-94375000D02*
X143800000Y-93975000D01*
X144496000Y-93279000D02*
X144496000Y-89558595D01*
X144700000Y-88369994D02*
X144700000Y-87950000D01*
X144579000Y-89475595D02*
X144579000Y-88490994D01*
D97*
%TO.N,Net-(J501-T)*%
X171250000Y-108550000D02*
X173425000Y-108550000D01*
X173750000Y-108875000D02*
X176425000Y-108875000D01*
X173425000Y-108550000D02*
X173750000Y-108875000D01*
%TO.N,/Audio/L_HS*%
X167000000Y-109000000D02*
X167850000Y-109000000D01*
X162500000Y-112500000D02*
X162500000Y-113750000D01*
%TO.N,/Audio/R_HS*%
X172275000Y-114750000D02*
X174525000Y-117000000D01*
X169250000Y-114750000D02*
X172275000Y-114750000D01*
X162000000Y-112500000D02*
X161875001Y-112624999D01*
X161875001Y-114064154D02*
X162186949Y-114376102D01*
X161875001Y-112624999D02*
X161875001Y-114064154D01*
%TO.N,Net-(J501-R1)*%
X177475000Y-117000000D02*
X178300000Y-116175000D01*
X181575000Y-116250000D02*
X183950000Y-116250000D01*
X178300000Y-116175000D02*
X181500000Y-116175000D01*
%TO.N,Net-(D201-K)*%
X122045000Y-97062500D02*
X118562500Y-97062500D01*
%TO.N,Net-(D401-A)*%
X144400000Y-99950000D02*
X144400000Y-101187500D01*
%TO.N,/Battery/BATT_TS*%
X121400000Y-75412500D02*
X121400000Y-72300000D01*
X122000000Y-73000000D02*
X126175000Y-73000000D01*
X121400000Y-72300000D02*
X122750000Y-70950000D01*
X121400000Y-75412500D02*
X121400000Y-75250000D01*
X121400000Y-78062500D02*
X121400000Y-75250000D01*
X121400000Y-75250000D02*
X121400000Y-73600000D01*
X121400000Y-73600000D02*
X122000000Y-73000000D01*
%TO.N,/ESP32 Microcontroller/BOOT_MODE*%
X148036000Y-106901000D02*
X151935000Y-110800000D01*
X145301000Y-106901000D02*
X148036000Y-106901000D01*
X145250000Y-106850000D02*
X145301000Y-106901000D01*
X146300000Y-85500000D02*
X145900000Y-85900000D01*
X146750000Y-85500000D02*
X146300000Y-85500000D01*
%TO.N,Net-(J403-CC1)*%
X182750000Y-101500000D02*
X182750000Y-104575000D01*
X183300000Y-100950000D02*
X182750000Y-101500000D01*
X182750000Y-104575000D02*
X183925000Y-105750000D01*
X183890000Y-100950000D02*
X183300000Y-100950000D01*
%TO.N,Net-(J403-CC2)*%
X186500000Y-97140000D02*
X186500000Y-94750000D01*
X186500000Y-94750000D02*
X185250000Y-93500000D01*
X185240000Y-98400000D02*
X186500000Y-97140000D01*
X185250000Y-93500000D02*
X184400000Y-93500000D01*
%TO.N,/ESP32 Microcontroller/SD_SCK*%
X129750000Y-108750000D02*
X135150926Y-108750000D01*
X140484000Y-103416926D02*
X140484000Y-92895787D01*
X140484000Y-92895787D02*
X140320000Y-92731787D01*
X140320000Y-92731787D02*
X140320000Y-91109239D01*
X139830000Y-90072828D02*
X141500000Y-88402828D01*
X140320000Y-91109239D02*
X139830000Y-90619239D01*
X141500000Y-88402828D02*
X141500000Y-87950000D01*
X139830000Y-90619239D02*
X139830000Y-90072828D01*
X135150926Y-108750000D02*
X140484000Y-103416926D01*
%TO.N,/ESP32 Microcontroller/SD_DAT3*%
X142449000Y-91249000D02*
X142500000Y-91300000D01*
X142549000Y-90371768D02*
X142549000Y-91249000D01*
X141300000Y-107700000D02*
X141300000Y-108875000D01*
X141250000Y-108925000D02*
X140500000Y-109675000D01*
X140500000Y-109675000D02*
X140500000Y-111250000D01*
X137405665Y-112570000D02*
X130270000Y-112570000D01*
X142549000Y-91249000D02*
X142600000Y-91300000D01*
X140500000Y-111250000D02*
X138725665Y-111250000D01*
X142700000Y-87950000D02*
X142700000Y-90220768D01*
X130270000Y-112570000D02*
X129750000Y-112050000D01*
X141300000Y-108875000D02*
X141250000Y-108925000D01*
X142700000Y-90220768D02*
X142549000Y-90371768D01*
X138725665Y-111250000D02*
X137405665Y-112570000D01*
%TO.N,Net-(J404-VDD)*%
X129750000Y-109850000D02*
X133325000Y-109850000D01*
%TO.N,/ESP32 Microcontroller/SD_CMD*%
X140820000Y-102484000D02*
X140804000Y-102500000D01*
X142300000Y-87950000D02*
X142300000Y-90136974D01*
X141940974Y-90496000D02*
X141267026Y-90496000D01*
X136250000Y-112175000D02*
X132675000Y-112175000D01*
X140820000Y-100867452D02*
X140820000Y-102484000D01*
X140804000Y-100851452D02*
X140820000Y-100867452D01*
X140804000Y-92763239D02*
X140804000Y-100851452D01*
X139500000Y-104853474D02*
X139500000Y-108925000D01*
X129750000Y-110950000D02*
X131450000Y-110950000D01*
X140804000Y-90959026D02*
X140804000Y-91896761D01*
X136250000Y-112175000D02*
X139500000Y-108925000D01*
X140804000Y-91896761D02*
X140640000Y-92060761D01*
X140804000Y-102500000D02*
X140804000Y-103549474D01*
X131450000Y-110950000D02*
X132675000Y-112175000D01*
X140804000Y-103549474D02*
X139500000Y-104853474D01*
X140640000Y-92599239D02*
X140804000Y-92763239D01*
X142300000Y-90136974D02*
X141940974Y-90496000D01*
X141267026Y-90496000D02*
X140804000Y-90959026D01*
X140640000Y-92060761D02*
X140640000Y-92599239D01*
%TO.N,/Audio/VDDSPK*%
X160500000Y-113000000D02*
X160500000Y-112500000D01*
X158162500Y-117250000D02*
X158162500Y-115287500D01*
X160250000Y-113250000D02*
X160500000Y-113000000D01*
X158200000Y-114050000D02*
X159000000Y-113250000D01*
X158200000Y-115250000D02*
X158200000Y-114050000D01*
X159000000Y-113250000D02*
X160250000Y-113250000D01*
%TO.N,/ESP32 Microcontroller/SD_DET*%
X129750000Y-115350000D02*
X131150000Y-115350000D01*
X143700000Y-90100000D02*
X143700000Y-89594904D01*
X143349000Y-88771768D02*
X143500000Y-88620768D01*
X140550000Y-112250000D02*
X141000000Y-111800000D01*
X138630761Y-112250000D02*
X140550000Y-112250000D01*
X143349000Y-89243904D02*
X143349000Y-88771768D01*
X132900000Y-113600000D02*
X137280761Y-113600000D01*
X131150000Y-115350000D02*
X132900000Y-113600000D01*
X141000000Y-111800000D02*
X141300000Y-111800000D01*
X143500000Y-88620768D02*
X143500000Y-87950000D01*
X137280761Y-113600000D02*
X138630761Y-112250000D01*
X143700000Y-89594904D02*
X143349000Y-89243904D01*
%TO.N,/ESP32 Microcontroller/SD_DAT2*%
X142000000Y-111000000D02*
X141750000Y-111250000D01*
X143149000Y-89629761D02*
X143029000Y-89509761D01*
X142900000Y-107600000D02*
X142900000Y-108825000D01*
X141750000Y-111250000D02*
X141000000Y-111250000D01*
X142900000Y-108825000D02*
X143000000Y-108925000D01*
X142000000Y-109925000D02*
X142000000Y-111000000D01*
X143029000Y-89509761D02*
X143029000Y-88021000D01*
X140320000Y-111930000D02*
X138498213Y-111930000D01*
X143029000Y-88021000D02*
X143100000Y-87950000D01*
X141000000Y-111250000D02*
X140320000Y-111930000D01*
X143149000Y-90451000D02*
X143149000Y-89629761D01*
X143000000Y-108925000D02*
X142000000Y-109925000D01*
X143000000Y-90600000D02*
X143149000Y-90451000D01*
X138498213Y-111930000D02*
X137428213Y-113000000D01*
X137428213Y-113000000D02*
X129900000Y-113000000D01*
%TO.N,/ESP32 Microcontroller/SD_DAT1*%
X139680000Y-92996883D02*
X139680000Y-91374335D01*
X139190000Y-90884335D02*
X139190000Y-89460000D01*
X139190000Y-89460000D02*
X140700000Y-87950000D01*
X134000000Y-105425000D02*
X134580096Y-105425000D01*
X138791000Y-101664096D02*
X138791000Y-100603904D01*
X135915096Y-104090000D02*
X136365096Y-104090000D01*
X129750000Y-105450000D02*
X133975000Y-105450000D01*
X139680000Y-91374335D02*
X139190000Y-90884335D01*
X134580096Y-105425000D02*
X135915096Y-104090000D01*
X136365096Y-104090000D02*
X138791000Y-101664096D01*
X139844000Y-99550904D02*
X139844000Y-93160883D01*
X138791000Y-100603904D02*
X139844000Y-99550904D01*
X139844000Y-93160883D02*
X139680000Y-92996883D01*
%TO.N,/ESP32 Microcontroller/SD_DAT0*%
X136225000Y-105425000D02*
X135750000Y-105425000D01*
X141100000Y-87950000D02*
X141100000Y-88350280D01*
X140000000Y-91241787D02*
X140000000Y-92864335D01*
X139111000Y-102539000D02*
X136225000Y-105425000D01*
X141100000Y-88350280D02*
X139510000Y-89940280D01*
X129750000Y-106550000D02*
X130050000Y-106250000D01*
X140000000Y-92864335D02*
X140164000Y-93028335D01*
X139160000Y-101097644D02*
X139111000Y-101146644D01*
X140164000Y-99683452D02*
X139160000Y-100687452D01*
X134925000Y-106250000D02*
X135750000Y-105425000D01*
X140164000Y-93028335D02*
X140164000Y-99683452D01*
X130050000Y-106250000D02*
X134925000Y-106250000D01*
X139510000Y-89940280D02*
X139510000Y-90751787D01*
X139510000Y-90751787D02*
X140000000Y-91241787D01*
X139160000Y-100687452D02*
X139160000Y-101097644D01*
X139111000Y-101146644D02*
X139111000Y-102539000D01*
D99*
%TO.N,Net-(J405-In)*%
X144150000Y-111450000D02*
X144720000Y-111450000D01*
X142500000Y-113100000D02*
X144150000Y-111450000D01*
D97*
%TO.N,/Audio/Mic_P*%
X160900000Y-123700000D02*
X160925000Y-123675000D01*
X162000000Y-123675000D02*
X167400000Y-123675000D01*
X160925000Y-123675000D02*
X162000000Y-123675000D01*
X167400000Y-123675000D02*
X167725000Y-124000000D01*
%TO.N,/Display Connectors/DISP_TS_INT*%
X174750000Y-72400000D02*
X174900000Y-72250000D01*
X174900000Y-72250000D02*
X176875000Y-72250000D01*
X179381000Y-74756000D02*
X176875000Y-72250000D01*
X143500000Y-81050000D02*
X143500000Y-80579232D01*
X182625001Y-81750000D02*
X179381000Y-78505999D01*
X143500000Y-80579232D02*
X143726000Y-80353232D01*
X143726000Y-79726000D02*
X143500000Y-79500000D01*
X143726000Y-80353232D02*
X143726000Y-79726000D01*
X179381000Y-78505999D02*
X179381000Y-74756000D01*
X183075000Y-81750000D02*
X182625001Y-81750000D01*
%TO.N,/Display Connectors/DISP_TS_RST*%
X182625001Y-81250000D02*
X183075000Y-81250000D01*
X173750000Y-71750000D02*
X177029232Y-71750000D01*
X143141102Y-80125000D02*
X143175000Y-80125000D01*
X177029232Y-71750000D02*
X177029232Y-71829232D01*
X143100000Y-81050000D02*
X143100000Y-80083898D01*
X179800000Y-74600000D02*
X179800000Y-78424999D01*
X143100000Y-80083898D02*
X143141102Y-80125000D01*
X179800000Y-78424999D02*
X182625001Y-81250000D01*
X177029232Y-71829232D02*
X179800000Y-74600000D01*
%TO.N,Net-(U501-LMICP)*%
X170500000Y-124000000D02*
X171000000Y-123500000D01*
X164200000Y-111800000D02*
X164800000Y-111800000D01*
X169275000Y-124000000D02*
X170500000Y-124000000D01*
X166299753Y-113299753D02*
X166299753Y-114439852D01*
X164800000Y-111800000D02*
X166299753Y-113299753D01*
%TO.N,/Display Connectors/LED_K*%
X167900000Y-89250000D02*
X176375000Y-89250000D01*
X160125000Y-97750000D02*
X160750000Y-97750000D01*
X161250000Y-97250000D02*
X162100000Y-96400000D01*
X165450000Y-86800000D02*
X167900000Y-89250000D01*
X165000000Y-86800000D02*
X165450000Y-86800000D01*
X160125000Y-97250000D02*
X161250000Y-97250000D01*
X161750000Y-96750000D02*
X162100000Y-96400000D01*
X162100000Y-89700000D02*
X165000000Y-86800000D01*
X162100000Y-96400000D02*
X162100000Y-89700000D01*
X160125000Y-96750000D02*
X161750000Y-96750000D01*
X160750000Y-97750000D02*
X162100000Y-96400000D01*
%TO.N,/Display Connectors/DISP_SDA*%
X148700000Y-75800000D02*
X156000000Y-75800000D01*
X159450000Y-86250000D02*
X160125000Y-86250000D01*
X142601000Y-80470239D02*
X142601000Y-79779761D01*
X170650000Y-85250000D02*
X176375000Y-85250000D01*
X142601000Y-79779761D02*
X142700000Y-79680761D01*
X158700000Y-82419239D02*
X158700000Y-83100000D01*
X147100000Y-76500000D02*
X148000000Y-76500000D01*
X156000000Y-75800000D02*
X158750000Y-78550000D01*
X163350000Y-86250000D02*
X160125000Y-86250000D01*
X142700000Y-80569239D02*
X142601000Y-80470239D01*
X158750000Y-78550000D02*
X158750000Y-82369239D01*
X166471000Y-83129000D02*
X168529000Y-83129000D01*
X142700000Y-79455026D02*
X143855026Y-78300000D01*
X158750000Y-82369239D02*
X158700000Y-82419239D01*
X142700000Y-81050000D02*
X142700000Y-80569239D01*
X163800000Y-85800000D02*
X163350000Y-86250000D01*
X168529000Y-83129000D02*
X170650000Y-85250000D01*
X158600000Y-85400000D02*
X159450000Y-86250000D01*
X148000000Y-76500000D02*
X148700000Y-75800000D01*
X143855026Y-78300000D02*
X145300000Y-78300000D01*
X142700000Y-79680761D02*
X142700000Y-79455026D01*
X145300000Y-78300000D02*
X147100000Y-76500000D01*
X165000000Y-84600000D02*
X166471000Y-83129000D01*
%TO.N,/Display Connectors/DISP_RST*%
X142281000Y-81031000D02*
X142281000Y-79647213D01*
X142281000Y-79647213D02*
X142300000Y-79628213D01*
X170300000Y-82500000D02*
X171025000Y-83225000D01*
X172550000Y-84750000D02*
X176375000Y-84750000D01*
X142300000Y-79628213D02*
X142300000Y-78900000D01*
X165750000Y-82500000D02*
X170300000Y-82500000D01*
X160125000Y-87250000D02*
X161600000Y-87250000D01*
X160075000Y-87300000D02*
X160125000Y-87250000D01*
X161600000Y-87250000D02*
X161700000Y-87150000D01*
X142300000Y-78900000D02*
X143000000Y-78200000D01*
X171025000Y-83225000D02*
X172550000Y-84750000D01*
X142300000Y-81050000D02*
X142281000Y-81031000D01*
%TO.N,/Display Connectors/DISP_CS*%
X164000000Y-84000000D02*
X163750000Y-84250000D01*
X156102548Y-75450000D02*
X148550000Y-75450000D01*
X141100000Y-80336085D02*
X141100000Y-81050000D01*
X159350000Y-83924999D02*
X159350000Y-78697452D01*
X143970768Y-76350000D02*
X143190057Y-76350000D01*
X170150000Y-86250000D02*
X171450000Y-86250000D01*
X171450000Y-86250000D02*
X176375000Y-86250000D01*
X143190057Y-76350000D02*
X140899000Y-78641057D01*
X144171768Y-76149000D02*
X143970768Y-76350000D01*
X159675001Y-84250000D02*
X159350000Y-83924999D01*
X147850000Y-76150000D02*
X147849000Y-76149000D01*
X148550000Y-75450000D02*
X147850000Y-76150000D01*
X140669121Y-79905206D02*
X141100000Y-80336085D01*
X160125000Y-84250000D02*
X159675001Y-84250000D01*
X140669121Y-79407320D02*
X140669121Y-79905206D01*
X159350000Y-78697452D02*
X156102548Y-75450000D01*
X140899000Y-78641057D02*
X140899000Y-79177441D01*
X140899000Y-79177441D02*
X140669121Y-79407320D01*
X163750000Y-84250000D02*
X160125000Y-84250000D01*
X147849000Y-76149000D02*
X146850000Y-76149000D01*
X146850000Y-76149000D02*
X144171768Y-76149000D01*
X167900000Y-84000000D02*
X170150000Y-86250000D01*
%TO.N,/Display Connectors/DISP_DC*%
X144700000Y-80543489D02*
X145455489Y-79788000D01*
X145683787Y-79788000D02*
X148981787Y-76490000D01*
X148981787Y-76490000D02*
X155737452Y-76490000D01*
X159496314Y-84750000D02*
X160125000Y-84750000D01*
X144700000Y-81050000D02*
X144700000Y-80543489D01*
X160125000Y-84750000D02*
X164050000Y-84750000D01*
X157154000Y-82407686D02*
X159496314Y-84750000D01*
X157154000Y-77906548D02*
X157154000Y-82407686D01*
X145455489Y-79788000D02*
X145683787Y-79788000D01*
X169700000Y-86750000D02*
X168000000Y-85050000D01*
X176375000Y-86750000D02*
X169700000Y-86750000D01*
X164050000Y-84750000D02*
X164100000Y-84700000D01*
X155737452Y-76490000D02*
X157154000Y-77906548D01*
%TO.N,/Display Connectors/DISP_SCL*%
X158396000Y-81804000D02*
X158396000Y-78696000D01*
X158000000Y-84400000D02*
X158379232Y-84400000D01*
X145551239Y-79468000D02*
X145118974Y-79468000D01*
X158396000Y-78696000D02*
X155870000Y-76170000D01*
X148824624Y-76170000D02*
X148228000Y-76766624D01*
X148228000Y-76766624D02*
X148228000Y-76791239D01*
X159229232Y-85250000D02*
X160125000Y-85250000D01*
X166948452Y-83449000D02*
X168128232Y-83449000D01*
X158100000Y-82100000D02*
X158396000Y-81804000D01*
X168128232Y-83449000D02*
X170350000Y-85670768D01*
X148228000Y-76791239D02*
X145551239Y-79468000D01*
X144366000Y-80984000D02*
X144300000Y-81050000D01*
X145118974Y-79468000D02*
X144366000Y-80220974D01*
X155870000Y-76170000D02*
X148824624Y-76170000D01*
X160125000Y-85250000D02*
X165147452Y-85250000D01*
X165147452Y-85250000D02*
X166948452Y-83449000D01*
X144366000Y-80220974D02*
X144366000Y-80984000D01*
X170400000Y-85750000D02*
X176375000Y-85750000D01*
X170350000Y-85700000D02*
X170400000Y-85750000D01*
X158379232Y-84400000D02*
X159229232Y-85250000D01*
%TO.N,Net-(Q601-D)*%
X165000000Y-90525000D02*
X165000000Y-88625000D01*
%TO.N,Net-(Q601-G)*%
X164250000Y-94550000D02*
X164250000Y-92600000D01*
X164250000Y-92600000D02*
X164050000Y-92400000D01*
%TO.N,/Power/PWR_REG_GOOD*%
X122500000Y-88500000D02*
X119000000Y-88500000D01*
X130100000Y-92350000D02*
X127350000Y-89600000D01*
X127350000Y-89600000D02*
X123600000Y-89600000D01*
X123600000Y-89600000D02*
X122500000Y-88500000D01*
%TO.N,Net-(U301-ITERM)*%
X122571000Y-79250000D02*
X122087500Y-79250000D01*
X122750000Y-79429000D02*
X122571000Y-79250000D01*
X130675000Y-78750000D02*
X129996000Y-79429000D01*
X129996000Y-79429000D02*
X122750000Y-79429000D01*
%TO.N,Net-(U301-TMR)*%
X130675000Y-80500000D02*
X129925000Y-79750000D01*
X129925000Y-79750000D02*
X122087500Y-79750000D01*
%TO.N,Net-(U301-ILIM)*%
X121750000Y-82000000D02*
X121400000Y-81650000D01*
X130425000Y-82000000D02*
X121750000Y-82000000D01*
X121400000Y-81650000D02*
X121400000Y-80937500D01*
%TO.N,Net-(U301-ISET)*%
X129142000Y-79108000D02*
X130675000Y-77575000D01*
X122882963Y-79108000D02*
X129142000Y-79108000D01*
X122524963Y-78750000D02*
X122882963Y-79108000D01*
X122087500Y-78750000D02*
X122524963Y-78750000D01*
%TO.N,/Battery/PWR_GOOD*%
X119212500Y-79750000D02*
X118750000Y-79750000D01*
X122000000Y-83250000D02*
X124000000Y-85250000D01*
X118750000Y-79750000D02*
X117750000Y-80750000D01*
X132371000Y-85946000D02*
X131675000Y-85250000D01*
X139850000Y-86300000D02*
X133910000Y-86300000D01*
X124000000Y-85250000D02*
X131675000Y-85250000D01*
X117750000Y-80750000D02*
X117750000Y-81750000D01*
X133556000Y-85946000D02*
X132371000Y-85946000D01*
X133910000Y-86300000D02*
X133556000Y-85946000D01*
%TO.N,/Battery/PWR_CHRG*%
X122750000Y-83000000D02*
X123500000Y-83750000D01*
X132371000Y-84446000D02*
X137958814Y-84446000D01*
X139412814Y-85900000D02*
X139850000Y-85900000D01*
X131675000Y-83750000D02*
X132371000Y-84446000D01*
X119900000Y-80937500D02*
X119562500Y-80937500D01*
X119562500Y-80937500D02*
X118750000Y-81750000D01*
X137958814Y-84446000D02*
X139412814Y-85900000D01*
X123500000Y-83750000D02*
X131675000Y-83750000D01*
%TO.N,/ESP32 Microcontroller/GPIO3_STRAP_PD*%
X151320000Y-78845000D02*
X151307000Y-78845000D01*
X146750000Y-83900000D02*
X146796000Y-83854000D01*
X146796000Y-83854000D02*
X148775232Y-83854000D01*
X147150000Y-83900000D02*
X146750000Y-83900000D01*
X151105000Y-78845000D02*
X151320000Y-78845000D01*
X150351000Y-82278232D02*
X150351000Y-79801000D01*
X148775232Y-83854000D02*
X150351000Y-82278232D01*
X151307000Y-78845000D02*
X150351000Y-79801000D01*
%TO.N,/ESP32 Microcontroller/STATUS_LED*%
X144400000Y-97800000D02*
X144100000Y-97500000D01*
X143900000Y-87950000D02*
X143900000Y-89000000D01*
X144400000Y-98300000D02*
X144400000Y-97800000D01*
%TO.N,/ESP32 Microcontroller/SPIFLASH_CLK*%
X137900000Y-81987186D02*
X139412814Y-83500000D01*
X137900000Y-72525000D02*
X137900000Y-81987186D01*
X139412814Y-83500000D02*
X139850000Y-83500000D01*
%TO.N,Net-(U402-CLK)*%
X137900000Y-70875000D02*
X138915000Y-69860000D01*
X138915000Y-69860000D02*
X140825000Y-69860000D01*
%TO.N,/ESP32 Microcontroller/USB_uC_N*%
X173480000Y-96610000D02*
X174600000Y-95490000D01*
X141900000Y-79290000D02*
X141500000Y-78890000D01*
X174175000Y-100000000D02*
X173480000Y-99305000D01*
X141900000Y-81050000D02*
X141900000Y-79820000D01*
X141900000Y-79820000D02*
X141900000Y-79290000D01*
X173480000Y-99305000D02*
X173480000Y-96610000D01*
%TO.N,/ESP32 Microcontroller/USB_uC_P*%
X174175000Y-97075000D02*
X174890000Y-96360000D01*
X141500000Y-81050000D02*
X141500000Y-80550094D01*
X141500000Y-79886142D02*
X141270121Y-79656263D01*
X141500000Y-80550094D02*
X141500000Y-79886142D01*
X174175000Y-98250000D02*
X174175000Y-97075000D01*
X174890000Y-96360000D02*
X174890000Y-96245280D01*
D101*
%TO.N,/ESP32 Microcontroller/XTAL_P*%
X145100000Y-87950000D02*
X145100000Y-89625000D01*
X145100000Y-89625000D02*
X145300000Y-89825000D01*
D97*
%TO.N,Net-(U501-LMICN)*%
X170775000Y-116325000D02*
X170100000Y-117000000D01*
X167000000Y-114700000D02*
X166900000Y-114800000D01*
X165349000Y-111300000D02*
X166249000Y-112200000D01*
X164200000Y-111300000D02*
X165349000Y-111300000D01*
X167000000Y-113000000D02*
X167000000Y-114700000D01*
X166249000Y-112200000D02*
X166249000Y-112249000D01*
X166249000Y-112249000D02*
X167000000Y-113000000D01*
X171900000Y-116325000D02*
X170775000Y-116325000D01*
%TO.N,/Audio/Mic_HS_N*%
X160804000Y-115147978D02*
X160804000Y-116052022D01*
X167925000Y-112825000D02*
X169750000Y-112825000D01*
X171459000Y-118316000D02*
X171900000Y-117875000D01*
X164750000Y-115600000D02*
X164750000Y-114250000D01*
X161000000Y-112500000D02*
X161000000Y-114951978D01*
X166615074Y-118316000D02*
X171459000Y-118316000D01*
X165696000Y-116546000D02*
X165696000Y-117396926D01*
X164750000Y-115600000D02*
X165696000Y-116546000D01*
X164029000Y-116321000D02*
X164750000Y-115600000D01*
X161072978Y-116321000D02*
X164029000Y-116321000D01*
X171900000Y-117875000D02*
X172375000Y-117875000D01*
X165696000Y-117396926D02*
X166615074Y-118316000D01*
X161000000Y-114951978D02*
X160804000Y-115147978D01*
X172375000Y-117875000D02*
X173200000Y-118700000D01*
X164750000Y-114250000D02*
X165000000Y-114000000D01*
X160804000Y-116052022D02*
X161072978Y-116321000D01*
%TO.N,/Display Connectors/DISP_BL*%
X180200000Y-91250000D02*
X180200000Y-82050000D01*
X139850000Y-85500000D02*
X139465362Y-85500000D01*
X164250000Y-96375000D02*
X165745000Y-96375000D01*
X136100000Y-71145112D02*
X139201112Y-68044000D01*
X170320000Y-91800000D02*
X179650000Y-91800000D01*
X180200000Y-82050000D02*
X167606000Y-82050000D01*
X136100000Y-82134638D02*
X136100000Y-71145112D01*
X167606000Y-82050000D02*
X153600000Y-68044000D01*
X139465362Y-85500000D02*
X136100000Y-82134638D01*
X139201112Y-68044000D02*
X153600000Y-68044000D01*
X179650000Y-91800000D02*
X180200000Y-91250000D01*
X165745000Y-96375000D02*
X170320000Y-91800000D01*
%TO.N,Net-(U501-RMICP)*%
X167374000Y-114354761D02*
X167374000Y-111274000D01*
X168250000Y-115775000D02*
X168250000Y-115230761D01*
X166400000Y-110300000D02*
X164200000Y-110300000D01*
X167374000Y-111274000D02*
X166400000Y-110300000D01*
X168250000Y-115230761D02*
X167374000Y-114354761D01*
%TO.N,/Audio/Mic_HS*%
X168250000Y-117225000D02*
X166750000Y-115725000D01*
X169000000Y-116575000D02*
X169000000Y-115279232D01*
X168699000Y-114301000D02*
X169504000Y-113496000D01*
X168250000Y-117325000D02*
X169000000Y-116575000D01*
X169000000Y-115279232D02*
X168699000Y-114978232D01*
X186792000Y-110750000D02*
X188550000Y-108992000D01*
X168699000Y-114978232D02*
X168699000Y-114301000D01*
X172250000Y-113500000D02*
X173250000Y-113500000D01*
X172246000Y-113496000D02*
X172250000Y-113500000D01*
X176000000Y-110750000D02*
X186792000Y-110750000D01*
X169504000Y-113496000D02*
X172246000Y-113496000D01*
X173250000Y-113500000D02*
X176000000Y-110750000D01*
%TO.N,Net-(U501-RMICN)*%
X164200000Y-109800000D02*
X166500000Y-109800000D01*
X168000000Y-111250000D02*
X169750000Y-111275000D01*
X166500000Y-109800000D02*
X168000000Y-111250000D01*
D98*
%TO.N,+5V*%
X181000000Y-129000000D02*
X182500000Y-129000000D01*
X160200000Y-129000000D02*
X160600000Y-128600000D01*
X149350000Y-117250000D02*
X156337500Y-117250000D01*
X88000000Y-99908597D02*
X87972193Y-99880790D01*
X181000000Y-54250000D02*
X182050000Y-54250000D01*
D97*
X117250000Y-79250000D02*
X117000000Y-79500000D01*
X120500000Y-81337500D02*
X120900000Y-80937500D01*
X120400000Y-82100000D02*
X120400000Y-80937500D01*
D98*
X88000000Y-71100000D02*
X88100000Y-71000000D01*
X182050000Y-54250000D02*
X182800000Y-53500000D01*
X159000000Y-129000000D02*
X160200000Y-129000000D01*
X88000000Y-72750000D02*
X88000000Y-71100000D01*
D97*
X117500000Y-82500000D02*
X120000000Y-82500000D01*
X117000000Y-82000000D02*
X117500000Y-82500000D01*
X120000000Y-82500000D02*
X120400000Y-82100000D01*
D98*
X115250000Y-54250000D02*
X116400000Y-53100000D01*
X115900000Y-129000000D02*
X116700000Y-128200000D01*
X149300000Y-117300000D02*
X149350000Y-117250000D01*
X88000000Y-101150000D02*
X88000000Y-99908597D01*
X109500000Y-92000000D02*
X116600000Y-92000000D01*
X138050000Y-54250000D02*
X138800000Y-53500000D01*
X115000000Y-129000000D02*
X115900000Y-129000000D01*
X89150000Y-115350000D02*
X89600000Y-115800000D01*
X159000000Y-54250000D02*
X159850000Y-54250000D01*
X102100000Y-96900000D02*
X102200000Y-96800000D01*
X159850000Y-54250000D02*
X160500000Y-53600000D01*
X87900000Y-86950000D02*
X87900000Y-85702231D01*
D97*
X117000000Y-79500000D02*
X117000000Y-82000000D01*
D98*
X137000000Y-129000000D02*
X138400000Y-129000000D01*
D97*
X119212500Y-79250000D02*
X117250000Y-79250000D01*
D98*
X138400000Y-129000000D02*
X139000000Y-128400000D01*
X102100000Y-98700000D02*
X102100000Y-96900000D01*
X88000000Y-115350000D02*
X89150000Y-115350000D01*
X116500000Y-90000000D02*
X109500000Y-90000000D01*
X87900000Y-85702231D02*
X87856405Y-85658636D01*
X137000000Y-54250000D02*
X138050000Y-54250000D01*
X182500000Y-129000000D02*
X182900000Y-128600000D01*
D97*
%TO.N,/ESP32 Microcontroller/HMI_WAKE*%
X102000000Y-117000000D02*
X102000000Y-116592074D01*
X129667208Y-103800000D02*
X135100000Y-103800000D01*
X128150000Y-117400000D02*
X128150000Y-105317208D01*
X128150000Y-105317208D02*
X129667208Y-103800000D01*
X138150000Y-88000000D02*
X139450000Y-86700000D01*
X102000000Y-116592074D02*
X99607926Y-114200000D01*
X99607926Y-114200000D02*
X99187500Y-114200000D01*
X138150000Y-100750000D02*
X138150000Y-88000000D01*
X135100000Y-103800000D02*
X138150000Y-100750000D01*
X139450000Y-86700000D02*
X139850000Y-86700000D01*
%TO.N,/ESP32 Microcontroller/HMI_INT*%
X130517452Y-104320000D02*
X135032548Y-104320000D01*
X130317452Y-104120000D02*
X130517452Y-104320000D01*
X101350000Y-116396037D02*
X101350000Y-117350000D01*
X135032548Y-104320000D02*
X138470000Y-100882548D01*
X138470000Y-88480000D02*
X139850000Y-87100000D01*
X101350000Y-117350000D02*
X101500000Y-117500000D01*
X129801170Y-104120000D02*
X130317452Y-104120000D01*
X99187500Y-114700000D02*
X99653963Y-114700000D01*
X128700000Y-105221170D02*
X129801170Y-104120000D01*
X128700000Y-118000000D02*
X128700000Y-105221170D01*
X138470000Y-100882548D02*
X138470000Y-88480000D01*
X99653963Y-114700000D02*
X101350000Y-116396037D01*
%TO.N,/ESP32 Microcontroller/SPIFLASH_Q*%
X145300000Y-71100000D02*
X145330000Y-71130000D01*
X139850000Y-83900000D02*
X139360266Y-83900000D01*
X145330000Y-71130000D02*
X148000000Y-71130000D01*
X139360266Y-83900000D02*
X137200000Y-81739734D01*
X137200000Y-81739734D02*
X137200000Y-74600000D01*
%TO.N,/ESP32 Microcontroller/SPIFLASH_WP*%
X145643026Y-69860000D02*
X148000000Y-69860000D01*
X140379000Y-77211926D02*
X141604000Y-75986926D01*
X140471000Y-82479000D02*
X140471000Y-81605638D01*
X139850000Y-82700000D02*
X140250000Y-82700000D01*
X140379000Y-81513638D02*
X140379000Y-80067633D01*
X140379000Y-79244893D02*
X140379000Y-77211926D01*
X140349121Y-80037754D02*
X140349121Y-79274772D01*
X141604000Y-73899026D02*
X145643026Y-69860000D01*
X140379000Y-80067633D02*
X140349121Y-80037754D01*
X140349121Y-79274772D02*
X140379000Y-79244893D01*
X140471000Y-81605638D02*
X140379000Y-81513638D01*
X141604000Y-75986926D02*
X141604000Y-73899026D01*
X140250000Y-82700000D02*
X140471000Y-82479000D01*
%TO.N,/Audio/R_HS_N*%
X172225000Y-111225000D02*
X171250000Y-111225000D01*
X173250000Y-112250000D02*
X172225000Y-111225000D01*
X166800000Y-111400000D02*
X166800000Y-112000000D01*
X175250000Y-114500000D02*
X185400000Y-114500000D01*
X175250000Y-114500000D02*
X174250000Y-113500000D01*
X186750000Y-115850000D02*
X185400000Y-114500000D01*
X170475000Y-112000000D02*
X171250000Y-111225000D01*
X166200000Y-110800000D02*
X166800000Y-111400000D01*
X168000000Y-112000000D02*
X170475000Y-112000000D01*
X164200000Y-110800000D02*
X166200000Y-110800000D01*
%TO.N,/ESP32 Microcontroller/SPIFLASH_CS0*%
X145600000Y-72400000D02*
X148000000Y-72400000D01*
X138840000Y-82474638D02*
X139465362Y-83100000D01*
X144900000Y-71700000D02*
X145600000Y-72400000D01*
X138700000Y-71700000D02*
X138700000Y-81994904D01*
X139465362Y-83100000D02*
X139850000Y-83100000D01*
X138840000Y-82134904D02*
X138840000Y-82474638D01*
X138700000Y-81994904D02*
X138840000Y-82134904D01*
%TO.N,/ESP32 Microcontroller/SPIFLASH_HD*%
X140012501Y-71130000D02*
X140825000Y-71130000D01*
X139850000Y-82300000D02*
X139465362Y-82300000D01*
X139229000Y-71913501D02*
X140012501Y-71130000D01*
X139229000Y-82063638D02*
X139229000Y-71913501D01*
X139465362Y-82300000D02*
X139229000Y-82063638D01*
%TO.N,/I2C_SDA*%
X135800000Y-116000000D02*
X133600000Y-116000000D01*
X140979232Y-112900000D02*
X138900000Y-112900000D01*
X141579232Y-112300000D02*
X140979232Y-112900000D01*
X142350926Y-112300000D02*
X141579232Y-112300000D01*
X129200000Y-123400000D02*
X100800000Y-123400000D01*
X98200000Y-122600000D02*
X97000000Y-121400000D01*
X177643000Y-78000000D02*
X175770000Y-76127000D01*
X130000000Y-122600000D02*
X129800000Y-122800000D01*
X129800000Y-122800000D02*
X129200000Y-123400000D01*
X144600000Y-110050926D02*
X142350926Y-112300000D01*
X157712500Y-106800000D02*
X159250000Y-106800000D01*
X136400000Y-115400000D02*
X135800000Y-116000000D01*
X159250000Y-106800000D02*
X159300000Y-106750000D01*
X182625001Y-82750000D02*
X178000000Y-78124999D01*
X159300000Y-108300000D02*
X159300000Y-106750000D01*
X146000000Y-83100000D02*
X145900000Y-83200000D01*
X97000000Y-121400000D02*
X97000000Y-116387500D01*
X133600000Y-116000000D02*
X133200000Y-116000000D01*
X98200000Y-123400000D02*
X98200000Y-122600000D01*
X183075000Y-82750000D02*
X182625001Y-82750000D01*
X144600000Y-110000000D02*
X144600000Y-110050926D01*
X178000000Y-78000000D02*
X177643000Y-78000000D01*
X146750000Y-83100000D02*
X146000000Y-83100000D01*
X178000000Y-78124999D02*
X178000000Y-78000000D01*
X133200000Y-116000000D02*
X130000000Y-119200000D01*
X130000000Y-119200000D02*
X130000000Y-122600000D01*
%TO.N,/I2C_SCL*%
X183075000Y-82250000D02*
X182625001Y-82250000D01*
X178551000Y-78175999D02*
X178551000Y-77551000D01*
X160124999Y-105880097D02*
X160124999Y-107475001D01*
X160240000Y-105730768D02*
X160240000Y-105765096D01*
X160540000Y-105430768D02*
X160240000Y-105730768D01*
X128200000Y-122400000D02*
X128200000Y-119400000D01*
X160540000Y-104460000D02*
X160540000Y-105430768D01*
X132200000Y-115400000D02*
X135300000Y-115400000D01*
X105500000Y-123000000D02*
X127600000Y-123000000D01*
X146750000Y-82700000D02*
X146300000Y-82700000D01*
X178310000Y-77310000D02*
X178310000Y-76000000D01*
X160124999Y-107475001D02*
X160000000Y-107600000D01*
X127600000Y-123000000D02*
X128200000Y-122400000D01*
X97375001Y-120875001D02*
X99000000Y-122500000D01*
X146300000Y-82700000D02*
X145900000Y-82300000D01*
X128200000Y-119400000D02*
X132200000Y-115400000D01*
X182625001Y-82250000D02*
X178551000Y-78175999D01*
X160240000Y-105765096D02*
X160124999Y-105880097D01*
X97500000Y-116387500D02*
X97375001Y-116512499D01*
X105000000Y-122500000D02*
X105500000Y-123000000D01*
X157712500Y-104900000D02*
X160100000Y-104900000D01*
X160100000Y-104900000D02*
X160540000Y-104460000D01*
X178551000Y-77551000D02*
X178310000Y-77310000D01*
X97375001Y-116512499D02*
X97375001Y-120875001D01*
%TO.N,/ESP32 Microcontroller/SPIFLASH_D*%
X139850000Y-84300000D02*
X139307718Y-84300000D01*
X139109074Y-68590000D02*
X140825000Y-68590000D01*
X136550000Y-71149074D02*
X139109074Y-68590000D01*
X136550000Y-81542282D02*
X136550000Y-71149074D01*
X139307718Y-84300000D02*
X136550000Y-81542282D01*
%TO.N,/Audio/Mic_Bias*%
X166054000Y-115054000D02*
X165629000Y-114629000D01*
X166750000Y-117375000D02*
X166054000Y-116679000D01*
X162551000Y-124949000D02*
X171851000Y-124949000D01*
X170504000Y-117996000D02*
X171396000Y-117104000D01*
X164419239Y-112500000D02*
X163500000Y-112500000D01*
X167371000Y-117996000D02*
X170504000Y-117996000D01*
X165629000Y-114629000D02*
X165629000Y-113709761D01*
X171851000Y-124949000D02*
X174000000Y-122800000D01*
X166750000Y-117375000D02*
X167371000Y-117996000D01*
X171396000Y-117104000D02*
X172440974Y-117104000D01*
X165629000Y-113709761D02*
X164419239Y-112500000D01*
X172440974Y-117104000D02*
X174000000Y-118663026D01*
X174000000Y-122800000D02*
X174000000Y-118663026D01*
X162500000Y-125000000D02*
X162551000Y-124949000D01*
X166054000Y-116679000D02*
X166054000Y-115054000D01*
%TO.N,/HMI Controller/ROW_A*%
X132750000Y-58250000D02*
X131529000Y-59471000D01*
X155971000Y-59471000D02*
X154750000Y-58250000D01*
X176750000Y-58250000D02*
X175529000Y-59471000D01*
X133971000Y-59471000D02*
X132750000Y-58250000D01*
X131529000Y-59471000D02*
X111971000Y-59471000D01*
X111971000Y-59471000D02*
X110750000Y-58250000D01*
X153529000Y-59471000D02*
X133971000Y-59471000D01*
X154750000Y-58250000D02*
X153529000Y-59471000D01*
X98000000Y-106600000D02*
X99400000Y-105200000D01*
X175529000Y-59471000D02*
X155971000Y-59471000D01*
X98000000Y-112512500D02*
X98000000Y-106600000D01*
%TO.N,/HMI Controller/VFO_A*%
X95312500Y-115200000D02*
X94900001Y-115200000D01*
X93200000Y-116900001D02*
X93200000Y-117600000D01*
X94900001Y-115200000D02*
X93200000Y-116900001D01*
%TO.N,/HMI Controller/SWCLK*%
X99250000Y-115762500D02*
X99187500Y-115700000D01*
X87500000Y-125800000D02*
X88800000Y-125800000D01*
X99250000Y-118000000D02*
X99250000Y-115762500D01*
X88800000Y-125800000D02*
X89000000Y-126000000D01*
X88480000Y-128750000D02*
X88480000Y-126520000D01*
X88480000Y-126520000D02*
X89000000Y-126000000D01*
%TO.N,/HMI Controller/POW_SW*%
X98000000Y-116387500D02*
X98000000Y-117200000D01*
%TO.N,/HMI Controller/VFO_SW*%
X94700000Y-113200000D02*
X94500000Y-113400000D01*
X95312500Y-113200000D02*
X94700000Y-113200000D01*
%TO.N,/HMI Controller/~{RST}*%
X98500000Y-121000000D02*
X98500000Y-117519239D01*
X98500000Y-117519239D02*
X98650000Y-117369239D01*
X98650000Y-117369239D02*
X98650000Y-116537500D01*
X94000000Y-129000000D02*
X92540000Y-129000000D01*
X98650000Y-116537500D02*
X98500000Y-116387500D01*
%TO.N,/HMI Controller/VFO_B*%
X93900000Y-117112500D02*
X93900000Y-117500000D01*
X95312500Y-115700000D02*
X93900000Y-117112500D01*
%TO.N,/HMI Controller/ROW_B*%
X95662500Y-112850000D02*
X83750000Y-112850000D01*
X96000000Y-112512500D02*
X95662500Y-112850000D01*
%TO.N,/HMI Controller/NAV_B*%
X91800000Y-114180000D02*
X95292500Y-114180000D01*
%TO.N,/HMI Controller/NAV_DIR*%
X96525000Y-102100000D02*
X96525000Y-100610000D01*
X97000000Y-104075000D02*
X96525000Y-103600000D01*
X97000000Y-112512500D02*
X97000000Y-104075000D01*
X96525000Y-100610000D02*
X96525000Y-99100000D01*
X96525000Y-103600000D02*
X96525000Y-102100000D01*
%TO.N,/HMI Controller/NAV_SW*%
X93947000Y-114700000D02*
X95312500Y-114700000D01*
X91927000Y-116720000D02*
X93947000Y-114700000D01*
%TO.N,/HMI Controller/SWDIO*%
X100000000Y-117250000D02*
X100000000Y-115500000D01*
X99700000Y-115200000D02*
X99187500Y-115200000D01*
X86000000Y-129000000D02*
X86960000Y-129000000D01*
X100000000Y-115500000D02*
X99700000Y-115200000D01*
%TO.N,/HMI Controller/VFO_ADJ_A*%
X95533268Y-116387500D02*
X94599997Y-117320771D01*
X96000000Y-116387500D02*
X95533268Y-116387500D01*
X94599997Y-117320771D02*
X94599997Y-117400000D01*
%TO.N,/HMI Controller/VFO_ADJ_B*%
X96500000Y-116387500D02*
X96500000Y-116799999D01*
X96500000Y-116799999D02*
X95899999Y-117400000D01*
X95899999Y-117400000D02*
X95300000Y-117400000D01*
%TO.N,/HMI Controller/ROW_C*%
X132750000Y-133000000D02*
X133971000Y-134221000D01*
X98500000Y-112512500D02*
X99612500Y-111400000D01*
X153529000Y-134221000D02*
X154750000Y-133000000D01*
X133971000Y-134221000D02*
X153529000Y-134221000D01*
X104800000Y-127800000D02*
X109450000Y-127800000D01*
X154750000Y-133000000D02*
X155971000Y-134221000D01*
X175529000Y-134221000D02*
X176750000Y-133000000D01*
X99612500Y-111400000D02*
X100300000Y-111400000D01*
X103900000Y-118400000D02*
X103900000Y-122300000D01*
X103900000Y-122300000D02*
X103400000Y-122800000D01*
X155971000Y-134221000D02*
X175529000Y-134221000D01*
X131529000Y-134221000D02*
X132750000Y-133000000D01*
X110750000Y-133000000D02*
X111971000Y-134221000D01*
X111971000Y-134221000D02*
X131529000Y-134221000D01*
X109450000Y-127800000D02*
X110750000Y-126500000D01*
%TO.N,/HMI Controller/RGB_DATA*%
X108750000Y-54250000D02*
X108300000Y-54700000D01*
X103100000Y-100762500D02*
X103100000Y-99700000D01*
X104100000Y-75300000D02*
X104100000Y-98700000D01*
X103100000Y-99700000D02*
X104100000Y-98700000D01*
X102306122Y-100762500D02*
X103100000Y-100762500D01*
X110000000Y-54250000D02*
X108750000Y-54250000D01*
X100100000Y-101400000D02*
X101668622Y-101400000D01*
X108200000Y-71200000D02*
X104100000Y-75300000D01*
X101668622Y-101400000D02*
X102306122Y-100762500D01*
%TO.N,/HMI Controller/NAV_A*%
X96039999Y-111640000D02*
X96500000Y-112100001D01*
X96500000Y-112100001D02*
X96500000Y-112512500D01*
X92054000Y-111640000D02*
X96039999Y-111640000D01*
%TO.N,/Audio/I2S_ADCOUT*%
X157211787Y-102660000D02*
X156999787Y-102872000D01*
X163624999Y-103421881D02*
X162844118Y-102641000D01*
X145950000Y-81100000D02*
X145900000Y-81050000D01*
X152968239Y-102951000D02*
X152161048Y-102951000D01*
X163500000Y-107600000D02*
X163624999Y-107475001D01*
X152161048Y-102951000D02*
X152105024Y-102894976D01*
X153047239Y-102872000D02*
X152968239Y-102951000D01*
X163624999Y-107475001D02*
X163624999Y-103421881D01*
X161271606Y-102660000D02*
X157211787Y-102660000D01*
X161290606Y-102641000D02*
X161271606Y-102660000D01*
X146800000Y-81100000D02*
X145950000Y-81100000D01*
X162844118Y-102641000D02*
X161290606Y-102641000D01*
X156999787Y-102872000D02*
X153047239Y-102872000D01*
%TO.N,/Audio/I2S_MCLK*%
X162946000Y-103647978D02*
X162677022Y-103379000D01*
X162500000Y-107600000D02*
X162500000Y-107047452D01*
X161061978Y-103640000D02*
X153187164Y-103640000D01*
X150570897Y-103219776D02*
X151171121Y-103820000D01*
X153187164Y-103640000D02*
X153007164Y-103820000D01*
X162946000Y-106601452D02*
X162946000Y-103647978D01*
X147322844Y-82300000D02*
X147700000Y-82677156D01*
X161322978Y-103379000D02*
X161061978Y-103640000D01*
X162677022Y-103379000D02*
X161322978Y-103379000D01*
X146750000Y-82300000D02*
X147322844Y-82300000D01*
X151171121Y-103820000D02*
X153007164Y-103820000D01*
X162500000Y-107047452D02*
X162946000Y-106601452D01*
%TO.N,/Audio/I2S_ADCIN*%
X161785961Y-102980000D02*
X161269430Y-102980000D01*
X152928640Y-103445976D02*
X153180616Y-103194000D01*
X163266000Y-103515430D02*
X163266000Y-106734000D01*
X147900000Y-81900000D02*
X146750000Y-81900000D01*
X161803961Y-102962000D02*
X161785961Y-102980000D01*
X153180616Y-103194000D02*
X153049723Y-103324893D01*
X148000000Y-82000000D02*
X147900000Y-81900000D01*
X161804961Y-102962000D02*
X162712570Y-102962000D01*
X161269430Y-102980000D02*
X161055430Y-103194000D01*
X151480816Y-103050000D02*
X151876792Y-103445976D01*
X162712570Y-102962000D02*
X163266000Y-103515430D01*
X151250000Y-103050000D02*
X151480816Y-103050000D01*
X151876792Y-103445976D02*
X152928640Y-103445976D01*
X163000000Y-107000000D02*
X163000000Y-107600000D01*
X161055430Y-103194000D02*
X153180616Y-103194000D01*
X163266000Y-106734000D02*
X163000000Y-107000000D01*
%TO.N,/Audio/I2S_BCLK*%
X164000000Y-108100000D02*
X164000000Y-103344334D01*
X164200000Y-108300000D02*
X164000000Y-108100000D01*
X161158058Y-102321000D02*
X161139058Y-102340000D01*
X162976666Y-102321000D02*
X161158058Y-102321000D01*
X154817925Y-102340000D02*
X154606925Y-102551000D01*
X145721000Y-80429000D02*
X145500000Y-80650000D01*
X154606925Y-102551000D02*
X152751000Y-102551000D01*
X147375000Y-80675000D02*
X147219000Y-80519000D01*
X164000000Y-103344334D02*
X162976666Y-102321000D01*
X146155053Y-80519000D02*
X146065053Y-80429000D01*
X146065053Y-80429000D02*
X145721000Y-80429000D01*
X161139058Y-102340000D02*
X154817925Y-102340000D01*
X152751000Y-102551000D02*
X152600000Y-102400000D01*
X145500000Y-80650000D02*
X145500000Y-81050000D01*
X147219000Y-80519000D02*
X146155053Y-80519000D01*
%TO.N,/Audio/I2S_FS*%
X164500000Y-107700000D02*
X164821000Y-108021000D01*
X149750000Y-82050000D02*
X149800000Y-82050000D01*
X153300000Y-102022000D02*
X153127000Y-101849000D01*
X161026510Y-102000000D02*
X163109628Y-102000000D01*
X153302000Y-102020000D02*
X161006510Y-102020000D01*
X163109628Y-102000000D02*
X164500000Y-103390372D01*
X147808000Y-80108000D02*
X149750000Y-82050000D01*
X164821000Y-108021000D02*
X164821000Y-108578999D01*
X161006510Y-102020000D02*
X161026510Y-102000000D01*
X164500000Y-103390372D02*
X164500000Y-107700000D01*
X153300000Y-102022000D02*
X153302000Y-102020000D01*
X164821000Y-108578999D02*
X164599999Y-108800000D01*
X145100000Y-80596037D02*
X145588037Y-80108000D01*
X164599999Y-108800000D02*
X164200000Y-108800000D01*
X151751828Y-101849000D02*
X150826414Y-100923586D01*
X145100000Y-81050000D02*
X145100000Y-80596037D01*
X153127000Y-101849000D02*
X151751828Y-101849000D01*
X145588037Y-80108000D02*
X147808000Y-80108000D01*
D101*
%TO.N,/Audio/SP_P*%
X156665000Y-112750000D02*
X159750000Y-112750000D01*
X159750000Y-112750000D02*
X160000000Y-112500000D01*
X153315000Y-116100000D02*
X156665000Y-112750000D01*
%TO.N,/Audio/SP_N*%
X155250000Y-112250000D02*
X152900000Y-114600000D01*
X159300000Y-111300000D02*
X158700000Y-111300000D01*
X157750000Y-112250000D02*
X155250000Y-112250000D01*
X158700000Y-111300000D02*
X157750000Y-112250000D01*
D97*
%TO.N,Net-(S901B-DO)*%
X132000000Y-54250000D02*
X131339000Y-54911000D01*
X131339000Y-54911000D02*
X115839000Y-54911000D01*
X115839000Y-54911000D02*
X115000000Y-55750000D01*
%TO.N,Net-(S902B-DO)*%
X137533258Y-55216742D02*
X137000000Y-55750000D01*
X153510000Y-54250000D02*
X152543258Y-55216742D01*
X152543258Y-55216742D02*
X137533258Y-55216742D01*
%TO.N,Net-(S903B-DO)*%
X176000000Y-54250000D02*
X175441258Y-54808742D01*
X160431258Y-54808742D02*
X159490000Y-55750000D01*
X175441258Y-54808742D02*
X160431258Y-54808742D01*
%TO.N,Net-(S904B-DO)*%
X83000000Y-72750000D02*
X82529000Y-72279000D01*
X82529000Y-69744245D02*
X91473244Y-60800000D01*
X179000000Y-60800000D02*
X91473244Y-60800000D01*
X82529000Y-72279000D02*
X82529000Y-69744245D01*
X181000000Y-55750000D02*
X181000000Y-58800000D01*
X181000000Y-58800000D02*
X179000000Y-60800000D01*
%TO.N,Net-(S905B-DO)*%
X82900000Y-86950000D02*
X82429000Y-86479000D01*
X82429000Y-80520942D02*
X88000000Y-74949942D01*
X88000000Y-74949942D02*
X88000000Y-74250000D01*
X82429000Y-86479000D02*
X82429000Y-80520942D01*
%TO.N,Net-(S906B-DO)*%
X87900000Y-89149942D02*
X87900000Y-88450000D01*
X82529000Y-100679000D02*
X82529000Y-94520942D01*
X83000000Y-101150000D02*
X82529000Y-100679000D01*
X82529000Y-94520942D02*
X87900000Y-89149942D01*
%TO.N,Net-(S907B-DO)*%
X83000000Y-115350000D02*
X82529000Y-114879000D01*
X82529000Y-114879000D02*
X82529000Y-108820942D01*
X88000000Y-103349942D02*
X88000000Y-102650000D01*
X82529000Y-108820942D02*
X88000000Y-103349942D01*
%TO.N,Net-(S908B-DO)*%
X110000000Y-129000000D02*
X109441258Y-129558742D01*
X85449000Y-126651000D02*
X88000000Y-124100000D01*
X88000000Y-116850000D02*
X88000000Y-124100000D01*
X85771768Y-138551000D02*
X85449000Y-138228232D01*
X106865574Y-129558742D02*
X97873316Y-138551000D01*
X97873316Y-138551000D02*
X85771768Y-138551000D01*
X109441258Y-129558742D02*
X106865574Y-129558742D01*
X85449000Y-138228232D02*
X85449000Y-126651000D01*
%TO.N,Net-(S909B-DO)*%
X115490000Y-130500000D02*
X116390000Y-129600000D01*
X116390000Y-129600000D02*
X131400000Y-129600000D01*
X131400000Y-129600000D02*
X132000000Y-129000000D01*
%TO.N,Net-(S910B-DO)*%
X138390000Y-129600000D02*
X153400000Y-129600000D01*
X153400000Y-129600000D02*
X154000000Y-129000000D01*
X137490000Y-130500000D02*
X138390000Y-129600000D01*
%TO.N,Net-(S911B-DO)*%
X175400000Y-129600000D02*
X176000000Y-129000000D01*
X159490000Y-130500000D02*
X160390000Y-129600000D01*
X160390000Y-129600000D02*
X175400000Y-129600000D01*
%TO.N,/HMI Controller/RGB_DATA_3.3*%
X104100000Y-104700000D02*
X104100000Y-102687500D01*
X103708670Y-102637500D02*
X104050000Y-102637500D01*
X97500000Y-112512500D02*
X97500000Y-105300000D01*
X100821170Y-102700000D02*
X101842170Y-101679000D01*
X97500000Y-105300000D02*
X100100000Y-102700000D01*
X101842170Y-101679000D02*
X102750170Y-101679000D01*
X102750170Y-101679000D02*
X103708670Y-102637500D01*
X100100000Y-102700000D02*
X100821170Y-102700000D01*
%TO.N,/Nav Switch/Nav_Right_VD*%
X91800000Y-104020000D02*
X94455000Y-104020000D01*
X94455000Y-104020000D02*
X94875000Y-103600000D01*
%TO.N,/Nav Switch/Nav_Down_VD*%
X91800000Y-98940000D02*
X93460000Y-100600000D01*
X93460000Y-100600000D02*
X94875000Y-100600000D01*
%TO.N,/Nav Switch/Nav_Left_VD*%
X94255000Y-101480000D02*
X94875000Y-102100000D01*
X92054000Y-101480000D02*
X94255000Y-101480000D01*
%TO.N,/Nav Switch/Nav_Up_VD*%
X92054000Y-96400000D02*
X94754000Y-99100000D01*
%TD*%
%TA.AperFunction,Conductor*%
%TO.N,/Power/SW*%
G36*
X133559191Y-89218907D02*
G01*
X133595155Y-89268407D01*
X133600000Y-89299000D01*
X133600000Y-92376630D01*
X133589548Y-92420904D01*
X133462251Y-92675499D01*
X133445620Y-92708761D01*
X133445475Y-92709051D01*
X133445396Y-92709209D01*
X133430691Y-92738619D01*
X133227363Y-93145274D01*
X133184428Y-93188866D01*
X133138815Y-93200000D01*
X132322889Y-93200000D01*
X132267887Y-93183315D01*
X132240120Y-93164762D01*
X132240119Y-93164761D01*
X132240117Y-93164760D01*
X132240113Y-93164759D01*
X132163410Y-93149501D01*
X132163402Y-93149500D01*
X132163401Y-93149500D01*
X132163400Y-93149500D01*
X131636602Y-93149500D01*
X131636595Y-93149501D01*
X131559884Y-93164759D01*
X131532112Y-93183316D01*
X131477111Y-93200000D01*
X131200000Y-93200000D01*
X131200000Y-92600000D01*
X131439695Y-92600000D01*
X131494696Y-92616684D01*
X131543627Y-92649378D01*
X131559883Y-92660240D01*
X131636599Y-92675500D01*
X132163400Y-92675499D01*
X132240117Y-92660240D01*
X132286330Y-92629361D01*
X132305304Y-92616684D01*
X132360305Y-92600000D01*
X132399999Y-92600000D01*
X132400000Y-92600000D01*
X132400000Y-92448339D01*
X132400001Y-92447967D01*
X132400028Y-92440773D01*
X132400500Y-92438401D01*
X132400499Y-92315305D01*
X132400500Y-92315106D01*
X132410022Y-92286167D01*
X132419406Y-92257288D01*
X132419601Y-92257059D01*
X132419625Y-92256987D01*
X132419724Y-92256915D01*
X132429493Y-92245476D01*
X132440460Y-92234511D01*
X132440736Y-92234031D01*
X132440754Y-92234015D01*
X132440748Y-92234012D01*
X132480021Y-92165989D01*
X132500500Y-92089562D01*
X132500500Y-91360438D01*
X132480021Y-91284011D01*
X132440460Y-91215489D01*
X132384511Y-91159539D01*
X132384511Y-91159540D01*
X131708496Y-90483525D01*
X131680719Y-90429008D01*
X131679500Y-90413521D01*
X131679500Y-89299000D01*
X131698407Y-89240809D01*
X131747907Y-89204845D01*
X131778500Y-89200000D01*
X133501000Y-89200000D01*
X133559191Y-89218907D01*
G37*
%TD.AperFunction*%
%TD*%
%TA.AperFunction,Conductor*%
%TO.N,+5V*%
G36*
X137159191Y-92618907D02*
G01*
X137195155Y-92668407D01*
X137200000Y-92699000D01*
X137200000Y-94701000D01*
X137181093Y-94759191D01*
X137131593Y-94795155D01*
X137101000Y-94800000D01*
X133841008Y-94800000D01*
X133782817Y-94781093D01*
X133771004Y-94771004D01*
X133701000Y-94701000D01*
X132800000Y-93800000D01*
X132799999Y-93800000D01*
X132789611Y-93800000D01*
X132740110Y-93786736D01*
X132679590Y-93751794D01*
X132679589Y-93751793D01*
X132679588Y-93751793D01*
X132577727Y-93724500D01*
X132577725Y-93724500D01*
X132295523Y-93724500D01*
X132259364Y-93717660D01*
X132255633Y-93716196D01*
X132242509Y-93709780D01*
X132171949Y-93699500D01*
X132171945Y-93699500D01*
X131628056Y-93699500D01*
X131628046Y-93699501D01*
X131618769Y-93700853D01*
X131596503Y-93697042D01*
X131573907Y-93697042D01*
X131566943Y-93691982D01*
X131558461Y-93690531D01*
X131542686Y-93674358D01*
X131524407Y-93661078D01*
X131521747Y-93652891D01*
X131515738Y-93646731D01*
X131505500Y-93602887D01*
X131505500Y-93584058D01*
X131524407Y-93525867D01*
X131573907Y-93489903D01*
X131575689Y-93489343D01*
X131620792Y-93475662D01*
X131625935Y-93473229D01*
X131644380Y-93464506D01*
X131686709Y-93455000D01*
X132113290Y-93455000D01*
X132141682Y-93461375D01*
X132149449Y-93461840D01*
X132152586Y-93463071D01*
X132179203Y-93475660D01*
X132234205Y-93492345D01*
X132273620Y-93498191D01*
X132322884Y-93505500D01*
X132322889Y-93505500D01*
X133138808Y-93505500D01*
X133138815Y-93505500D01*
X133211260Y-93496786D01*
X133256873Y-93485652D01*
X133309944Y-93467391D01*
X133402083Y-93403241D01*
X133445018Y-93359649D01*
X133500611Y-93281898D01*
X133814197Y-92654726D01*
X133857132Y-92611134D01*
X133902745Y-92600000D01*
X137101000Y-92600000D01*
X137159191Y-92618907D01*
G37*
%TD.AperFunction*%
%TD*%
%TA.AperFunction,Conductor*%
%TO.N,+3.3V*%
G36*
X125688858Y-98018907D02*
G01*
X125724822Y-98068407D01*
X125724822Y-98129593D01*
X125714928Y-98150972D01*
X125665643Y-98230875D01*
X125610493Y-98397306D01*
X125600000Y-98500012D01*
X125600000Y-98624999D01*
X125600001Y-98625000D01*
X128399998Y-98625000D01*
X128399999Y-98624999D01*
X128399999Y-98500013D01*
X128389507Y-98397312D01*
X128389504Y-98397300D01*
X128334356Y-98230875D01*
X128285072Y-98150972D01*
X128270616Y-98091519D01*
X128293866Y-98034924D01*
X128345942Y-98002803D01*
X128369333Y-98000000D01*
X128585660Y-98000000D01*
X128643851Y-98018907D01*
X128679815Y-98068407D01*
X128679815Y-98129593D01*
X128678418Y-98133597D01*
X128656403Y-98192621D01*
X128656401Y-98192629D01*
X128650000Y-98252175D01*
X128650000Y-98649999D01*
X128650001Y-98650000D01*
X133349999Y-98650000D01*
X133350000Y-98649999D01*
X133350000Y-98252175D01*
X133343598Y-98192629D01*
X133343596Y-98192621D01*
X133321582Y-98133597D01*
X133318962Y-98072467D01*
X133352773Y-98021473D01*
X133410101Y-98000091D01*
X133414340Y-98000000D01*
X133700332Y-98000000D01*
X133758523Y-98018907D01*
X133794487Y-98068407D01*
X133794487Y-98129593D01*
X133770336Y-98169004D01*
X133757680Y-98181659D01*
X133665643Y-98330875D01*
X133610493Y-98497306D01*
X133600000Y-98600012D01*
X133600000Y-98724999D01*
X133600001Y-98725000D01*
X136399998Y-98725000D01*
X136399999Y-98724999D01*
X136399999Y-98600013D01*
X136389507Y-98497312D01*
X136389504Y-98497300D01*
X136334356Y-98330875D01*
X136242319Y-98181659D01*
X136229664Y-98169004D01*
X136201887Y-98114487D01*
X136211458Y-98054055D01*
X136254723Y-98010790D01*
X136299668Y-98000000D01*
X137750500Y-98000000D01*
X137808691Y-98018907D01*
X137844655Y-98068407D01*
X137849500Y-98099000D01*
X137849500Y-100501000D01*
X137830593Y-100559191D01*
X137781093Y-100595155D01*
X137750500Y-100600000D01*
X121099000Y-100600000D01*
X121040809Y-100581093D01*
X121004845Y-100531593D01*
X121000000Y-100501000D01*
X121000000Y-99869337D01*
X121018907Y-99811146D01*
X121068407Y-99775182D01*
X121129593Y-99775182D01*
X121150973Y-99785077D01*
X121272284Y-99859903D01*
X121437329Y-99914593D01*
X121539184Y-99925000D01*
X121794999Y-99925000D01*
X121795000Y-99924999D01*
X121795000Y-99187501D01*
X122295000Y-99187501D01*
X122295000Y-99924999D01*
X122295001Y-99925000D01*
X122550816Y-99925000D01*
X122652670Y-99914593D01*
X122817712Y-99859904D01*
X122965688Y-99768631D01*
X123088631Y-99645688D01*
X123179904Y-99497712D01*
X123234593Y-99332670D01*
X123245000Y-99230816D01*
X123245000Y-99187501D01*
X123244999Y-99187500D01*
X122295001Y-99187500D01*
X122295000Y-99187501D01*
X121795000Y-99187501D01*
X121795000Y-99125001D01*
X125600001Y-99125001D01*
X125600001Y-99249986D01*
X125610492Y-99352687D01*
X125610495Y-99352699D01*
X125665643Y-99519124D01*
X125757680Y-99668340D01*
X125881659Y-99792319D01*
X126030875Y-99884356D01*
X126197306Y-99939506D01*
X126300012Y-99949999D01*
X126749998Y-99949999D01*
X126750000Y-99949998D01*
X126750000Y-99125001D01*
X127250000Y-99125001D01*
X127250000Y-99949998D01*
X127250001Y-99949999D01*
X127699986Y-99949999D01*
X127802687Y-99939507D01*
X127802699Y-99939504D01*
X127969124Y-99884356D01*
X128118340Y-99792319D01*
X128242319Y-99668340D01*
X128316654Y-99547824D01*
X128649999Y-99547824D01*
X128656401Y-99607370D01*
X128656403Y-99607381D01*
X128706646Y-99742088D01*
X128706647Y-99742090D01*
X128792807Y-99857184D01*
X128792815Y-99857192D01*
X128907909Y-99943352D01*
X128907911Y-99943353D01*
X129042618Y-99993596D01*
X129042629Y-99993598D01*
X129102176Y-100000000D01*
X130749999Y-100000000D01*
X130750000Y-99999999D01*
X130750000Y-99150001D01*
X131250000Y-99150001D01*
X131250000Y-99999999D01*
X131250001Y-100000000D01*
X132897824Y-100000000D01*
X132957370Y-99993598D01*
X132957381Y-99993596D01*
X133092088Y-99943353D01*
X133092090Y-99943352D01*
X133207184Y-99857192D01*
X133207192Y-99857184D01*
X133293352Y-99742090D01*
X133293353Y-99742088D01*
X133343596Y-99607381D01*
X133343598Y-99607370D01*
X133350000Y-99547824D01*
X133350000Y-99225001D01*
X133600001Y-99225001D01*
X133600001Y-99349986D01*
X133610492Y-99452687D01*
X133610495Y-99452699D01*
X133665643Y-99619124D01*
X133757680Y-99768340D01*
X133881659Y-99892319D01*
X134030875Y-99984356D01*
X134197306Y-100039506D01*
X134300012Y-100049999D01*
X134749998Y-100049999D01*
X134750000Y-100049998D01*
X134750000Y-99225001D01*
X135250000Y-99225001D01*
X135250000Y-100049998D01*
X135250001Y-100049999D01*
X135699986Y-100049999D01*
X135802687Y-100039507D01*
X135802699Y-100039504D01*
X135969124Y-99984356D01*
X136118340Y-99892319D01*
X136242319Y-99768340D01*
X136334356Y-99619124D01*
X136389506Y-99452693D01*
X136400000Y-99349987D01*
X136400000Y-99225001D01*
X136399999Y-99225000D01*
X135250001Y-99225000D01*
X135250000Y-99225001D01*
X134750000Y-99225001D01*
X134749999Y-99225000D01*
X133600002Y-99225000D01*
X133600001Y-99225001D01*
X133350000Y-99225001D01*
X133350000Y-99150001D01*
X133349999Y-99150000D01*
X131250001Y-99150000D01*
X131250000Y-99150001D01*
X130750000Y-99150001D01*
X130749999Y-99150000D01*
X128650001Y-99150000D01*
X128650000Y-99150001D01*
X128650000Y-99547824D01*
X128649999Y-99547824D01*
X128316654Y-99547824D01*
X128334356Y-99519124D01*
X128389506Y-99352693D01*
X128400000Y-99249987D01*
X128400000Y-99125001D01*
X128399999Y-99125000D01*
X127250001Y-99125000D01*
X127250000Y-99125001D01*
X126750000Y-99125001D01*
X126749999Y-99125000D01*
X125600002Y-99125000D01*
X125600001Y-99125001D01*
X121795000Y-99125001D01*
X121795000Y-99036500D01*
X121813907Y-98978309D01*
X121863407Y-98942345D01*
X121894000Y-98937500D01*
X122044999Y-98937500D01*
X122045000Y-98937499D01*
X122045000Y-98786500D01*
X122063907Y-98728309D01*
X122113407Y-98692345D01*
X122144000Y-98687500D01*
X123244999Y-98687500D01*
X123245000Y-98687499D01*
X123245000Y-98644183D01*
X123234593Y-98542329D01*
X123179904Y-98377287D01*
X123088631Y-98229311D01*
X123028324Y-98169004D01*
X123000547Y-98114487D01*
X123010118Y-98054055D01*
X123053383Y-98010790D01*
X123098328Y-98000000D01*
X125630667Y-98000000D01*
X125688858Y-98018907D01*
G37*
%TD.AperFunction*%
%TD*%
%TA.AperFunction,Conductor*%
%TO.N,GND*%
G36*
X127542212Y-90218907D02*
G01*
X127554025Y-90228996D01*
X128171004Y-90845975D01*
X128198781Y-90900492D01*
X128200000Y-90915979D01*
X128200000Y-91701000D01*
X128181093Y-91759191D01*
X128131593Y-91795155D01*
X128101000Y-91800000D01*
X117899000Y-91800000D01*
X117840809Y-91781093D01*
X117804845Y-91731593D01*
X117800000Y-91701000D01*
X117800000Y-90299000D01*
X117818907Y-90240809D01*
X117868407Y-90204845D01*
X117899000Y-90200000D01*
X127484021Y-90200000D01*
X127542212Y-90218907D01*
G37*
%TD.AperFunction*%
%TD*%
%TA.AperFunction,Conductor*%
%TO.N,/ESP32 Microcontroller/VDD33A*%
G36*
X146085648Y-87544352D02*
G01*
X146100000Y-87579000D01*
X146100000Y-88030000D01*
X147500000Y-89430000D01*
X148851000Y-89430000D01*
X148885648Y-89444352D01*
X148900000Y-89479000D01*
X148900000Y-90781000D01*
X148885648Y-90815648D01*
X148851000Y-90830000D01*
X146249000Y-90830000D01*
X146214352Y-90815648D01*
X146200000Y-90781000D01*
X146200000Y-89329999D01*
X145700001Y-88730000D01*
X145700000Y-88730000D01*
X145474500Y-88730000D01*
X145439852Y-88715648D01*
X145425500Y-88681000D01*
X145425500Y-87907144D01*
X145425499Y-87907143D01*
X145402487Y-87821260D01*
X145403138Y-87821085D01*
X145400500Y-87807812D01*
X145400500Y-87579000D01*
X145414852Y-87544352D01*
X145449500Y-87530000D01*
X146051000Y-87530000D01*
X146085648Y-87544352D01*
G37*
%TD.AperFunction*%
%TD*%
%TA.AperFunction,Conductor*%
%TO.N,/Power/SW*%
G36*
X131200000Y-93200000D02*
G01*
X131200000Y-94533333D01*
X133132308Y-95177436D01*
X133181532Y-95213774D01*
X133200000Y-95271355D01*
X133200000Y-96701000D01*
X133181093Y-96759191D01*
X133131593Y-96795155D01*
X133101000Y-96800000D01*
X128899000Y-96800000D01*
X128840809Y-96781093D01*
X128804845Y-96731593D01*
X128800000Y-96701000D01*
X128800000Y-95467025D01*
X128818907Y-95408834D01*
X128862228Y-95375108D01*
X130800000Y-94600000D01*
X130800000Y-93743516D01*
X130801219Y-93728027D01*
X130805500Y-93701000D01*
X130805500Y-92738619D01*
X130803564Y-92710482D01*
X130803432Y-92709209D01*
X130803465Y-92709051D01*
X130803446Y-92708767D01*
X130803527Y-92708761D01*
X130816238Y-92649378D01*
X130861766Y-92608502D01*
X130901904Y-92600000D01*
X131200000Y-92600000D01*
X131200000Y-93200000D01*
G37*
%TD.AperFunction*%
%TD*%
%TA.AperFunction,Conductor*%
%TO.N,+3.3V*%
G36*
X104193039Y-110019685D02*
G01*
X104238794Y-110072489D01*
X104250000Y-110124000D01*
X104250000Y-112096087D01*
X104230315Y-112163126D01*
X104177511Y-112208881D01*
X104108353Y-112218825D01*
X104060903Y-112201626D01*
X103958486Y-112138454D01*
X103958481Y-112138452D01*
X103797606Y-112085144D01*
X103698322Y-112075000D01*
X103650000Y-112075000D01*
X103650000Y-112901000D01*
X103630315Y-112968039D01*
X103577511Y-113013794D01*
X103526000Y-113025000D01*
X103400000Y-113025000D01*
X103400000Y-113151000D01*
X103380315Y-113218039D01*
X103327511Y-113263794D01*
X103276000Y-113275000D01*
X102024000Y-113275000D01*
X101956961Y-113255315D01*
X101911206Y-113202511D01*
X101900000Y-113151000D01*
X101900000Y-113025000D01*
X101774000Y-113025000D01*
X101706961Y-113005315D01*
X101661206Y-112952511D01*
X101650000Y-112901000D01*
X101650000Y-112075000D01*
X102150000Y-112075000D01*
X102150000Y-112775000D01*
X103150000Y-112775000D01*
X103150000Y-112075000D01*
X103149999Y-112074999D01*
X103101693Y-112075000D01*
X103101675Y-112075001D01*
X103002392Y-112085144D01*
X102841518Y-112138452D01*
X102841507Y-112138457D01*
X102715097Y-112216429D01*
X102647705Y-112234870D01*
X102584903Y-112216429D01*
X102458492Y-112138457D01*
X102458481Y-112138452D01*
X102297606Y-112085144D01*
X102198322Y-112075000D01*
X102150000Y-112075000D01*
X101650000Y-112075000D01*
X101649999Y-112074999D01*
X101601693Y-112075000D01*
X101601675Y-112075001D01*
X101502391Y-112085144D01*
X101413003Y-112114764D01*
X101384543Y-112115742D01*
X101356353Y-112119796D01*
X101350072Y-112116927D01*
X101343175Y-112117165D01*
X101318706Y-112102603D01*
X101292797Y-112090771D01*
X101289064Y-112084962D01*
X101283133Y-112081433D01*
X101270419Y-112055950D01*
X101255023Y-112031993D01*
X101253628Y-112022295D01*
X101251941Y-112018913D01*
X101250000Y-111997058D01*
X101250000Y-111873999D01*
X101269685Y-111806960D01*
X101322489Y-111761205D01*
X101374000Y-111749999D01*
X101649999Y-111749999D01*
X102150000Y-111749999D01*
X102424972Y-111749999D01*
X102424986Y-111749998D01*
X102527697Y-111739505D01*
X102694119Y-111684358D01*
X102694124Y-111684356D01*
X102843345Y-111592315D01*
X102967315Y-111468345D01*
X103059356Y-111319124D01*
X103059358Y-111319119D01*
X103114505Y-111152697D01*
X103114506Y-111152690D01*
X103124999Y-111049986D01*
X103125000Y-111049973D01*
X103125000Y-111000000D01*
X102150000Y-111000000D01*
X102150000Y-111749999D01*
X101649999Y-111749999D01*
X101650000Y-111749998D01*
X101650000Y-110874000D01*
X101669685Y-110806961D01*
X101722489Y-110761206D01*
X101774000Y-110750000D01*
X101900000Y-110750000D01*
X101900000Y-110624000D01*
X101919685Y-110556961D01*
X101972489Y-110511206D01*
X102024000Y-110500000D01*
X103124999Y-110500000D01*
X103124999Y-110450028D01*
X103124998Y-110450013D01*
X103114505Y-110347302D01*
X103059357Y-110180877D01*
X103057271Y-110176403D01*
X103046780Y-110107325D01*
X103075301Y-110043542D01*
X103133779Y-110005303D01*
X103169654Y-110000000D01*
X104126000Y-110000000D01*
X104193039Y-110019685D01*
G37*
%TD.AperFunction*%
%TD*%
%TA.AperFunction,Conductor*%
%TO.N,+5V*%
G36*
X120959191Y-81018907D02*
G01*
X120995155Y-81068407D01*
X121000000Y-81099000D01*
X121000000Y-82560977D01*
X120981093Y-82619168D01*
X120973374Y-82628527D01*
X118201175Y-85598740D01*
X118198805Y-85601194D01*
X117000000Y-86800000D01*
X117000000Y-91400000D01*
X117999998Y-92599999D01*
X117999999Y-92599999D01*
X118000000Y-92600000D01*
X128600000Y-92600000D01*
X129639695Y-92600000D01*
X129694696Y-92616684D01*
X129729144Y-92639701D01*
X129759883Y-92660240D01*
X129836599Y-92675500D01*
X130363400Y-92675499D01*
X130440117Y-92660240D01*
X130445996Y-92656311D01*
X130504883Y-92639701D01*
X130562287Y-92660876D01*
X130596282Y-92711748D01*
X130600000Y-92738625D01*
X130600000Y-93701000D01*
X130595155Y-93715911D01*
X130595155Y-93731593D01*
X130585938Y-93744278D01*
X130581093Y-93759191D01*
X130568407Y-93768407D01*
X130559191Y-93781093D01*
X130544278Y-93785938D01*
X130531593Y-93795155D01*
X130501000Y-93800000D01*
X130373342Y-93800000D01*
X130363641Y-93799524D01*
X130363404Y-93799500D01*
X130363401Y-93799500D01*
X130363397Y-93799500D01*
X129836603Y-93799500D01*
X129836370Y-93799524D01*
X129826669Y-93800000D01*
X129199999Y-93800000D01*
X128832157Y-94535684D01*
X128813613Y-94561413D01*
X128404024Y-94971003D01*
X128349507Y-94998781D01*
X128334020Y-95000000D01*
X117291008Y-95000000D01*
X117232817Y-94981093D01*
X117221004Y-94971004D01*
X116028996Y-93778996D01*
X116001219Y-93724479D01*
X116000000Y-93708992D01*
X116000000Y-86042429D01*
X116018907Y-85984238D01*
X116030724Y-85970739D01*
X120200000Y-82000000D01*
X120200000Y-81459530D01*
X120207536Y-81421643D01*
X120210236Y-81415122D01*
X120210240Y-81415117D01*
X120225500Y-81338401D01*
X120225500Y-81099000D01*
X120244407Y-81040809D01*
X120293907Y-81004845D01*
X120324500Y-81000000D01*
X120901000Y-81000000D01*
X120959191Y-81018907D01*
G37*
%TD.AperFunction*%
%TD*%
%TA.AperFunction,Conductor*%
%TO.N,+3.3V*%
G36*
X150789228Y-85570185D02*
G01*
X150809870Y-85586819D01*
X151009181Y-85786130D01*
X151042666Y-85847453D01*
X151045500Y-85873811D01*
X151045500Y-86676000D01*
X151025815Y-86743039D01*
X150973011Y-86788794D01*
X150921500Y-86800000D01*
X147544370Y-86800000D01*
X147482368Y-86783386D01*
X147471420Y-86777064D01*
X147407813Y-86760021D01*
X147376011Y-86751500D01*
X147250614Y-86751500D01*
X147155204Y-86777064D01*
X147145123Y-86782886D01*
X147083121Y-86799500D01*
X146424000Y-86799500D01*
X146356961Y-86779815D01*
X146311206Y-86727011D01*
X146300000Y-86675500D01*
X146300000Y-86324500D01*
X146319685Y-86257461D01*
X146372489Y-86211706D01*
X146424000Y-86200500D01*
X147352586Y-86200500D01*
X147352588Y-86200500D01*
X147429015Y-86180021D01*
X147497537Y-86140460D01*
X147553486Y-86084511D01*
X148051178Y-85586819D01*
X148112501Y-85553334D01*
X148138859Y-85550500D01*
X150722189Y-85550500D01*
X150789228Y-85570185D01*
G37*
%TD.AperFunction*%
%TD*%
%TA.AperFunction,Conductor*%
%TO.N,/Battery/Vusb*%
G36*
X122843039Y-80119685D02*
G01*
X122888794Y-80172489D01*
X122900000Y-80224000D01*
X122900000Y-81078093D01*
X122880315Y-81145132D01*
X122827511Y-81190887D01*
X122758353Y-81200831D01*
X122711012Y-81183699D01*
X121780782Y-80611250D01*
X121734004Y-80559350D01*
X121731193Y-80553057D01*
X121725499Y-80539297D01*
X121725499Y-80536600D01*
X121710240Y-80459883D01*
X121663999Y-80390678D01*
X121659320Y-80379371D01*
X121656848Y-80356308D01*
X121649917Y-80334172D01*
X121650495Y-80319795D01*
X121650500Y-80319744D01*
X121650500Y-80224000D01*
X121670185Y-80156961D01*
X121722989Y-80111206D01*
X121774500Y-80100000D01*
X122776000Y-80100000D01*
X122843039Y-80119685D01*
G37*
%TD.AperFunction*%
%TD*%
M02*
