%TF.GenerationSoftware,KiCad,Pcbnew,9.0.2-9.0.2-0~ubuntu24.04.1*%
%TF.CreationDate,2025-06-13T08:12:44-04:00*%
%TF.ProjectId,minstro_combined_board,6d696e73-7472-46f5-9f63-6f6d62696e65,rev?*%
%TF.SameCoordinates,Original*%
%TF.FileFunction,Legend,Bot*%
%TF.FilePolarity,Positive*%
%FSLAX46Y46*%
G04 Gerber Fmt 4.6, Leading zero omitted, Abs format (unit mm)*
G04 Created by KiCad (PCBNEW 9.0.2-9.0.2-0~ubuntu24.04.1) date 2025-06-13 08:12:44*
%MOMM*%
%LPD*%
G01*
G04 APERTURE LIST*
%ADD10C,0.100000*%
%ADD11C,0.050000*%
%ADD12C,0.150000*%
%ADD13C,0.010000*%
G04 APERTURE END LIST*
D10*
X134993734Y-82566816D02*
X134517544Y-82566816D01*
X135088972Y-82852531D02*
X134755639Y-81852531D01*
X134755639Y-81852531D02*
X134422306Y-82852531D01*
X133755639Y-82328721D02*
X133612782Y-82376340D01*
X133612782Y-82376340D02*
X133565163Y-82423959D01*
X133565163Y-82423959D02*
X133517544Y-82519197D01*
X133517544Y-82519197D02*
X133517544Y-82662054D01*
X133517544Y-82662054D02*
X133565163Y-82757292D01*
X133565163Y-82757292D02*
X133612782Y-82804912D01*
X133612782Y-82804912D02*
X133708020Y-82852531D01*
X133708020Y-82852531D02*
X134088972Y-82852531D01*
X134088972Y-82852531D02*
X134088972Y-81852531D01*
X134088972Y-81852531D02*
X133755639Y-81852531D01*
X133755639Y-81852531D02*
X133660401Y-81900150D01*
X133660401Y-81900150D02*
X133612782Y-81947769D01*
X133612782Y-81947769D02*
X133565163Y-82043007D01*
X133565163Y-82043007D02*
X133565163Y-82138245D01*
X133565163Y-82138245D02*
X133612782Y-82233483D01*
X133612782Y-82233483D02*
X133660401Y-82281102D01*
X133660401Y-82281102D02*
X133755639Y-82328721D01*
X133755639Y-82328721D02*
X134088972Y-82328721D01*
X132660401Y-82185864D02*
X132660401Y-82852531D01*
X132898496Y-81804912D02*
X133136591Y-82519197D01*
X133136591Y-82519197D02*
X132517544Y-82519197D01*
X132136591Y-82328721D02*
X131803258Y-82328721D01*
X131660401Y-82852531D02*
X132136591Y-82852531D01*
X132136591Y-82852531D02*
X132136591Y-81852531D01*
X132136591Y-81852531D02*
X131660401Y-81852531D01*
X131231829Y-82852531D02*
X131231829Y-81852531D01*
X131231829Y-81852531D02*
X130660401Y-82852531D01*
X130660401Y-82852531D02*
X130660401Y-81852531D01*
X134946115Y-84462475D02*
X134946115Y-83462475D01*
X134946115Y-83462475D02*
X134612782Y-84176760D01*
X134612782Y-84176760D02*
X134279449Y-83462475D01*
X134279449Y-83462475D02*
X134279449Y-84462475D01*
X133803258Y-84462475D02*
X133803258Y-83795808D01*
X133803258Y-83462475D02*
X133850877Y-83510094D01*
X133850877Y-83510094D02*
X133803258Y-83557713D01*
X133803258Y-83557713D02*
X133755639Y-83510094D01*
X133755639Y-83510094D02*
X133803258Y-83462475D01*
X133803258Y-83462475D02*
X133803258Y-83557713D01*
X133327068Y-83795808D02*
X133327068Y-84462475D01*
X133327068Y-83891046D02*
X133279449Y-83843427D01*
X133279449Y-83843427D02*
X133184211Y-83795808D01*
X133184211Y-83795808D02*
X133041354Y-83795808D01*
X133041354Y-83795808D02*
X132946116Y-83843427D01*
X132946116Y-83843427D02*
X132898497Y-83938665D01*
X132898497Y-83938665D02*
X132898497Y-84462475D01*
X132469925Y-84414856D02*
X132374687Y-84462475D01*
X132374687Y-84462475D02*
X132184211Y-84462475D01*
X132184211Y-84462475D02*
X132088973Y-84414856D01*
X132088973Y-84414856D02*
X132041354Y-84319617D01*
X132041354Y-84319617D02*
X132041354Y-84271998D01*
X132041354Y-84271998D02*
X132088973Y-84176760D01*
X132088973Y-84176760D02*
X132184211Y-84129141D01*
X132184211Y-84129141D02*
X132327068Y-84129141D01*
X132327068Y-84129141D02*
X132422306Y-84081522D01*
X132422306Y-84081522D02*
X132469925Y-83986284D01*
X132469925Y-83986284D02*
X132469925Y-83938665D01*
X132469925Y-83938665D02*
X132422306Y-83843427D01*
X132422306Y-83843427D02*
X132327068Y-83795808D01*
X132327068Y-83795808D02*
X132184211Y-83795808D01*
X132184211Y-83795808D02*
X132088973Y-83843427D01*
X131755639Y-83795808D02*
X131374687Y-83795808D01*
X131612782Y-83462475D02*
X131612782Y-84319617D01*
X131612782Y-84319617D02*
X131565163Y-84414856D01*
X131565163Y-84414856D02*
X131469925Y-84462475D01*
X131469925Y-84462475D02*
X131374687Y-84462475D01*
X131041353Y-84462475D02*
X131041353Y-83795808D01*
X131041353Y-83986284D02*
X130993734Y-83891046D01*
X130993734Y-83891046D02*
X130946115Y-83843427D01*
X130946115Y-83843427D02*
X130850877Y-83795808D01*
X130850877Y-83795808D02*
X130755639Y-83795808D01*
X130279448Y-84462475D02*
X130374686Y-84414856D01*
X130374686Y-84414856D02*
X130422305Y-84367236D01*
X130422305Y-84367236D02*
X130469924Y-84271998D01*
X130469924Y-84271998D02*
X130469924Y-83986284D01*
X130469924Y-83986284D02*
X130422305Y-83891046D01*
X130422305Y-83891046D02*
X130374686Y-83843427D01*
X130374686Y-83843427D02*
X130279448Y-83795808D01*
X130279448Y-83795808D02*
X130136591Y-83795808D01*
X130136591Y-83795808D02*
X130041353Y-83843427D01*
X130041353Y-83843427D02*
X129993734Y-83891046D01*
X129993734Y-83891046D02*
X129946115Y-83986284D01*
X129946115Y-83986284D02*
X129946115Y-84271998D01*
X129946115Y-84271998D02*
X129993734Y-84367236D01*
X129993734Y-84367236D02*
X130041353Y-84414856D01*
X130041353Y-84414856D02*
X130136591Y-84462475D01*
X130136591Y-84462475D02*
X130279448Y-84462475D01*
X128755638Y-84462475D02*
X128755638Y-83462475D01*
X128755638Y-83462475D02*
X128422305Y-84176760D01*
X128422305Y-84176760D02*
X128088972Y-83462475D01*
X128088972Y-83462475D02*
X128088972Y-84462475D01*
X127612781Y-84462475D02*
X127612781Y-83462475D01*
X127612781Y-83462475D02*
X127231829Y-83462475D01*
X127231829Y-83462475D02*
X127136591Y-83510094D01*
X127136591Y-83510094D02*
X127088972Y-83557713D01*
X127088972Y-83557713D02*
X127041353Y-83652951D01*
X127041353Y-83652951D02*
X127041353Y-83795808D01*
X127041353Y-83795808D02*
X127088972Y-83891046D01*
X127088972Y-83891046D02*
X127136591Y-83938665D01*
X127136591Y-83938665D02*
X127231829Y-83986284D01*
X127231829Y-83986284D02*
X127612781Y-83986284D01*
X126612781Y-83462475D02*
X126612781Y-84271998D01*
X126612781Y-84271998D02*
X126565162Y-84367236D01*
X126565162Y-84367236D02*
X126517543Y-84414856D01*
X126517543Y-84414856D02*
X126422305Y-84462475D01*
X126422305Y-84462475D02*
X126231829Y-84462475D01*
X126231829Y-84462475D02*
X126136591Y-84414856D01*
X126136591Y-84414856D02*
X126088972Y-84367236D01*
X126088972Y-84367236D02*
X126041353Y-84271998D01*
X126041353Y-84271998D02*
X126041353Y-83462475D01*
X124898495Y-83795808D02*
X124660400Y-84462475D01*
X124660400Y-84462475D02*
X124422305Y-83795808D01*
X123517543Y-84462475D02*
X124088971Y-84462475D01*
X123803257Y-84462475D02*
X123803257Y-83462475D01*
X123803257Y-83462475D02*
X123898495Y-83605332D01*
X123898495Y-83605332D02*
X123993733Y-83700570D01*
X123993733Y-83700570D02*
X124088971Y-83748189D01*
X134993734Y-85167657D02*
X134946115Y-85120038D01*
X134946115Y-85120038D02*
X134850877Y-85072419D01*
X134850877Y-85072419D02*
X134612782Y-85072419D01*
X134612782Y-85072419D02*
X134517544Y-85120038D01*
X134517544Y-85120038D02*
X134469925Y-85167657D01*
X134469925Y-85167657D02*
X134422306Y-85262895D01*
X134422306Y-85262895D02*
X134422306Y-85358133D01*
X134422306Y-85358133D02*
X134469925Y-85500990D01*
X134469925Y-85500990D02*
X135041353Y-86072419D01*
X135041353Y-86072419D02*
X134422306Y-86072419D01*
X133803258Y-85072419D02*
X133708020Y-85072419D01*
X133708020Y-85072419D02*
X133612782Y-85120038D01*
X133612782Y-85120038D02*
X133565163Y-85167657D01*
X133565163Y-85167657D02*
X133517544Y-85262895D01*
X133517544Y-85262895D02*
X133469925Y-85453371D01*
X133469925Y-85453371D02*
X133469925Y-85691466D01*
X133469925Y-85691466D02*
X133517544Y-85881942D01*
X133517544Y-85881942D02*
X133565163Y-85977180D01*
X133565163Y-85977180D02*
X133612782Y-86024800D01*
X133612782Y-86024800D02*
X133708020Y-86072419D01*
X133708020Y-86072419D02*
X133803258Y-86072419D01*
X133803258Y-86072419D02*
X133898496Y-86024800D01*
X133898496Y-86024800D02*
X133946115Y-85977180D01*
X133946115Y-85977180D02*
X133993734Y-85881942D01*
X133993734Y-85881942D02*
X134041353Y-85691466D01*
X134041353Y-85691466D02*
X134041353Y-85453371D01*
X134041353Y-85453371D02*
X133993734Y-85262895D01*
X133993734Y-85262895D02*
X133946115Y-85167657D01*
X133946115Y-85167657D02*
X133898496Y-85120038D01*
X133898496Y-85120038D02*
X133803258Y-85072419D01*
X133088972Y-85167657D02*
X133041353Y-85120038D01*
X133041353Y-85120038D02*
X132946115Y-85072419D01*
X132946115Y-85072419D02*
X132708020Y-85072419D01*
X132708020Y-85072419D02*
X132612782Y-85120038D01*
X132612782Y-85120038D02*
X132565163Y-85167657D01*
X132565163Y-85167657D02*
X132517544Y-85262895D01*
X132517544Y-85262895D02*
X132517544Y-85358133D01*
X132517544Y-85358133D02*
X132565163Y-85500990D01*
X132565163Y-85500990D02*
X133136591Y-86072419D01*
X133136591Y-86072419D02*
X132517544Y-86072419D01*
X131612782Y-85072419D02*
X132088972Y-85072419D01*
X132088972Y-85072419D02*
X132136591Y-85548609D01*
X132136591Y-85548609D02*
X132088972Y-85500990D01*
X132088972Y-85500990D02*
X131993734Y-85453371D01*
X131993734Y-85453371D02*
X131755639Y-85453371D01*
X131755639Y-85453371D02*
X131660401Y-85500990D01*
X131660401Y-85500990D02*
X131612782Y-85548609D01*
X131612782Y-85548609D02*
X131565163Y-85643847D01*
X131565163Y-85643847D02*
X131565163Y-85881942D01*
X131565163Y-85881942D02*
X131612782Y-85977180D01*
X131612782Y-85977180D02*
X131660401Y-86024800D01*
X131660401Y-86024800D02*
X131755639Y-86072419D01*
X131755639Y-86072419D02*
X131993734Y-86072419D01*
X131993734Y-86072419D02*
X132088972Y-86024800D01*
X132088972Y-86024800D02*
X132136591Y-85977180D01*
X131136591Y-85691466D02*
X130374687Y-85691466D01*
X129612782Y-85072419D02*
X129612782Y-85786704D01*
X129612782Y-85786704D02*
X129660401Y-85929561D01*
X129660401Y-85929561D02*
X129755639Y-86024800D01*
X129755639Y-86024800D02*
X129898496Y-86072419D01*
X129898496Y-86072419D02*
X129993734Y-86072419D01*
X129136591Y-85072419D02*
X129136591Y-85881942D01*
X129136591Y-85881942D02*
X129088972Y-85977180D01*
X129088972Y-85977180D02*
X129041353Y-86024800D01*
X129041353Y-86024800D02*
X128946115Y-86072419D01*
X128946115Y-86072419D02*
X128755639Y-86072419D01*
X128755639Y-86072419D02*
X128660401Y-86024800D01*
X128660401Y-86024800D02*
X128612782Y-85977180D01*
X128612782Y-85977180D02*
X128565163Y-85881942D01*
X128565163Y-85881942D02*
X128565163Y-85072419D01*
X128088972Y-86072419D02*
X128088972Y-85072419D01*
X128088972Y-85072419D02*
X127517544Y-86072419D01*
X127517544Y-86072419D02*
X127517544Y-85072419D01*
X127041353Y-85691466D02*
X126279449Y-85691466D01*
X125279449Y-86072419D02*
X125850877Y-86072419D01*
X125565163Y-86072419D02*
X125565163Y-85072419D01*
X125565163Y-85072419D02*
X125660401Y-85215276D01*
X125660401Y-85215276D02*
X125755639Y-85310514D01*
X125755639Y-85310514D02*
X125850877Y-85358133D01*
X124898496Y-85167657D02*
X124850877Y-85120038D01*
X124850877Y-85120038D02*
X124755639Y-85072419D01*
X124755639Y-85072419D02*
X124517544Y-85072419D01*
X124517544Y-85072419D02*
X124422306Y-85120038D01*
X124422306Y-85120038D02*
X124374687Y-85167657D01*
X124374687Y-85167657D02*
X124327068Y-85262895D01*
X124327068Y-85262895D02*
X124327068Y-85358133D01*
X124327068Y-85358133D02*
X124374687Y-85500990D01*
X124374687Y-85500990D02*
X124946115Y-86072419D01*
X124946115Y-86072419D02*
X124327068Y-86072419D01*
X111043734Y-81316816D02*
X110567544Y-81316816D01*
X111138972Y-81602531D02*
X110805639Y-80602531D01*
X110805639Y-80602531D02*
X110472306Y-81602531D01*
X109805639Y-81078721D02*
X109662782Y-81126340D01*
X109662782Y-81126340D02*
X109615163Y-81173959D01*
X109615163Y-81173959D02*
X109567544Y-81269197D01*
X109567544Y-81269197D02*
X109567544Y-81412054D01*
X109567544Y-81412054D02*
X109615163Y-81507292D01*
X109615163Y-81507292D02*
X109662782Y-81554912D01*
X109662782Y-81554912D02*
X109758020Y-81602531D01*
X109758020Y-81602531D02*
X110138972Y-81602531D01*
X110138972Y-81602531D02*
X110138972Y-80602531D01*
X110138972Y-80602531D02*
X109805639Y-80602531D01*
X109805639Y-80602531D02*
X109710401Y-80650150D01*
X109710401Y-80650150D02*
X109662782Y-80697769D01*
X109662782Y-80697769D02*
X109615163Y-80793007D01*
X109615163Y-80793007D02*
X109615163Y-80888245D01*
X109615163Y-80888245D02*
X109662782Y-80983483D01*
X109662782Y-80983483D02*
X109710401Y-81031102D01*
X109710401Y-81031102D02*
X109805639Y-81078721D01*
X109805639Y-81078721D02*
X110138972Y-81078721D01*
X108710401Y-80935864D02*
X108710401Y-81602531D01*
X108948496Y-80554912D02*
X109186591Y-81269197D01*
X109186591Y-81269197D02*
X108567544Y-81269197D01*
X108186591Y-81078721D02*
X107853258Y-81078721D01*
X107710401Y-81602531D02*
X108186591Y-81602531D01*
X108186591Y-81602531D02*
X108186591Y-80602531D01*
X108186591Y-80602531D02*
X107710401Y-80602531D01*
X107281829Y-81602531D02*
X107281829Y-80602531D01*
X107281829Y-80602531D02*
X106710401Y-81602531D01*
X106710401Y-81602531D02*
X106710401Y-80602531D01*
X110996115Y-83212475D02*
X110996115Y-82212475D01*
X110996115Y-82212475D02*
X110662782Y-82926760D01*
X110662782Y-82926760D02*
X110329449Y-82212475D01*
X110329449Y-82212475D02*
X110329449Y-83212475D01*
X109853258Y-83212475D02*
X109853258Y-82545808D01*
X109853258Y-82212475D02*
X109900877Y-82260094D01*
X109900877Y-82260094D02*
X109853258Y-82307713D01*
X109853258Y-82307713D02*
X109805639Y-82260094D01*
X109805639Y-82260094D02*
X109853258Y-82212475D01*
X109853258Y-82212475D02*
X109853258Y-82307713D01*
X109377068Y-82545808D02*
X109377068Y-83212475D01*
X109377068Y-82641046D02*
X109329449Y-82593427D01*
X109329449Y-82593427D02*
X109234211Y-82545808D01*
X109234211Y-82545808D02*
X109091354Y-82545808D01*
X109091354Y-82545808D02*
X108996116Y-82593427D01*
X108996116Y-82593427D02*
X108948497Y-82688665D01*
X108948497Y-82688665D02*
X108948497Y-83212475D01*
X108519925Y-83164856D02*
X108424687Y-83212475D01*
X108424687Y-83212475D02*
X108234211Y-83212475D01*
X108234211Y-83212475D02*
X108138973Y-83164856D01*
X108138973Y-83164856D02*
X108091354Y-83069617D01*
X108091354Y-83069617D02*
X108091354Y-83021998D01*
X108091354Y-83021998D02*
X108138973Y-82926760D01*
X108138973Y-82926760D02*
X108234211Y-82879141D01*
X108234211Y-82879141D02*
X108377068Y-82879141D01*
X108377068Y-82879141D02*
X108472306Y-82831522D01*
X108472306Y-82831522D02*
X108519925Y-82736284D01*
X108519925Y-82736284D02*
X108519925Y-82688665D01*
X108519925Y-82688665D02*
X108472306Y-82593427D01*
X108472306Y-82593427D02*
X108377068Y-82545808D01*
X108377068Y-82545808D02*
X108234211Y-82545808D01*
X108234211Y-82545808D02*
X108138973Y-82593427D01*
X107805639Y-82545808D02*
X107424687Y-82545808D01*
X107662782Y-82212475D02*
X107662782Y-83069617D01*
X107662782Y-83069617D02*
X107615163Y-83164856D01*
X107615163Y-83164856D02*
X107519925Y-83212475D01*
X107519925Y-83212475D02*
X107424687Y-83212475D01*
X107091353Y-83212475D02*
X107091353Y-82545808D01*
X107091353Y-82736284D02*
X107043734Y-82641046D01*
X107043734Y-82641046D02*
X106996115Y-82593427D01*
X106996115Y-82593427D02*
X106900877Y-82545808D01*
X106900877Y-82545808D02*
X106805639Y-82545808D01*
X106329448Y-83212475D02*
X106424686Y-83164856D01*
X106424686Y-83164856D02*
X106472305Y-83117236D01*
X106472305Y-83117236D02*
X106519924Y-83021998D01*
X106519924Y-83021998D02*
X106519924Y-82736284D01*
X106519924Y-82736284D02*
X106472305Y-82641046D01*
X106472305Y-82641046D02*
X106424686Y-82593427D01*
X106424686Y-82593427D02*
X106329448Y-82545808D01*
X106329448Y-82545808D02*
X106186591Y-82545808D01*
X106186591Y-82545808D02*
X106091353Y-82593427D01*
X106091353Y-82593427D02*
X106043734Y-82641046D01*
X106043734Y-82641046D02*
X105996115Y-82736284D01*
X105996115Y-82736284D02*
X105996115Y-83021998D01*
X105996115Y-83021998D02*
X106043734Y-83117236D01*
X106043734Y-83117236D02*
X106091353Y-83164856D01*
X106091353Y-83164856D02*
X106186591Y-83212475D01*
X106186591Y-83212475D02*
X106329448Y-83212475D01*
X104805638Y-83212475D02*
X104805638Y-82212475D01*
X104805638Y-82688665D02*
X104234210Y-82688665D01*
X104234210Y-83212475D02*
X104234210Y-82212475D01*
X103758019Y-83212475D02*
X103758019Y-82212475D01*
X103758019Y-82212475D02*
X103424686Y-82926760D01*
X103424686Y-82926760D02*
X103091353Y-82212475D01*
X103091353Y-82212475D02*
X103091353Y-83212475D01*
X102615162Y-83212475D02*
X102615162Y-82212475D01*
X101472305Y-82545808D02*
X101234210Y-83212475D01*
X101234210Y-83212475D02*
X100996115Y-82545808D01*
X100091353Y-83212475D02*
X100662781Y-83212475D01*
X100377067Y-83212475D02*
X100377067Y-82212475D01*
X100377067Y-82212475D02*
X100472305Y-82355332D01*
X100472305Y-82355332D02*
X100567543Y-82450570D01*
X100567543Y-82450570D02*
X100662781Y-82498189D01*
X111043734Y-83917657D02*
X110996115Y-83870038D01*
X110996115Y-83870038D02*
X110900877Y-83822419D01*
X110900877Y-83822419D02*
X110662782Y-83822419D01*
X110662782Y-83822419D02*
X110567544Y-83870038D01*
X110567544Y-83870038D02*
X110519925Y-83917657D01*
X110519925Y-83917657D02*
X110472306Y-84012895D01*
X110472306Y-84012895D02*
X110472306Y-84108133D01*
X110472306Y-84108133D02*
X110519925Y-84250990D01*
X110519925Y-84250990D02*
X111091353Y-84822419D01*
X111091353Y-84822419D02*
X110472306Y-84822419D01*
X109853258Y-83822419D02*
X109758020Y-83822419D01*
X109758020Y-83822419D02*
X109662782Y-83870038D01*
X109662782Y-83870038D02*
X109615163Y-83917657D01*
X109615163Y-83917657D02*
X109567544Y-84012895D01*
X109567544Y-84012895D02*
X109519925Y-84203371D01*
X109519925Y-84203371D02*
X109519925Y-84441466D01*
X109519925Y-84441466D02*
X109567544Y-84631942D01*
X109567544Y-84631942D02*
X109615163Y-84727180D01*
X109615163Y-84727180D02*
X109662782Y-84774800D01*
X109662782Y-84774800D02*
X109758020Y-84822419D01*
X109758020Y-84822419D02*
X109853258Y-84822419D01*
X109853258Y-84822419D02*
X109948496Y-84774800D01*
X109948496Y-84774800D02*
X109996115Y-84727180D01*
X109996115Y-84727180D02*
X110043734Y-84631942D01*
X110043734Y-84631942D02*
X110091353Y-84441466D01*
X110091353Y-84441466D02*
X110091353Y-84203371D01*
X110091353Y-84203371D02*
X110043734Y-84012895D01*
X110043734Y-84012895D02*
X109996115Y-83917657D01*
X109996115Y-83917657D02*
X109948496Y-83870038D01*
X109948496Y-83870038D02*
X109853258Y-83822419D01*
X109138972Y-83917657D02*
X109091353Y-83870038D01*
X109091353Y-83870038D02*
X108996115Y-83822419D01*
X108996115Y-83822419D02*
X108758020Y-83822419D01*
X108758020Y-83822419D02*
X108662782Y-83870038D01*
X108662782Y-83870038D02*
X108615163Y-83917657D01*
X108615163Y-83917657D02*
X108567544Y-84012895D01*
X108567544Y-84012895D02*
X108567544Y-84108133D01*
X108567544Y-84108133D02*
X108615163Y-84250990D01*
X108615163Y-84250990D02*
X109186591Y-84822419D01*
X109186591Y-84822419D02*
X108567544Y-84822419D01*
X107662782Y-83822419D02*
X108138972Y-83822419D01*
X108138972Y-83822419D02*
X108186591Y-84298609D01*
X108186591Y-84298609D02*
X108138972Y-84250990D01*
X108138972Y-84250990D02*
X108043734Y-84203371D01*
X108043734Y-84203371D02*
X107805639Y-84203371D01*
X107805639Y-84203371D02*
X107710401Y-84250990D01*
X107710401Y-84250990D02*
X107662782Y-84298609D01*
X107662782Y-84298609D02*
X107615163Y-84393847D01*
X107615163Y-84393847D02*
X107615163Y-84631942D01*
X107615163Y-84631942D02*
X107662782Y-84727180D01*
X107662782Y-84727180D02*
X107710401Y-84774800D01*
X107710401Y-84774800D02*
X107805639Y-84822419D01*
X107805639Y-84822419D02*
X108043734Y-84822419D01*
X108043734Y-84822419D02*
X108138972Y-84774800D01*
X108138972Y-84774800D02*
X108186591Y-84727180D01*
X107186591Y-84441466D02*
X106424687Y-84441466D01*
X105662782Y-83822419D02*
X105662782Y-84536704D01*
X105662782Y-84536704D02*
X105710401Y-84679561D01*
X105710401Y-84679561D02*
X105805639Y-84774800D01*
X105805639Y-84774800D02*
X105948496Y-84822419D01*
X105948496Y-84822419D02*
X106043734Y-84822419D01*
X105186591Y-83822419D02*
X105186591Y-84631942D01*
X105186591Y-84631942D02*
X105138972Y-84727180D01*
X105138972Y-84727180D02*
X105091353Y-84774800D01*
X105091353Y-84774800D02*
X104996115Y-84822419D01*
X104996115Y-84822419D02*
X104805639Y-84822419D01*
X104805639Y-84822419D02*
X104710401Y-84774800D01*
X104710401Y-84774800D02*
X104662782Y-84727180D01*
X104662782Y-84727180D02*
X104615163Y-84631942D01*
X104615163Y-84631942D02*
X104615163Y-83822419D01*
X104138972Y-84822419D02*
X104138972Y-83822419D01*
X104138972Y-83822419D02*
X103567544Y-84822419D01*
X103567544Y-84822419D02*
X103567544Y-83822419D01*
X103091353Y-84441466D02*
X102329449Y-84441466D01*
X101329449Y-84822419D02*
X101900877Y-84822419D01*
X101615163Y-84822419D02*
X101615163Y-83822419D01*
X101615163Y-83822419D02*
X101710401Y-83965276D01*
X101710401Y-83965276D02*
X101805639Y-84060514D01*
X101805639Y-84060514D02*
X101900877Y-84108133D01*
X100948496Y-83917657D02*
X100900877Y-83870038D01*
X100900877Y-83870038D02*
X100805639Y-83822419D01*
X100805639Y-83822419D02*
X100567544Y-83822419D01*
X100567544Y-83822419D02*
X100472306Y-83870038D01*
X100472306Y-83870038D02*
X100424687Y-83917657D01*
X100424687Y-83917657D02*
X100377068Y-84012895D01*
X100377068Y-84012895D02*
X100377068Y-84108133D01*
X100377068Y-84108133D02*
X100424687Y-84250990D01*
X100424687Y-84250990D02*
X100996115Y-84822419D01*
X100996115Y-84822419D02*
X100377068Y-84822419D01*
X98861904Y-127057419D02*
X98861904Y-126057419D01*
X98861904Y-126057419D02*
X98528571Y-126771704D01*
X98528571Y-126771704D02*
X98195238Y-126057419D01*
X98195238Y-126057419D02*
X98195238Y-127057419D01*
X97719047Y-127057419D02*
X97719047Y-126057419D01*
X97147619Y-127057419D02*
X97576190Y-126485990D01*
X97147619Y-126057419D02*
X97719047Y-126628847D01*
X96242857Y-126057419D02*
X96719047Y-126057419D01*
X96719047Y-126057419D02*
X96766666Y-126533609D01*
X96766666Y-126533609D02*
X96719047Y-126485990D01*
X96719047Y-126485990D02*
X96623809Y-126438371D01*
X96623809Y-126438371D02*
X96385714Y-126438371D01*
X96385714Y-126438371D02*
X96290476Y-126485990D01*
X96290476Y-126485990D02*
X96242857Y-126533609D01*
X96242857Y-126533609D02*
X96195238Y-126628847D01*
X96195238Y-126628847D02*
X96195238Y-126866942D01*
X96195238Y-126866942D02*
X96242857Y-126962180D01*
X96242857Y-126962180D02*
X96290476Y-127009800D01*
X96290476Y-127009800D02*
X96385714Y-127057419D01*
X96385714Y-127057419D02*
X96623809Y-127057419D01*
X96623809Y-127057419D02*
X96719047Y-127009800D01*
X96719047Y-127009800D02*
X96766666Y-126962180D01*
X95576190Y-126057419D02*
X95480952Y-126057419D01*
X95480952Y-126057419D02*
X95385714Y-126105038D01*
X95385714Y-126105038D02*
X95338095Y-126152657D01*
X95338095Y-126152657D02*
X95290476Y-126247895D01*
X95290476Y-126247895D02*
X95242857Y-126438371D01*
X95242857Y-126438371D02*
X95242857Y-126676466D01*
X95242857Y-126676466D02*
X95290476Y-126866942D01*
X95290476Y-126866942D02*
X95338095Y-126962180D01*
X95338095Y-126962180D02*
X95385714Y-127009800D01*
X95385714Y-127009800D02*
X95480952Y-127057419D01*
X95480952Y-127057419D02*
X95576190Y-127057419D01*
X95576190Y-127057419D02*
X95671428Y-127009800D01*
X95671428Y-127009800D02*
X95719047Y-126962180D01*
X95719047Y-126962180D02*
X95766666Y-126866942D01*
X95766666Y-126866942D02*
X95814285Y-126676466D01*
X95814285Y-126676466D02*
X95814285Y-126438371D01*
X95814285Y-126438371D02*
X95766666Y-126247895D01*
X95766666Y-126247895D02*
X95719047Y-126152657D01*
X95719047Y-126152657D02*
X95671428Y-126105038D01*
X95671428Y-126105038D02*
X95576190Y-126057419D01*
X94290476Y-127057419D02*
X94861904Y-127057419D01*
X94576190Y-127057419D02*
X94576190Y-126057419D01*
X94576190Y-126057419D02*
X94671428Y-126200276D01*
X94671428Y-126200276D02*
X94766666Y-126295514D01*
X94766666Y-126295514D02*
X94861904Y-126343133D01*
%TO.C,MK501*%
X100000000Y-132000000D02*
X97200000Y-132000000D01*
X97200000Y-132000000D02*
X97200000Y-133600000D01*
D11*
X101300000Y-129000000D02*
G75*
G02*
X91900000Y-129000000I-4700000J0D01*
G01*
X91900000Y-129000000D02*
G75*
G02*
X101300000Y-129000000I4700000J0D01*
G01*
D12*
%TO.C,S902*%
X127500000Y-57400000D02*
X127500000Y-52600000D01*
X129300000Y-52000000D02*
X131700000Y-52000000D01*
X131700000Y-58000000D02*
X129300000Y-58000000D01*
X133500000Y-52600000D02*
X133500000Y-53300000D01*
X133500000Y-56800000D02*
X133500000Y-57400000D01*
%TO.C,S903*%
X149500000Y-57400000D02*
X149500000Y-52600000D01*
X151300000Y-52000000D02*
X153700000Y-52000000D01*
X153700000Y-58000000D02*
X151300000Y-58000000D01*
X155500000Y-52600000D02*
X155500000Y-53300000D01*
X155500000Y-56800000D02*
X155500000Y-57400000D01*
%TO.C,S910*%
X127500000Y-132150000D02*
X127500000Y-127350000D01*
X129300000Y-126750000D02*
X131700000Y-126750000D01*
X131700000Y-132750000D02*
X129300000Y-132750000D01*
X133500000Y-127350000D02*
X133500000Y-128050000D01*
X133500000Y-131550000D02*
X133500000Y-132150000D01*
D13*
%TO.C,G\u002A\u002A\u002A*%
X111545077Y-75186625D02*
X111451277Y-75752590D01*
X111209697Y-76251144D01*
X110828188Y-76666403D01*
X110314596Y-76982483D01*
X110302904Y-76987746D01*
X110175819Y-77039233D01*
X110038018Y-77079005D01*
X109866842Y-77108584D01*
X109639631Y-77129491D01*
X109333727Y-77143245D01*
X108926469Y-77151369D01*
X108395200Y-77155383D01*
X107717261Y-77156807D01*
X105500925Y-77158667D01*
X104976765Y-77793667D01*
X105677181Y-77818707D01*
X106377596Y-77843746D01*
X104599596Y-79016410D01*
X104195875Y-79281492D01*
X103748521Y-79572182D01*
X103365371Y-79817785D01*
X103065619Y-80006125D01*
X102868462Y-80125026D01*
X102793094Y-80162312D01*
X102827317Y-80092435D01*
X102945857Y-79914629D01*
X103130060Y-79656555D01*
X103360880Y-79345609D01*
X103957168Y-78555667D01*
X103537549Y-78530076D01*
X103388540Y-78518100D01*
X103194059Y-78490286D01*
X103117930Y-78460395D01*
X103130164Y-78434854D01*
X103222140Y-78299903D01*
X103384553Y-78080443D01*
X103593904Y-77808653D01*
X104069879Y-77201000D01*
X103481865Y-77154313D01*
X103391897Y-77145686D01*
X103260137Y-77114409D01*
X104184804Y-77114409D01*
X104261472Y-77143901D01*
X104452686Y-77156201D01*
X104785831Y-77158667D01*
X105463976Y-77158667D01*
X106257611Y-76142667D01*
X106406438Y-75953172D01*
X106667281Y-75626420D01*
X106881728Y-75364781D01*
X107030775Y-75191248D01*
X107095421Y-75128817D01*
X107103542Y-75131699D01*
X107208953Y-75203743D01*
X107401324Y-75352757D01*
X107646068Y-75552150D01*
X107702512Y-75598824D01*
X107940171Y-75789209D01*
X108119153Y-75922883D01*
X108204315Y-75973334D01*
X108206159Y-75973095D01*
X108287973Y-75904841D01*
X108448923Y-75734998D01*
X108663604Y-75492244D01*
X108906614Y-75205262D01*
X109152551Y-74902732D01*
X109302838Y-74713566D01*
X107983757Y-73701442D01*
X106664676Y-72689319D01*
X105737970Y-72995478D01*
X105393925Y-73112702D01*
X105091469Y-73223201D01*
X104886626Y-73306778D01*
X104811263Y-73351200D01*
X104838749Y-73385369D01*
X104975963Y-73504656D01*
X105202350Y-73683769D01*
X105488596Y-73899000D01*
X105677843Y-74041048D01*
X105929362Y-74240437D01*
X106101878Y-74391109D01*
X106165930Y-74468304D01*
X106159465Y-74483337D01*
X106077996Y-74606127D01*
X105918329Y-74827758D01*
X105699785Y-75122798D01*
X105441690Y-75465817D01*
X105163366Y-75831383D01*
X104884138Y-76194065D01*
X104623328Y-76528433D01*
X104400261Y-76809055D01*
X104234259Y-77010500D01*
X104195298Y-77060370D01*
X104184804Y-77114409D01*
X103260137Y-77114409D01*
X102782594Y-77001050D01*
X102256574Y-76720759D01*
X101832210Y-76317510D01*
X101527875Y-75804000D01*
X101503101Y-75739635D01*
X101415530Y-75319536D01*
X101406366Y-74835057D01*
X101472443Y-74356937D01*
X101610595Y-73955916D01*
X101692145Y-73813658D01*
X102045961Y-73408715D01*
X102516308Y-73102902D01*
X103079187Y-72908976D01*
X103710596Y-72839694D01*
X104176263Y-72837777D01*
X104376378Y-72375476D01*
X104517268Y-72109710D01*
X104839286Y-71689859D01*
X105231271Y-71331609D01*
X105641876Y-71087229D01*
X105820909Y-71032286D01*
X106152298Y-70976258D01*
X106506572Y-70954234D01*
X106551632Y-70954456D01*
X107159586Y-71031201D01*
X107686228Y-71251199D01*
X108151763Y-71622660D01*
X108231628Y-71711937D01*
X108424052Y-71973464D01*
X108619216Y-72287294D01*
X108790991Y-72606516D01*
X108913249Y-72884222D01*
X108959863Y-73073500D01*
X108966767Y-73098732D01*
X109095640Y-73159221D01*
X109388104Y-73179334D01*
X109672369Y-73188384D01*
X110184530Y-73273013D01*
X110611365Y-73459737D01*
X110996794Y-73764535D01*
X111029643Y-73796757D01*
X111264262Y-74057973D01*
X111404056Y-74303111D01*
X111490490Y-74602560D01*
X111500865Y-74713566D01*
X111545077Y-75186625D01*
G36*
X111545077Y-75186625D02*
G01*
X111451277Y-75752590D01*
X111209697Y-76251144D01*
X110828188Y-76666403D01*
X110314596Y-76982483D01*
X110302904Y-76987746D01*
X110175819Y-77039233D01*
X110038018Y-77079005D01*
X109866842Y-77108584D01*
X109639631Y-77129491D01*
X109333727Y-77143245D01*
X108926469Y-77151369D01*
X108395200Y-77155383D01*
X107717261Y-77156807D01*
X105500925Y-77158667D01*
X104976765Y-77793667D01*
X105677181Y-77818707D01*
X106377596Y-77843746D01*
X104599596Y-79016410D01*
X104195875Y-79281492D01*
X103748521Y-79572182D01*
X103365371Y-79817785D01*
X103065619Y-80006125D01*
X102868462Y-80125026D01*
X102793094Y-80162312D01*
X102827317Y-80092435D01*
X102945857Y-79914629D01*
X103130060Y-79656555D01*
X103360880Y-79345609D01*
X103957168Y-78555667D01*
X103537549Y-78530076D01*
X103388540Y-78518100D01*
X103194059Y-78490286D01*
X103117930Y-78460395D01*
X103130164Y-78434854D01*
X103222140Y-78299903D01*
X103384553Y-78080443D01*
X103593904Y-77808653D01*
X104069879Y-77201000D01*
X103481865Y-77154313D01*
X103391897Y-77145686D01*
X103260137Y-77114409D01*
X104184804Y-77114409D01*
X104261472Y-77143901D01*
X104452686Y-77156201D01*
X104785831Y-77158667D01*
X105463976Y-77158667D01*
X106257611Y-76142667D01*
X106406438Y-75953172D01*
X106667281Y-75626420D01*
X106881728Y-75364781D01*
X107030775Y-75191248D01*
X107095421Y-75128817D01*
X107103542Y-75131699D01*
X107208953Y-75203743D01*
X107401324Y-75352757D01*
X107646068Y-75552150D01*
X107702512Y-75598824D01*
X107940171Y-75789209D01*
X108119153Y-75922883D01*
X108204315Y-75973334D01*
X108206159Y-75973095D01*
X108287973Y-75904841D01*
X108448923Y-75734998D01*
X108663604Y-75492244D01*
X108906614Y-75205262D01*
X109152551Y-74902732D01*
X109302838Y-74713566D01*
X107983757Y-73701442D01*
X106664676Y-72689319D01*
X105737970Y-72995478D01*
X105393925Y-73112702D01*
X105091469Y-73223201D01*
X104886626Y-73306778D01*
X104811263Y-73351200D01*
X104838749Y-73385369D01*
X104975963Y-73504656D01*
X105202350Y-73683769D01*
X105488596Y-73899000D01*
X105677843Y-74041048D01*
X105929362Y-74240437D01*
X106101878Y-74391109D01*
X106165930Y-74468304D01*
X106159465Y-74483337D01*
X106077996Y-74606127D01*
X105918329Y-74827758D01*
X105699785Y-75122798D01*
X105441690Y-75465817D01*
X105163366Y-75831383D01*
X104884138Y-76194065D01*
X104623328Y-76528433D01*
X104400261Y-76809055D01*
X104234259Y-77010500D01*
X104195298Y-77060370D01*
X104184804Y-77114409D01*
X103260137Y-77114409D01*
X102782594Y-77001050D01*
X102256574Y-76720759D01*
X101832210Y-76317510D01*
X101527875Y-75804000D01*
X101503101Y-75739635D01*
X101415530Y-75319536D01*
X101406366Y-74835057D01*
X101472443Y-74356937D01*
X101610595Y-73955916D01*
X101692145Y-73813658D01*
X102045961Y-73408715D01*
X102516308Y-73102902D01*
X103079187Y-72908976D01*
X103710596Y-72839694D01*
X104176263Y-72837777D01*
X104376378Y-72375476D01*
X104517268Y-72109710D01*
X104839286Y-71689859D01*
X105231271Y-71331609D01*
X105641876Y-71087229D01*
X105820909Y-71032286D01*
X106152298Y-70976258D01*
X106506572Y-70954234D01*
X106551632Y-70954456D01*
X107159586Y-71031201D01*
X107686228Y-71251199D01*
X108151763Y-71622660D01*
X108231628Y-71711937D01*
X108424052Y-71973464D01*
X108619216Y-72287294D01*
X108790991Y-72606516D01*
X108913249Y-72884222D01*
X108959863Y-73073500D01*
X108966767Y-73098732D01*
X109095640Y-73159221D01*
X109388104Y-73179334D01*
X109672369Y-73188384D01*
X110184530Y-73273013D01*
X110611365Y-73459737D01*
X110996794Y-73764535D01*
X111029643Y-73796757D01*
X111264262Y-74057973D01*
X111404056Y-74303111D01*
X111490490Y-74602560D01*
X111500865Y-74713566D01*
X111545077Y-75186625D01*
G37*
D12*
%TO.C,S907*%
X78500000Y-104300000D02*
X78500000Y-99500000D01*
X80300000Y-98900000D02*
X82700000Y-98900000D01*
X82700000Y-104900000D02*
X80300000Y-104900000D01*
X84500000Y-99500000D02*
X84500000Y-100200000D01*
X84500000Y-103700000D02*
X84500000Y-104300000D01*
%TO.C,S911*%
X149500000Y-132150000D02*
X149500000Y-127350000D01*
X151300000Y-126750000D02*
X153700000Y-126750000D01*
X153700000Y-132750000D02*
X151300000Y-132750000D01*
X155500000Y-127350000D02*
X155500000Y-128050000D01*
X155500000Y-131550000D02*
X155500000Y-132150000D01*
%TO.C,S909*%
X105500000Y-132150000D02*
X105500000Y-127350000D01*
X107300000Y-126750000D02*
X109700000Y-126750000D01*
X109700000Y-132750000D02*
X107300000Y-132750000D01*
X111500000Y-127350000D02*
X111500000Y-128050000D01*
X111500000Y-131550000D02*
X111500000Y-132150000D01*
%TO.C,S901*%
X105500000Y-57400000D02*
X105500000Y-52600000D01*
X107300000Y-52000000D02*
X109700000Y-52000000D01*
X109700000Y-58000000D02*
X107300000Y-58000000D01*
X111500000Y-52600000D02*
X111500000Y-53300000D01*
X111500000Y-56800000D02*
X111500000Y-57400000D01*
%TO.C,S912*%
X171500000Y-132150000D02*
X171500000Y-127350000D01*
X173300000Y-126750000D02*
X175700000Y-126750000D01*
X175700000Y-132750000D02*
X173300000Y-132750000D01*
X177500000Y-127350000D02*
X177500000Y-128050000D01*
X177500000Y-131550000D02*
X177500000Y-132150000D01*
%TO.C,S908*%
X78500000Y-118500000D02*
X78500000Y-113700000D01*
X80300000Y-113100000D02*
X82700000Y-113100000D01*
X82700000Y-119100000D02*
X80300000Y-119100000D01*
X84500000Y-113700000D02*
X84500000Y-114400000D01*
X84500000Y-117900000D02*
X84500000Y-118500000D01*
%TO.C,S905*%
X78500000Y-75900000D02*
X78500000Y-71100000D01*
X80300000Y-70500000D02*
X82700000Y-70500000D01*
X82700000Y-76500000D02*
X80300000Y-76500000D01*
X84500000Y-71100000D02*
X84500000Y-71800000D01*
X84500000Y-75300000D02*
X84500000Y-75900000D01*
D13*
%TO.C,G\u002A\u002A\u002A*%
X134619356Y-74828352D02*
X134525556Y-75394317D01*
X134283976Y-75892871D01*
X133902467Y-76308130D01*
X133388875Y-76624210D01*
X133377183Y-76629473D01*
X133250098Y-76680960D01*
X133112297Y-76720732D01*
X132941121Y-76750311D01*
X132713910Y-76771218D01*
X132408006Y-76784972D01*
X132000748Y-76793096D01*
X131469479Y-76797110D01*
X130791540Y-76798534D01*
X128575204Y-76800394D01*
X128051044Y-77435394D01*
X128751460Y-77460434D01*
X129451875Y-77485473D01*
X127673875Y-78658137D01*
X127270154Y-78923219D01*
X126822800Y-79213909D01*
X126439650Y-79459512D01*
X126139898Y-79647852D01*
X125942741Y-79766753D01*
X125867373Y-79804039D01*
X125901596Y-79734162D01*
X126020136Y-79556356D01*
X126204339Y-79298282D01*
X126435159Y-78987336D01*
X127031447Y-78197394D01*
X126611828Y-78171803D01*
X126462819Y-78159827D01*
X126268338Y-78132013D01*
X126192209Y-78102122D01*
X126204443Y-78076581D01*
X126296419Y-77941630D01*
X126458832Y-77722170D01*
X126668183Y-77450380D01*
X127144158Y-76842727D01*
X126556144Y-76796040D01*
X126466176Y-76787413D01*
X126334416Y-76756136D01*
X127259083Y-76756136D01*
X127335751Y-76785628D01*
X127526965Y-76797928D01*
X127860110Y-76800394D01*
X128538255Y-76800394D01*
X129331890Y-75784394D01*
X129480717Y-75594899D01*
X129741560Y-75268147D01*
X129956007Y-75006508D01*
X130105054Y-74832975D01*
X130169700Y-74770544D01*
X130177821Y-74773426D01*
X130283232Y-74845470D01*
X130475603Y-74994484D01*
X130720347Y-75193877D01*
X130776791Y-75240551D01*
X131014450Y-75430936D01*
X131193432Y-75564610D01*
X131278594Y-75615061D01*
X131280438Y-75614822D01*
X131362252Y-75546568D01*
X131523202Y-75376725D01*
X131737883Y-75133971D01*
X131980893Y-74846989D01*
X132226830Y-74544459D01*
X132377117Y-74355293D01*
X131058036Y-73343169D01*
X129738955Y-72331046D01*
X128812249Y-72637205D01*
X128468204Y-72754429D01*
X128165748Y-72864928D01*
X127960905Y-72948505D01*
X127885542Y-72992927D01*
X127913028Y-73027096D01*
X128050242Y-73146383D01*
X128276629Y-73325496D01*
X128562875Y-73540727D01*
X128752122Y-73682775D01*
X129003641Y-73882164D01*
X129176157Y-74032836D01*
X129240209Y-74110031D01*
X129233744Y-74125064D01*
X129152275Y-74247854D01*
X128992608Y-74469485D01*
X128774064Y-74764525D01*
X128515969Y-75107544D01*
X128237645Y-75473110D01*
X127958417Y-75835792D01*
X127697607Y-76170160D01*
X127474540Y-76450782D01*
X127308538Y-76652227D01*
X127269577Y-76702097D01*
X127259083Y-76756136D01*
X126334416Y-76756136D01*
X125856873Y-76642777D01*
X125330853Y-76362486D01*
X124906489Y-75959237D01*
X124602154Y-75445727D01*
X124577380Y-75381362D01*
X124489809Y-74961263D01*
X124480645Y-74476784D01*
X124546722Y-73998664D01*
X124684874Y-73597643D01*
X124766424Y-73455385D01*
X125120240Y-73050442D01*
X125590587Y-72744629D01*
X126153466Y-72550703D01*
X126784875Y-72481421D01*
X127250542Y-72479504D01*
X127450657Y-72017203D01*
X127591547Y-71751437D01*
X127913565Y-71331586D01*
X128305550Y-70973336D01*
X128716155Y-70728956D01*
X128895188Y-70674013D01*
X129226577Y-70617985D01*
X129580851Y-70595961D01*
X129625911Y-70596183D01*
X130233865Y-70672928D01*
X130760507Y-70892926D01*
X131226042Y-71264387D01*
X131305907Y-71353664D01*
X131498331Y-71615191D01*
X131693495Y-71929021D01*
X131865270Y-72248243D01*
X131987528Y-72525949D01*
X132034142Y-72715227D01*
X132041046Y-72740459D01*
X132169919Y-72800948D01*
X132462383Y-72821061D01*
X132746648Y-72830111D01*
X133258809Y-72914740D01*
X133685644Y-73101464D01*
X134071073Y-73406262D01*
X134103922Y-73438484D01*
X134338541Y-73699700D01*
X134478335Y-73944838D01*
X134564769Y-74244287D01*
X134575144Y-74355293D01*
X134619356Y-74828352D01*
G36*
X134619356Y-74828352D02*
G01*
X134525556Y-75394317D01*
X134283976Y-75892871D01*
X133902467Y-76308130D01*
X133388875Y-76624210D01*
X133377183Y-76629473D01*
X133250098Y-76680960D01*
X133112297Y-76720732D01*
X132941121Y-76750311D01*
X132713910Y-76771218D01*
X132408006Y-76784972D01*
X132000748Y-76793096D01*
X131469479Y-76797110D01*
X130791540Y-76798534D01*
X128575204Y-76800394D01*
X128051044Y-77435394D01*
X128751460Y-77460434D01*
X129451875Y-77485473D01*
X127673875Y-78658137D01*
X127270154Y-78923219D01*
X126822800Y-79213909D01*
X126439650Y-79459512D01*
X126139898Y-79647852D01*
X125942741Y-79766753D01*
X125867373Y-79804039D01*
X125901596Y-79734162D01*
X126020136Y-79556356D01*
X126204339Y-79298282D01*
X126435159Y-78987336D01*
X127031447Y-78197394D01*
X126611828Y-78171803D01*
X126462819Y-78159827D01*
X126268338Y-78132013D01*
X126192209Y-78102122D01*
X126204443Y-78076581D01*
X126296419Y-77941630D01*
X126458832Y-77722170D01*
X126668183Y-77450380D01*
X127144158Y-76842727D01*
X126556144Y-76796040D01*
X126466176Y-76787413D01*
X126334416Y-76756136D01*
X127259083Y-76756136D01*
X127335751Y-76785628D01*
X127526965Y-76797928D01*
X127860110Y-76800394D01*
X128538255Y-76800394D01*
X129331890Y-75784394D01*
X129480717Y-75594899D01*
X129741560Y-75268147D01*
X129956007Y-75006508D01*
X130105054Y-74832975D01*
X130169700Y-74770544D01*
X130177821Y-74773426D01*
X130283232Y-74845470D01*
X130475603Y-74994484D01*
X130720347Y-75193877D01*
X130776791Y-75240551D01*
X131014450Y-75430936D01*
X131193432Y-75564610D01*
X131278594Y-75615061D01*
X131280438Y-75614822D01*
X131362252Y-75546568D01*
X131523202Y-75376725D01*
X131737883Y-75133971D01*
X131980893Y-74846989D01*
X132226830Y-74544459D01*
X132377117Y-74355293D01*
X131058036Y-73343169D01*
X129738955Y-72331046D01*
X128812249Y-72637205D01*
X128468204Y-72754429D01*
X128165748Y-72864928D01*
X127960905Y-72948505D01*
X127885542Y-72992927D01*
X127913028Y-73027096D01*
X128050242Y-73146383D01*
X128276629Y-73325496D01*
X128562875Y-73540727D01*
X128752122Y-73682775D01*
X129003641Y-73882164D01*
X129176157Y-74032836D01*
X129240209Y-74110031D01*
X129233744Y-74125064D01*
X129152275Y-74247854D01*
X128992608Y-74469485D01*
X128774064Y-74764525D01*
X128515969Y-75107544D01*
X128237645Y-75473110D01*
X127958417Y-75835792D01*
X127697607Y-76170160D01*
X127474540Y-76450782D01*
X127308538Y-76652227D01*
X127269577Y-76702097D01*
X127259083Y-76756136D01*
X126334416Y-76756136D01*
X125856873Y-76642777D01*
X125330853Y-76362486D01*
X124906489Y-75959237D01*
X124602154Y-75445727D01*
X124577380Y-75381362D01*
X124489809Y-74961263D01*
X124480645Y-74476784D01*
X124546722Y-73998664D01*
X124684874Y-73597643D01*
X124766424Y-73455385D01*
X125120240Y-73050442D01*
X125590587Y-72744629D01*
X126153466Y-72550703D01*
X126784875Y-72481421D01*
X127250542Y-72479504D01*
X127450657Y-72017203D01*
X127591547Y-71751437D01*
X127913565Y-71331586D01*
X128305550Y-70973336D01*
X128716155Y-70728956D01*
X128895188Y-70674013D01*
X129226577Y-70617985D01*
X129580851Y-70595961D01*
X129625911Y-70596183D01*
X130233865Y-70672928D01*
X130760507Y-70892926D01*
X131226042Y-71264387D01*
X131305907Y-71353664D01*
X131498331Y-71615191D01*
X131693495Y-71929021D01*
X131865270Y-72248243D01*
X131987528Y-72525949D01*
X132034142Y-72715227D01*
X132041046Y-72740459D01*
X132169919Y-72800948D01*
X132462383Y-72821061D01*
X132746648Y-72830111D01*
X133258809Y-72914740D01*
X133685644Y-73101464D01*
X134071073Y-73406262D01*
X134103922Y-73438484D01*
X134338541Y-73699700D01*
X134478335Y-73944838D01*
X134564769Y-74244287D01*
X134575144Y-74355293D01*
X134619356Y-74828352D01*
G37*
D12*
%TO.C,S906*%
X78400000Y-90100000D02*
X78400000Y-85300000D01*
X80200000Y-84700000D02*
X82600000Y-84700000D01*
X82600000Y-90700000D02*
X80200000Y-90700000D01*
X84400000Y-85300000D02*
X84400000Y-86000000D01*
X84400000Y-89500000D02*
X84400000Y-90100000D01*
%TO.C,S904*%
X171500000Y-57400000D02*
X171500000Y-52600000D01*
X173300000Y-52000000D02*
X175700000Y-52000000D01*
X175700000Y-58000000D02*
X173300000Y-58000000D01*
X177500000Y-52600000D02*
X177500000Y-53300000D01*
X177500000Y-56800000D02*
X177500000Y-57400000D01*
%TD*%
M02*
