%TF.GenerationSoftware,KiCad,Pcbnew,9.0.2-9.0.2-0~ubuntu24.04.1*%
%TF.CreationDate,2025-06-12T00:39:10-04:00*%
%TF.ProjectId,minstro_combined_board,6d696e73-7472-46f5-9f63-6f6d62696e65,rev?*%
%TF.SameCoordinates,Original*%
%TF.FileFunction,Profile,NP*%
%FSLAX46Y46*%
G04 Gerber Fmt 4.6, Leading zero omitted, Abs format (unit mm)*
G04 Created by KiCad (PCBNEW 9.0.2-9.0.2-0~ubuntu24.04.1) date 2025-06-12 00:39:10*
%MOMM*%
%LPD*%
G01*
G04 APERTURE LIST*
%TA.AperFunction,Profile*%
%ADD10C,0.050000*%
%TD*%
%TA.AperFunction,Profile*%
%ADD11C,0.200000*%
%TD*%
%TA.AperFunction,Profile*%
%ADD12C,0.120000*%
%TD*%
G04 APERTURE END LIST*
D10*
X115000000Y-69000000D02*
G75*
G02*
X118000000Y-66000000I3000000J0D01*
G01*
X118000000Y-120000000D02*
G75*
G02*
X115000000Y-117000000I0J3000000D01*
G01*
D11*
X78000000Y-140000000D02*
G75*
G02*
X75000000Y-137000000I0J3000000D01*
G01*
D10*
X195000000Y-137000000D02*
G75*
G02*
X192000000Y-140000000I-3000000J0D01*
G01*
X192000000Y-122000000D02*
G75*
G02*
X195000000Y-125000000I0J-3000000D01*
G01*
X190000000Y-117000000D02*
G75*
G02*
X187000000Y-120000000I-3000000J0D01*
G01*
X187000000Y-66000000D02*
G75*
G02*
X190000000Y-69000000I0J-3000000D01*
G01*
D11*
X195000000Y-61000000D02*
G75*
G02*
X192000000Y-64000000I-3000000J0D01*
G01*
X192000000Y-50000000D02*
G75*
G02*
X195000000Y-53000000I0J-3000000D01*
G01*
X75000000Y-53000000D02*
G75*
G02*
X78000000Y-50000000I3000000J0D01*
G01*
D10*
X169500000Y-66000000D02*
X132500000Y-66000000D01*
X195000000Y-125000000D02*
X195000000Y-137000000D01*
X169500000Y-64000000D02*
X132500000Y-64000000D01*
X115000000Y-96500000D02*
X115000000Y-117000000D01*
X113000000Y-64000000D02*
X123500000Y-64000000D01*
X169500000Y-64000000D02*
G75*
G02*
X169500000Y-66000000I0J-1000000D01*
G01*
D11*
X78000000Y-50000000D02*
X192000000Y-50000000D01*
D10*
X179000000Y-122000000D02*
X192000000Y-122000000D01*
X118000000Y-120000000D02*
X123500000Y-120000000D01*
X123500000Y-122000000D02*
X113000000Y-122000000D01*
X132500000Y-122000000D02*
G75*
G02*
X132500000Y-120000000I0J1000000D01*
G01*
X113000000Y-64000000D02*
X113000000Y-87750000D01*
X187000000Y-66000000D02*
X178500000Y-66000000D01*
X113000000Y-96500000D02*
G75*
G02*
X115000000Y-96500000I1000000J0D01*
G01*
X123500000Y-64000000D02*
G75*
G02*
X123500000Y-66000000I0J-1000000D01*
G01*
D11*
X195000000Y-53000000D02*
X195000000Y-61000000D01*
D10*
X132500000Y-66000000D02*
G75*
G02*
X132500000Y-64000000I0J1000000D01*
G01*
X132500000Y-120000000D02*
X169500000Y-120000000D01*
X156000000Y-70000000D02*
X156000000Y-88000000D01*
X192000000Y-64000000D02*
X178500000Y-64000000D01*
X179000000Y-122000000D02*
G75*
G02*
X179000000Y-120000000I0J1000000D01*
G01*
X113000000Y-122000000D02*
X113000000Y-96500000D01*
X169500000Y-122000000D02*
X132500000Y-122000000D01*
X156000000Y-88000000D02*
G75*
G02*
X152000000Y-88000000I-2000000J0D01*
G01*
X178500000Y-66000000D02*
G75*
G02*
X178500000Y-64000000I0J1000000D01*
G01*
X169500000Y-120000000D02*
G75*
G02*
X169500000Y-122000000I0J-1000000D01*
G01*
X123500000Y-66000000D02*
X118000000Y-66000000D01*
X152000000Y-70000000D02*
G75*
G02*
X156000000Y-70000000I2000000J0D01*
G01*
X152000000Y-88000000D02*
X152000000Y-70000000D01*
D11*
X192000000Y-140000000D02*
X78000000Y-140000000D01*
D10*
X187000000Y-120000000D02*
X179000000Y-120000000D01*
X190000000Y-117000000D02*
X190000000Y-69000000D01*
D11*
X75000000Y-137000000D02*
X75000000Y-53000000D01*
D10*
X123500000Y-120000000D02*
G75*
G02*
X123500000Y-122000000I0J-1000000D01*
G01*
X115000000Y-87750000D02*
G75*
G02*
X113000000Y-87750000I-1000000J0D01*
G01*
X115000000Y-87750000D02*
X115000000Y-69000000D01*
%TO.C,S902*%
D12*
X136150000Y-53550000D02*
X132850000Y-53550000D01*
X132850000Y-56450000D01*
X136150000Y-56450000D01*
X136150000Y-53550000D01*
%TO.C,S903*%
X158150000Y-53550000D02*
X154850000Y-53550000D01*
X154850000Y-56450000D01*
X158150000Y-56450000D01*
X158150000Y-53550000D01*
%TO.C,S910*%
X136150000Y-128300000D02*
X132850000Y-128300000D01*
X132850000Y-131200000D01*
X136150000Y-131200000D01*
X136150000Y-128300000D01*
%TO.C,S907*%
X87150000Y-100450000D02*
X83850000Y-100450000D01*
X83850000Y-103350000D01*
X87150000Y-103350000D01*
X87150000Y-100450000D01*
%TO.C,S911*%
X158150000Y-128300000D02*
X154850000Y-128300000D01*
X154850000Y-131200000D01*
X158150000Y-131200000D01*
X158150000Y-128300000D01*
%TO.C,S909*%
X114150000Y-128300000D02*
X110850000Y-128300000D01*
X110850000Y-131200000D01*
X114150000Y-131200000D01*
X114150000Y-128300000D01*
%TO.C,S901*%
X114150000Y-53550000D02*
X110850000Y-53550000D01*
X110850000Y-56450000D01*
X114150000Y-56450000D01*
X114150000Y-53550000D01*
%TO.C,S912*%
X180150000Y-128300000D02*
X176850000Y-128300000D01*
X176850000Y-131200000D01*
X180150000Y-131200000D01*
X180150000Y-128300000D01*
%TO.C,S908*%
X87150000Y-114650000D02*
X83850000Y-114650000D01*
X83850000Y-117550000D01*
X87150000Y-117550000D01*
X87150000Y-114650000D01*
%TO.C,S905*%
X87150000Y-72050000D02*
X83850000Y-72050000D01*
X83850000Y-74950000D01*
X87150000Y-74950000D01*
X87150000Y-72050000D01*
%TO.C,S906*%
X87050000Y-86250000D02*
X83750000Y-86250000D01*
X83750000Y-89150000D01*
X87050000Y-89150000D01*
X87050000Y-86250000D01*
%TO.C,S904*%
X180150000Y-53550000D02*
X176850000Y-53550000D01*
X176850000Y-56450000D01*
X180150000Y-56450000D01*
X180150000Y-53550000D01*
%TD*%
M02*
